G04 #@! TF.GenerationSoftware,KiCad,Pcbnew,(5.0.2)-1*
G04 #@! TF.CreationDate,2019-04-22T20:12:10-05:00*
G04 #@! TF.ProjectId,luz_audioritmica,6c757a5f-6175-4646-996f-7269746d6963,rev?*
G04 #@! TF.SameCoordinates,PX70bf868PY6c4a2b0*
G04 #@! TF.FileFunction,Copper,L2,Bot*
G04 #@! TF.FilePolarity,Positive*
%FSLAX46Y46*%
G04 Gerber Fmt 4.6, Leading zero omitted, Abs format (unit mm)*
G04 Created by KiCad (PCBNEW (5.0.2)-1) date 4/22/2019 8:12:10 PM*
%MOMM*%
%LPD*%
G01*
G04 APERTURE LIST*
G04 #@! TA.AperFunction,ComponentPad*
%ADD10O,1.700000X1.700000*%
G04 #@! TD*
G04 #@! TA.AperFunction,ComponentPad*
%ADD11R,1.700000X1.700000*%
G04 #@! TD*
G04 #@! TA.AperFunction,ComponentPad*
%ADD12R,1.600000X1.600000*%
G04 #@! TD*
G04 #@! TA.AperFunction,ComponentPad*
%ADD13C,1.600000*%
G04 #@! TD*
G04 #@! TA.AperFunction,ComponentPad*
%ADD14R,1.800000X1.800000*%
G04 #@! TD*
G04 #@! TA.AperFunction,ComponentPad*
%ADD15C,1.800000*%
G04 #@! TD*
G04 #@! TA.AperFunction,ComponentPad*
%ADD16C,1.500000*%
G04 #@! TD*
G04 #@! TA.AperFunction,ComponentPad*
%ADD17R,1.500000X1.500000*%
G04 #@! TD*
G04 #@! TA.AperFunction,ComponentPad*
%ADD18C,1.400000*%
G04 #@! TD*
G04 #@! TA.AperFunction,ComponentPad*
%ADD19O,1.400000X1.400000*%
G04 #@! TD*
G04 #@! TA.AperFunction,Conductor*
%ADD20C,0.750000*%
G04 #@! TD*
G04 APERTURE END LIST*
D10*
G04 #@! TO.P,~,2*
G04 #@! TO.N,GNDREF*
X3250000Y13220000D03*
D11*
G04 #@! TO.P,~,1*
G04 #@! TO.N,VCC*
X3250000Y15760000D03*
G04 #@! TD*
D12*
G04 #@! TO.P,C1,1*
G04 #@! TO.N,Net-(C1-Pad1)*
X13500000Y4500000D03*
D13*
G04 #@! TO.P,C1,2*
G04 #@! TO.N,Net-(C1-Pad2)*
X16000000Y4500000D03*
G04 #@! TD*
D12*
G04 #@! TO.P,C2,1*
G04 #@! TO.N,VCC*
X10045000Y15760000D03*
D13*
G04 #@! TO.P,C2,2*
G04 #@! TO.N,GNDREF*
X10045000Y13260000D03*
G04 #@! TD*
D14*
G04 #@! TO.P,~,1*
G04 #@! TO.N,Net-(D1-Pad1)*
X42800000Y3810000D03*
D15*
G04 #@! TO.P,~,2*
G04 #@! TO.N,VCC*
X40260000Y3810000D03*
G04 #@! TD*
G04 #@! TO.P,~,2*
G04 #@! TO.N,VCC*
X40260000Y10160000D03*
D14*
G04 #@! TO.P,~,1*
G04 #@! TO.N,Net-(D1-Pad1)*
X42800000Y10160000D03*
G04 #@! TD*
G04 #@! TO.P,~,1*
G04 #@! TO.N,Net-(D1-Pad1)*
X42800000Y16510000D03*
D15*
G04 #@! TO.P,~,2*
G04 #@! TO.N,VCC*
X40260000Y16510000D03*
G04 #@! TD*
D11*
G04 #@! TO.P,M1,1*
G04 #@! TO.N,GNDREF*
X6382000Y3683000D03*
D10*
G04 #@! TO.P,M1,2*
G04 #@! TO.N,Net-(C1-Pad1)*
X6382000Y6223000D03*
G04 #@! TD*
D16*
G04 #@! TO.P,Q1,2*
G04 #@! TO.N,Net-(C1-Pad2)*
X23285000Y4580000D03*
G04 #@! TO.P,Q1,3*
G04 #@! TO.N,GNDREF*
X20745000Y4580000D03*
D17*
G04 #@! TO.P,Q1,1*
G04 #@! TO.N,Net-(Q1-Pad1)*
X25825000Y4580000D03*
G04 #@! TD*
G04 #@! TO.P,Q2,1*
G04 #@! TO.N,Net-(D1-Pad1)*
X35000000Y4580000D03*
D16*
G04 #@! TO.P,Q2,3*
G04 #@! TO.N,GNDREF*
X29920000Y4580000D03*
G04 #@! TO.P,Q2,2*
G04 #@! TO.N,Net-(Q1-Pad1)*
X32460000Y4580000D03*
G04 #@! TD*
D18*
G04 #@! TO.P,R1,1*
G04 #@! TO.N,VCC*
X17250000Y18250000D03*
D19*
G04 #@! TO.P,R1,2*
G04 #@! TO.N,Net-(C1-Pad1)*
X17250000Y10630000D03*
G04 #@! TD*
D18*
G04 #@! TO.P,R2,1*
G04 #@! TO.N,VCC*
X22750000Y18250000D03*
D19*
G04 #@! TO.P,R2,2*
G04 #@! TO.N,Net-(C1-Pad2)*
X22750000Y10630000D03*
G04 #@! TD*
G04 #@! TO.P,R3,2*
G04 #@! TO.N,Net-(Q1-Pad1)*
X28500000Y10630000D03*
D18*
G04 #@! TO.P,R3,1*
G04 #@! TO.N,VCC*
X28500000Y18250000D03*
G04 #@! TD*
D20*
G04 #@! TO.N,VCC*
X3250000Y15760000D02*
X10045000Y15760000D01*
X16260051Y18250000D02*
X17250000Y18250000D01*
X10985000Y18250000D02*
X16260051Y18250000D01*
X10045000Y17310000D02*
X10985000Y18250000D01*
X10045000Y15760000D02*
X10045000Y17310000D01*
X38520000Y18250000D02*
X40260000Y16510000D01*
X17250000Y18250000D02*
X38520000Y18250000D01*
X40260000Y3810000D02*
X40260000Y16510000D01*
G04 #@! TO.N,Net-(C1-Pad1)*
X13500000Y6050000D02*
X13500000Y4500000D01*
X13327000Y6223000D02*
X13500000Y6050000D01*
X6382000Y6223000D02*
X13327000Y6223000D01*
X12250000Y8750000D02*
X12250000Y6250000D01*
X17250000Y10630000D02*
X14130000Y10630000D01*
X14130000Y10630000D02*
X12250000Y8750000D01*
G04 #@! TO.N,Net-(C1-Pad2)*
X22750000Y10630000D02*
X22750000Y7750000D01*
X23285000Y7215000D02*
X23285000Y4580000D01*
X22750000Y7750000D02*
X23285000Y7215000D01*
X17131370Y4500000D02*
X18000000Y5368630D01*
X16000000Y4500000D02*
X17131370Y4500000D01*
X18000000Y5368630D02*
X18000000Y7000000D01*
X18750000Y7750000D02*
X22750000Y7750000D01*
X18000000Y7000000D02*
X18750000Y7750000D01*
G04 #@! TO.N,Net-(D1-Pad1)*
X42800000Y16510000D02*
X42800000Y3810000D01*
X40990000Y2000000D02*
X42800000Y3810000D01*
X36080000Y2000000D02*
X40990000Y2000000D01*
X35000000Y4580000D02*
X35000000Y3080000D01*
X35000000Y3080000D02*
X36080000Y2000000D01*
G04 #@! TO.N,Net-(Q1-Pad1)*
X32500000Y4620000D02*
X32460000Y4580000D01*
X32500000Y5750000D02*
X32500000Y4620000D01*
X31500000Y6750000D02*
X32500000Y5750000D01*
X25825000Y4580000D02*
X25825000Y5325000D01*
X25825000Y5325000D02*
X27250000Y6750000D01*
X28500000Y10630000D02*
X28500000Y6750000D01*
X27250000Y6750000D02*
X28500000Y6750000D01*
X28500000Y6750000D02*
X31500000Y6750000D01*
G04 #@! TD*
M02*
