M48
;DRILL file {KiCad (5.0.2)-1} date 4/22/2019 8:12:13 PM
;FORMAT={-:-/ absolute / metric / decimal}
FMAT,2
METRIC,TZ
T1C0.700
T2C0.800
T3C0.900
T4C1.000
%
G90
G05
T1
X22.75Y10.63
X17.25Y18.25
X17.25Y10.63
X28.5Y18.25
X28.5Y10.63
X22.75Y18.25
T2
X20.745Y4.58
X23.285Y4.58
X25.825Y4.58
X10.045Y15.76
X10.045Y13.26
X13.5Y4.5
X16.Y4.5
X29.92Y4.58
X32.46Y4.58
X35.Y4.58
T3
X40.26Y16.51
X42.8Y16.51
X40.26Y10.16
X42.8Y10.16
X40.26Y3.81
X42.8Y3.81
T4
X3.25Y15.76
X3.25Y13.22
X6.382Y6.223
X6.382Y3.683
T0
M30
