G04 #@! TF.GenerationSoftware,KiCad,Pcbnew,(5.0.2)-1*
G04 #@! TF.CreationDate,2019-05-19T00:08:12-05:00*
G04 #@! TF.ProjectId,panel_luz_audioritmica,70616e65-6c5f-46c7-957a-5f617564696f,rev?*
G04 #@! TF.SameCoordinates,PX4b8e0a8PY86fe1b0*
G04 #@! TF.FileFunction,Soldermask,Bot*
G04 #@! TF.FilePolarity,Negative*
%FSLAX46Y46*%
G04 Gerber Fmt 4.6, Leading zero omitted, Abs format (unit mm)*
G04 Created by KiCad (PCBNEW (5.0.2)-1) date 5/19/2019 12:08:12 AM*
%MOMM*%
%LPD*%
G01*
G04 APERTURE LIST*
%ADD10C,0.100000*%
G04 APERTURE END LIST*
D10*
G36*
X57283000Y2782000D02*
X55481000Y2782000D01*
X55481000Y4584000D01*
X57283000Y4584000D01*
X57283000Y2782000D01*
X57283000Y2782000D01*
G37*
G36*
X12283000Y2782000D02*
X10481000Y2782000D01*
X10481000Y4584000D01*
X12283000Y4584000D01*
X12283000Y2782000D01*
X12283000Y2782000D01*
G37*
G36*
X48751000Y2859000D02*
X46849000Y2859000D01*
X46849000Y4761000D01*
X48751000Y4761000D01*
X48751000Y2859000D01*
X48751000Y2859000D01*
G37*
G36*
X93751000Y2859000D02*
X91849000Y2859000D01*
X91849000Y4761000D01*
X93751000Y4761000D01*
X93751000Y2859000D01*
X93751000Y2859000D01*
G37*
G36*
X90537396Y4724454D02*
X90710466Y4652766D01*
X90866230Y4548688D01*
X90998688Y4416230D01*
X91102766Y4260466D01*
X91174454Y4087396D01*
X91211000Y3903667D01*
X91211000Y3716333D01*
X91174454Y3532604D01*
X91102766Y3359534D01*
X90998688Y3203770D01*
X90866230Y3071312D01*
X90710466Y2967234D01*
X90537396Y2895546D01*
X90353667Y2859000D01*
X90166333Y2859000D01*
X89982604Y2895546D01*
X89809534Y2967234D01*
X89653770Y3071312D01*
X89521312Y3203770D01*
X89417234Y3359534D01*
X89345546Y3532604D01*
X89309000Y3716333D01*
X89309000Y3903667D01*
X89345546Y4087396D01*
X89417234Y4260466D01*
X89521312Y4416230D01*
X89653770Y4548688D01*
X89809534Y4652766D01*
X89982604Y4724454D01*
X90166333Y4761000D01*
X90353667Y4761000D01*
X90537396Y4724454D01*
X90537396Y4724454D01*
G37*
G36*
X45537396Y4724454D02*
X45710466Y4652766D01*
X45866230Y4548688D01*
X45998688Y4416230D01*
X46102766Y4260466D01*
X46174454Y4087396D01*
X46211000Y3903667D01*
X46211000Y3716333D01*
X46174454Y3532604D01*
X46102766Y3359534D01*
X45998688Y3203770D01*
X45866230Y3071312D01*
X45710466Y2967234D01*
X45537396Y2895546D01*
X45353667Y2859000D01*
X45166333Y2859000D01*
X44982604Y2895546D01*
X44809534Y2967234D01*
X44653770Y3071312D01*
X44521312Y3203770D01*
X44417234Y3359534D01*
X44345546Y3532604D01*
X44309000Y3716333D01*
X44309000Y3903667D01*
X44345546Y4087396D01*
X44417234Y4260466D01*
X44521312Y4416230D01*
X44653770Y4548688D01*
X44809534Y4652766D01*
X44982604Y4724454D01*
X45166333Y4761000D01*
X45353667Y4761000D01*
X45537396Y4724454D01*
X45537396Y4724454D01*
G37*
G36*
X19351000Y3649000D02*
X17649000Y3649000D01*
X17649000Y5351000D01*
X19351000Y5351000D01*
X19351000Y3649000D01*
X19351000Y3649000D01*
G37*
G36*
X64351000Y3649000D02*
X62649000Y3649000D01*
X62649000Y5351000D01*
X64351000Y5351000D01*
X64351000Y3649000D01*
X64351000Y3649000D01*
G37*
G36*
X66248228Y5318297D02*
X66403100Y5254147D01*
X66542481Y5161015D01*
X66661015Y5042481D01*
X66754147Y4903100D01*
X66818297Y4748228D01*
X66851000Y4583816D01*
X66851000Y4416184D01*
X66818297Y4251772D01*
X66754147Y4096900D01*
X66661015Y3957519D01*
X66542481Y3838985D01*
X66403100Y3745853D01*
X66248228Y3681703D01*
X66083816Y3649000D01*
X65916184Y3649000D01*
X65751772Y3681703D01*
X65596900Y3745853D01*
X65457519Y3838985D01*
X65338985Y3957519D01*
X65245853Y4096900D01*
X65181703Y4251772D01*
X65149000Y4416184D01*
X65149000Y4583816D01*
X65181703Y4748228D01*
X65245853Y4903100D01*
X65338985Y5042481D01*
X65457519Y5161015D01*
X65596900Y5254147D01*
X65751772Y5318297D01*
X65916184Y5351000D01*
X66083816Y5351000D01*
X66248228Y5318297D01*
X66248228Y5318297D01*
G37*
G36*
X21248228Y5318297D02*
X21403100Y5254147D01*
X21542481Y5161015D01*
X21661015Y5042481D01*
X21754147Y4903100D01*
X21818297Y4748228D01*
X21851000Y4583816D01*
X21851000Y4416184D01*
X21818297Y4251772D01*
X21754147Y4096900D01*
X21661015Y3957519D01*
X21542481Y3838985D01*
X21403100Y3745853D01*
X21248228Y3681703D01*
X21083816Y3649000D01*
X20916184Y3649000D01*
X20751772Y3681703D01*
X20596900Y3745853D01*
X20457519Y3838985D01*
X20338985Y3957519D01*
X20245853Y4096900D01*
X20181703Y4251772D01*
X20149000Y4416184D01*
X20149000Y4583816D01*
X20181703Y4748228D01*
X20245853Y4903100D01*
X20338985Y5042481D01*
X20457519Y5161015D01*
X20596900Y5254147D01*
X20751772Y5318297D01*
X20916184Y5351000D01*
X21083816Y5351000D01*
X21248228Y5318297D01*
X21248228Y5318297D01*
G37*
G36*
X73518643Y5350219D02*
X73664415Y5289838D01*
X73795611Y5202176D01*
X73907176Y5090611D01*
X73994838Y4959415D01*
X74055219Y4813643D01*
X74086000Y4658893D01*
X74086000Y4501107D01*
X74055219Y4346357D01*
X73994838Y4200585D01*
X73907176Y4069389D01*
X73795611Y3957824D01*
X73664415Y3870162D01*
X73518643Y3809781D01*
X73363893Y3779000D01*
X73206107Y3779000D01*
X73051357Y3809781D01*
X72905585Y3870162D01*
X72774389Y3957824D01*
X72662824Y4069389D01*
X72575162Y4200585D01*
X72514781Y4346357D01*
X72484000Y4501107D01*
X72484000Y4658893D01*
X72514781Y4813643D01*
X72575162Y4959415D01*
X72662824Y5090611D01*
X72774389Y5202176D01*
X72905585Y5289838D01*
X73051357Y5350219D01*
X73206107Y5381000D01*
X73363893Y5381000D01*
X73518643Y5350219D01*
X73518643Y5350219D01*
G37*
G36*
X76626000Y3779000D02*
X75024000Y3779000D01*
X75024000Y5381000D01*
X76626000Y5381000D01*
X76626000Y3779000D01*
X76626000Y3779000D01*
G37*
G36*
X25978643Y5350219D02*
X26124415Y5289838D01*
X26255611Y5202176D01*
X26367176Y5090611D01*
X26454838Y4959415D01*
X26515219Y4813643D01*
X26546000Y4658893D01*
X26546000Y4501107D01*
X26515219Y4346357D01*
X26454838Y4200585D01*
X26367176Y4069389D01*
X26255611Y3957824D01*
X26124415Y3870162D01*
X25978643Y3809781D01*
X25823893Y3779000D01*
X25666107Y3779000D01*
X25511357Y3809781D01*
X25365585Y3870162D01*
X25234389Y3957824D01*
X25122824Y4069389D01*
X25035162Y4200585D01*
X24974781Y4346357D01*
X24944000Y4501107D01*
X24944000Y4658893D01*
X24974781Y4813643D01*
X25035162Y4959415D01*
X25122824Y5090611D01*
X25234389Y5202176D01*
X25365585Y5289838D01*
X25511357Y5350219D01*
X25666107Y5381000D01*
X25823893Y5381000D01*
X25978643Y5350219D01*
X25978643Y5350219D01*
G37*
G36*
X70978643Y5350219D02*
X71124415Y5289838D01*
X71255611Y5202176D01*
X71367176Y5090611D01*
X71454838Y4959415D01*
X71515219Y4813643D01*
X71546000Y4658893D01*
X71546000Y4501107D01*
X71515219Y4346357D01*
X71454838Y4200585D01*
X71367176Y4069389D01*
X71255611Y3957824D01*
X71124415Y3870162D01*
X70978643Y3809781D01*
X70823893Y3779000D01*
X70666107Y3779000D01*
X70511357Y3809781D01*
X70365585Y3870162D01*
X70234389Y3957824D01*
X70122824Y4069389D01*
X70035162Y4200585D01*
X69974781Y4346357D01*
X69944000Y4501107D01*
X69944000Y4658893D01*
X69974781Y4813643D01*
X70035162Y4959415D01*
X70122824Y5090611D01*
X70234389Y5202176D01*
X70365585Y5289838D01*
X70511357Y5350219D01*
X70666107Y5381000D01*
X70823893Y5381000D01*
X70978643Y5350219D01*
X70978643Y5350219D01*
G37*
G36*
X40801000Y3779000D02*
X39199000Y3779000D01*
X39199000Y5381000D01*
X40801000Y5381000D01*
X40801000Y3779000D01*
X40801000Y3779000D01*
G37*
G36*
X31626000Y3779000D02*
X30024000Y3779000D01*
X30024000Y5381000D01*
X31626000Y5381000D01*
X31626000Y3779000D01*
X31626000Y3779000D01*
G37*
G36*
X80153643Y5350219D02*
X80299415Y5289838D01*
X80430611Y5202176D01*
X80542176Y5090611D01*
X80629838Y4959415D01*
X80690219Y4813643D01*
X80721000Y4658893D01*
X80721000Y4501107D01*
X80690219Y4346357D01*
X80629838Y4200585D01*
X80542176Y4069389D01*
X80430611Y3957824D01*
X80299415Y3870162D01*
X80153643Y3809781D01*
X79998893Y3779000D01*
X79841107Y3779000D01*
X79686357Y3809781D01*
X79540585Y3870162D01*
X79409389Y3957824D01*
X79297824Y4069389D01*
X79210162Y4200585D01*
X79149781Y4346357D01*
X79119000Y4501107D01*
X79119000Y4658893D01*
X79149781Y4813643D01*
X79210162Y4959415D01*
X79297824Y5090611D01*
X79409389Y5202176D01*
X79540585Y5289838D01*
X79686357Y5350219D01*
X79841107Y5381000D01*
X79998893Y5381000D01*
X80153643Y5350219D01*
X80153643Y5350219D01*
G37*
G36*
X82693643Y5350219D02*
X82839415Y5289838D01*
X82970611Y5202176D01*
X83082176Y5090611D01*
X83169838Y4959415D01*
X83230219Y4813643D01*
X83261000Y4658893D01*
X83261000Y4501107D01*
X83230219Y4346357D01*
X83169838Y4200585D01*
X83082176Y4069389D01*
X82970611Y3957824D01*
X82839415Y3870162D01*
X82693643Y3809781D01*
X82538893Y3779000D01*
X82381107Y3779000D01*
X82226357Y3809781D01*
X82080585Y3870162D01*
X81949389Y3957824D01*
X81837824Y4069389D01*
X81750162Y4200585D01*
X81689781Y4346357D01*
X81659000Y4501107D01*
X81659000Y4658893D01*
X81689781Y4813643D01*
X81750162Y4959415D01*
X81837824Y5090611D01*
X81949389Y5202176D01*
X82080585Y5289838D01*
X82226357Y5350219D01*
X82381107Y5381000D01*
X82538893Y5381000D01*
X82693643Y5350219D01*
X82693643Y5350219D01*
G37*
G36*
X37693643Y5350219D02*
X37839415Y5289838D01*
X37970611Y5202176D01*
X38082176Y5090611D01*
X38169838Y4959415D01*
X38230219Y4813643D01*
X38261000Y4658893D01*
X38261000Y4501107D01*
X38230219Y4346357D01*
X38169838Y4200585D01*
X38082176Y4069389D01*
X37970611Y3957824D01*
X37839415Y3870162D01*
X37693643Y3809781D01*
X37538893Y3779000D01*
X37381107Y3779000D01*
X37226357Y3809781D01*
X37080585Y3870162D01*
X36949389Y3957824D01*
X36837824Y4069389D01*
X36750162Y4200585D01*
X36689781Y4346357D01*
X36659000Y4501107D01*
X36659000Y4658893D01*
X36689781Y4813643D01*
X36750162Y4959415D01*
X36837824Y5090611D01*
X36949389Y5202176D01*
X37080585Y5289838D01*
X37226357Y5350219D01*
X37381107Y5381000D01*
X37538893Y5381000D01*
X37693643Y5350219D01*
X37693643Y5350219D01*
G37*
G36*
X35153643Y5350219D02*
X35299415Y5289838D01*
X35430611Y5202176D01*
X35542176Y5090611D01*
X35629838Y4959415D01*
X35690219Y4813643D01*
X35721000Y4658893D01*
X35721000Y4501107D01*
X35690219Y4346357D01*
X35629838Y4200585D01*
X35542176Y4069389D01*
X35430611Y3957824D01*
X35299415Y3870162D01*
X35153643Y3809781D01*
X34998893Y3779000D01*
X34841107Y3779000D01*
X34686357Y3809781D01*
X34540585Y3870162D01*
X34409389Y3957824D01*
X34297824Y4069389D01*
X34210162Y4200585D01*
X34149781Y4346357D01*
X34119000Y4501107D01*
X34119000Y4658893D01*
X34149781Y4813643D01*
X34210162Y4959415D01*
X34297824Y5090611D01*
X34409389Y5202176D01*
X34540585Y5289838D01*
X34686357Y5350219D01*
X34841107Y5381000D01*
X34998893Y5381000D01*
X35153643Y5350219D01*
X35153643Y5350219D01*
G37*
G36*
X28518643Y5350219D02*
X28664415Y5289838D01*
X28795611Y5202176D01*
X28907176Y5090611D01*
X28994838Y4959415D01*
X29055219Y4813643D01*
X29086000Y4658893D01*
X29086000Y4501107D01*
X29055219Y4346357D01*
X28994838Y4200585D01*
X28907176Y4069389D01*
X28795611Y3957824D01*
X28664415Y3870162D01*
X28518643Y3809781D01*
X28363893Y3779000D01*
X28206107Y3779000D01*
X28051357Y3809781D01*
X27905585Y3870162D01*
X27774389Y3957824D01*
X27662824Y4069389D01*
X27575162Y4200585D01*
X27514781Y4346357D01*
X27484000Y4501107D01*
X27484000Y4658893D01*
X27514781Y4813643D01*
X27575162Y4959415D01*
X27662824Y5090611D01*
X27774389Y5202176D01*
X27905585Y5289838D01*
X28051357Y5350219D01*
X28206107Y5381000D01*
X28363893Y5381000D01*
X28518643Y5350219D01*
X28518643Y5350219D01*
G37*
G36*
X85801000Y3779000D02*
X84199000Y3779000D01*
X84199000Y5381000D01*
X85801000Y5381000D01*
X85801000Y3779000D01*
X85801000Y3779000D01*
G37*
G36*
X11492442Y7117482D02*
X11558627Y7110963D01*
X11671853Y7076616D01*
X11728467Y7059443D01*
X11867087Y6985348D01*
X11884991Y6975778D01*
X11920729Y6946448D01*
X12022186Y6863186D01*
X12105448Y6761729D01*
X12134778Y6725991D01*
X12134779Y6725989D01*
X12218443Y6569467D01*
X12218443Y6569466D01*
X12269963Y6399627D01*
X12287359Y6223000D01*
X12269963Y6046373D01*
X12235616Y5933147D01*
X12218443Y5876533D01*
X12144348Y5737913D01*
X12134778Y5720009D01*
X12105448Y5684271D01*
X12022186Y5582814D01*
X11920729Y5499552D01*
X11884991Y5470222D01*
X11884989Y5470221D01*
X11728467Y5386557D01*
X11671853Y5369384D01*
X11558627Y5335037D01*
X11492442Y5328518D01*
X11426260Y5322000D01*
X11337740Y5322000D01*
X11271558Y5328518D01*
X11205373Y5335037D01*
X11092147Y5369384D01*
X11035533Y5386557D01*
X10879011Y5470221D01*
X10879009Y5470222D01*
X10843271Y5499552D01*
X10741814Y5582814D01*
X10658552Y5684271D01*
X10629222Y5720009D01*
X10619652Y5737913D01*
X10545557Y5876533D01*
X10528384Y5933147D01*
X10494037Y6046373D01*
X10476641Y6223000D01*
X10494037Y6399627D01*
X10545557Y6569466D01*
X10545557Y6569467D01*
X10629221Y6725989D01*
X10629222Y6725991D01*
X10658552Y6761729D01*
X10741814Y6863186D01*
X10843271Y6946448D01*
X10879009Y6975778D01*
X10896913Y6985348D01*
X11035533Y7059443D01*
X11092147Y7076616D01*
X11205373Y7110963D01*
X11271558Y7117482D01*
X11337740Y7124000D01*
X11426260Y7124000D01*
X11492442Y7117482D01*
X11492442Y7117482D01*
G37*
G36*
X56492442Y7117482D02*
X56558627Y7110963D01*
X56671853Y7076616D01*
X56728467Y7059443D01*
X56867087Y6985348D01*
X56884991Y6975778D01*
X56920729Y6946448D01*
X57022186Y6863186D01*
X57105448Y6761729D01*
X57134778Y6725991D01*
X57134779Y6725989D01*
X57218443Y6569467D01*
X57218443Y6569466D01*
X57269963Y6399627D01*
X57287359Y6223000D01*
X57269963Y6046373D01*
X57235616Y5933147D01*
X57218443Y5876533D01*
X57144348Y5737913D01*
X57134778Y5720009D01*
X57105448Y5684271D01*
X57022186Y5582814D01*
X56920729Y5499552D01*
X56884991Y5470222D01*
X56884989Y5470221D01*
X56728467Y5386557D01*
X56671853Y5369384D01*
X56558627Y5335037D01*
X56492442Y5328518D01*
X56426260Y5322000D01*
X56337740Y5322000D01*
X56271558Y5328518D01*
X56205373Y5335037D01*
X56092147Y5369384D01*
X56035533Y5386557D01*
X55879011Y5470221D01*
X55879009Y5470222D01*
X55843271Y5499552D01*
X55741814Y5582814D01*
X55658552Y5684271D01*
X55629222Y5720009D01*
X55619652Y5737913D01*
X55545557Y5876533D01*
X55528384Y5933147D01*
X55494037Y6046373D01*
X55476641Y6223000D01*
X55494037Y6399627D01*
X55545557Y6569466D01*
X55545557Y6569467D01*
X55629221Y6725989D01*
X55629222Y6725991D01*
X55658552Y6761729D01*
X55741814Y6863186D01*
X55843271Y6946448D01*
X55879009Y6975778D01*
X55896913Y6985348D01*
X56035533Y7059443D01*
X56092147Y7076616D01*
X56205373Y7110963D01*
X56271558Y7117482D01*
X56337740Y7124000D01*
X56426260Y7124000D01*
X56492442Y7117482D01*
X56492442Y7117482D01*
G37*
G36*
X93751000Y9209000D02*
X91849000Y9209000D01*
X91849000Y11111000D01*
X93751000Y11111000D01*
X93751000Y9209000D01*
X93751000Y9209000D01*
G37*
G36*
X48751000Y9209000D02*
X46849000Y9209000D01*
X46849000Y11111000D01*
X48751000Y11111000D01*
X48751000Y9209000D01*
X48751000Y9209000D01*
G37*
G36*
X90537396Y11074454D02*
X90710466Y11002766D01*
X90866230Y10898688D01*
X90998688Y10766230D01*
X91102766Y10610466D01*
X91174454Y10437396D01*
X91211000Y10253667D01*
X91211000Y10066333D01*
X91174454Y9882604D01*
X91102766Y9709534D01*
X90998688Y9553770D01*
X90866230Y9421312D01*
X90710466Y9317234D01*
X90537396Y9245546D01*
X90353667Y9209000D01*
X90166333Y9209000D01*
X89982604Y9245546D01*
X89809534Y9317234D01*
X89653770Y9421312D01*
X89521312Y9553770D01*
X89417234Y9709534D01*
X89345546Y9882604D01*
X89309000Y10066333D01*
X89309000Y10253667D01*
X89345546Y10437396D01*
X89417234Y10610466D01*
X89521312Y10766230D01*
X89653770Y10898688D01*
X89809534Y11002766D01*
X89982604Y11074454D01*
X90166333Y11111000D01*
X90353667Y11111000D01*
X90537396Y11074454D01*
X90537396Y11074454D01*
G37*
G36*
X45537396Y11074454D02*
X45710466Y11002766D01*
X45866230Y10898688D01*
X45998688Y10766230D01*
X46102766Y10610466D01*
X46174454Y10437396D01*
X46211000Y10253667D01*
X46211000Y10066333D01*
X46174454Y9882604D01*
X46102766Y9709534D01*
X45998688Y9553770D01*
X45866230Y9421312D01*
X45710466Y9317234D01*
X45537396Y9245546D01*
X45353667Y9209000D01*
X45166333Y9209000D01*
X44982604Y9245546D01*
X44809534Y9317234D01*
X44653770Y9421312D01*
X44521312Y9553770D01*
X44417234Y9709534D01*
X44345546Y9882604D01*
X44309000Y10066333D01*
X44309000Y10253667D01*
X44345546Y10437396D01*
X44417234Y10610466D01*
X44521312Y10766230D01*
X44653770Y10898688D01*
X44809534Y11002766D01*
X44982604Y11074454D01*
X45166333Y11111000D01*
X45353667Y11111000D01*
X45537396Y11074454D01*
X45537396Y11074454D01*
G37*
G36*
X67323665Y11377378D02*
X67397222Y11370133D01*
X67538786Y11327190D01*
X67669252Y11257454D01*
X67783606Y11163606D01*
X67877454Y11049252D01*
X67947190Y10918786D01*
X67990133Y10777222D01*
X68004633Y10630000D01*
X67990133Y10482778D01*
X67947190Y10341214D01*
X67877454Y10210748D01*
X67783606Y10096394D01*
X67669252Y10002546D01*
X67538786Y9932810D01*
X67397222Y9889867D01*
X67323665Y9882622D01*
X67286888Y9879000D01*
X67213112Y9879000D01*
X67176335Y9882622D01*
X67102778Y9889867D01*
X66961214Y9932810D01*
X66830748Y10002546D01*
X66716394Y10096394D01*
X66622546Y10210748D01*
X66552810Y10341214D01*
X66509867Y10482778D01*
X66495367Y10630000D01*
X66509867Y10777222D01*
X66552810Y10918786D01*
X66622546Y11049252D01*
X66716394Y11163606D01*
X66830748Y11257454D01*
X66961214Y11327190D01*
X67102778Y11370133D01*
X67176335Y11377378D01*
X67213112Y11381000D01*
X67286888Y11381000D01*
X67323665Y11377378D01*
X67323665Y11377378D01*
G37*
G36*
X78573665Y11377378D02*
X78647222Y11370133D01*
X78788786Y11327190D01*
X78919252Y11257454D01*
X79033606Y11163606D01*
X79127454Y11049252D01*
X79197190Y10918786D01*
X79240133Y10777222D01*
X79254633Y10630000D01*
X79240133Y10482778D01*
X79197190Y10341214D01*
X79127454Y10210748D01*
X79033606Y10096394D01*
X78919252Y10002546D01*
X78788786Y9932810D01*
X78647222Y9889867D01*
X78573665Y9882622D01*
X78536888Y9879000D01*
X78463112Y9879000D01*
X78426335Y9882622D01*
X78352778Y9889867D01*
X78211214Y9932810D01*
X78080748Y10002546D01*
X77966394Y10096394D01*
X77872546Y10210748D01*
X77802810Y10341214D01*
X77759867Y10482778D01*
X77745367Y10630000D01*
X77759867Y10777222D01*
X77802810Y10918786D01*
X77872546Y11049252D01*
X77966394Y11163606D01*
X78080748Y11257454D01*
X78211214Y11327190D01*
X78352778Y11370133D01*
X78426335Y11377378D01*
X78463112Y11381000D01*
X78536888Y11381000D01*
X78573665Y11377378D01*
X78573665Y11377378D01*
G37*
G36*
X27823665Y11377378D02*
X27897222Y11370133D01*
X28038786Y11327190D01*
X28169252Y11257454D01*
X28283606Y11163606D01*
X28377454Y11049252D01*
X28447190Y10918786D01*
X28490133Y10777222D01*
X28504633Y10630000D01*
X28490133Y10482778D01*
X28447190Y10341214D01*
X28377454Y10210748D01*
X28283606Y10096394D01*
X28169252Y10002546D01*
X28038786Y9932810D01*
X27897222Y9889867D01*
X27823665Y9882622D01*
X27786888Y9879000D01*
X27713112Y9879000D01*
X27676335Y9882622D01*
X27602778Y9889867D01*
X27461214Y9932810D01*
X27330748Y10002546D01*
X27216394Y10096394D01*
X27122546Y10210748D01*
X27052810Y10341214D01*
X27009867Y10482778D01*
X26995367Y10630000D01*
X27009867Y10777222D01*
X27052810Y10918786D01*
X27122546Y11049252D01*
X27216394Y11163606D01*
X27330748Y11257454D01*
X27461214Y11327190D01*
X27602778Y11370133D01*
X27676335Y11377378D01*
X27713112Y11381000D01*
X27786888Y11381000D01*
X27823665Y11377378D01*
X27823665Y11377378D01*
G37*
G36*
X72823665Y11377378D02*
X72897222Y11370133D01*
X73038786Y11327190D01*
X73169252Y11257454D01*
X73283606Y11163606D01*
X73377454Y11049252D01*
X73447190Y10918786D01*
X73490133Y10777222D01*
X73504633Y10630000D01*
X73490133Y10482778D01*
X73447190Y10341214D01*
X73377454Y10210748D01*
X73283606Y10096394D01*
X73169252Y10002546D01*
X73038786Y9932810D01*
X72897222Y9889867D01*
X72823665Y9882622D01*
X72786888Y9879000D01*
X72713112Y9879000D01*
X72676335Y9882622D01*
X72602778Y9889867D01*
X72461214Y9932810D01*
X72330748Y10002546D01*
X72216394Y10096394D01*
X72122546Y10210748D01*
X72052810Y10341214D01*
X72009867Y10482778D01*
X71995367Y10630000D01*
X72009867Y10777222D01*
X72052810Y10918786D01*
X72122546Y11049252D01*
X72216394Y11163606D01*
X72330748Y11257454D01*
X72461214Y11327190D01*
X72602778Y11370133D01*
X72676335Y11377378D01*
X72713112Y11381000D01*
X72786888Y11381000D01*
X72823665Y11377378D01*
X72823665Y11377378D01*
G37*
G36*
X33573665Y11377378D02*
X33647222Y11370133D01*
X33788786Y11327190D01*
X33919252Y11257454D01*
X34033606Y11163606D01*
X34127454Y11049252D01*
X34197190Y10918786D01*
X34240133Y10777222D01*
X34254633Y10630000D01*
X34240133Y10482778D01*
X34197190Y10341214D01*
X34127454Y10210748D01*
X34033606Y10096394D01*
X33919252Y10002546D01*
X33788786Y9932810D01*
X33647222Y9889867D01*
X33573665Y9882622D01*
X33536888Y9879000D01*
X33463112Y9879000D01*
X33426335Y9882622D01*
X33352778Y9889867D01*
X33211214Y9932810D01*
X33080748Y10002546D01*
X32966394Y10096394D01*
X32872546Y10210748D01*
X32802810Y10341214D01*
X32759867Y10482778D01*
X32745367Y10630000D01*
X32759867Y10777222D01*
X32802810Y10918786D01*
X32872546Y11049252D01*
X32966394Y11163606D01*
X33080748Y11257454D01*
X33211214Y11327190D01*
X33352778Y11370133D01*
X33426335Y11377378D01*
X33463112Y11381000D01*
X33536888Y11381000D01*
X33573665Y11377378D01*
X33573665Y11377378D01*
G37*
G36*
X22323665Y11377378D02*
X22397222Y11370133D01*
X22538786Y11327190D01*
X22669252Y11257454D01*
X22783606Y11163606D01*
X22877454Y11049252D01*
X22947190Y10918786D01*
X22990133Y10777222D01*
X23004633Y10630000D01*
X22990133Y10482778D01*
X22947190Y10341214D01*
X22877454Y10210748D01*
X22783606Y10096394D01*
X22669252Y10002546D01*
X22538786Y9932810D01*
X22397222Y9889867D01*
X22323665Y9882622D01*
X22286888Y9879000D01*
X22213112Y9879000D01*
X22176335Y9882622D01*
X22102778Y9889867D01*
X21961214Y9932810D01*
X21830748Y10002546D01*
X21716394Y10096394D01*
X21622546Y10210748D01*
X21552810Y10341214D01*
X21509867Y10482778D01*
X21495367Y10630000D01*
X21509867Y10777222D01*
X21552810Y10918786D01*
X21622546Y11049252D01*
X21716394Y11163606D01*
X21830748Y11257454D01*
X21961214Y11327190D01*
X22102778Y11370133D01*
X22176335Y11377378D01*
X22213112Y11381000D01*
X22286888Y11381000D01*
X22323665Y11377378D01*
X22323665Y11377378D01*
G37*
G36*
X53360442Y14114482D02*
X53426627Y14107963D01*
X53524423Y14078297D01*
X53596467Y14056443D01*
X53675596Y14014147D01*
X53752991Y13972778D01*
X53788729Y13943448D01*
X53890186Y13860186D01*
X53973448Y13758729D01*
X54002778Y13722991D01*
X54002779Y13722989D01*
X54086443Y13566467D01*
X54086443Y13566466D01*
X54137963Y13396627D01*
X54155359Y13220000D01*
X54137963Y13043373D01*
X54128377Y13011772D01*
X54086443Y12873533D01*
X54077552Y12856900D01*
X54002778Y12717009D01*
X53973448Y12681271D01*
X53890186Y12579814D01*
X53800064Y12505854D01*
X53752991Y12467222D01*
X53752989Y12467221D01*
X53596467Y12383557D01*
X53539853Y12366384D01*
X53426627Y12332037D01*
X53360442Y12325518D01*
X53294260Y12319000D01*
X53205740Y12319000D01*
X53139558Y12325518D01*
X53073373Y12332037D01*
X52960147Y12366384D01*
X52903533Y12383557D01*
X52747011Y12467221D01*
X52747009Y12467222D01*
X52699936Y12505854D01*
X52609814Y12579814D01*
X52526552Y12681271D01*
X52497222Y12717009D01*
X52422448Y12856900D01*
X52413557Y12873533D01*
X52371623Y13011772D01*
X52362037Y13043373D01*
X52344641Y13220000D01*
X52362037Y13396627D01*
X52413557Y13566466D01*
X52413557Y13566467D01*
X52497221Y13722989D01*
X52497222Y13722991D01*
X52526552Y13758729D01*
X52609814Y13860186D01*
X52711271Y13943448D01*
X52747009Y13972778D01*
X52824404Y14014147D01*
X52903533Y14056443D01*
X52975577Y14078297D01*
X53073373Y14107963D01*
X53139558Y14114482D01*
X53205740Y14121000D01*
X53294260Y14121000D01*
X53360442Y14114482D01*
X53360442Y14114482D01*
G37*
G36*
X8360442Y14114482D02*
X8426627Y14107963D01*
X8524423Y14078297D01*
X8596467Y14056443D01*
X8675596Y14014147D01*
X8752991Y13972778D01*
X8788729Y13943448D01*
X8890186Y13860186D01*
X8973448Y13758729D01*
X9002778Y13722991D01*
X9002779Y13722989D01*
X9086443Y13566467D01*
X9086443Y13566466D01*
X9137963Y13396627D01*
X9155359Y13220000D01*
X9137963Y13043373D01*
X9128377Y13011772D01*
X9086443Y12873533D01*
X9077552Y12856900D01*
X9002778Y12717009D01*
X8973448Y12681271D01*
X8890186Y12579814D01*
X8800064Y12505854D01*
X8752991Y12467222D01*
X8752989Y12467221D01*
X8596467Y12383557D01*
X8539853Y12366384D01*
X8426627Y12332037D01*
X8360442Y12325518D01*
X8294260Y12319000D01*
X8205740Y12319000D01*
X8139558Y12325518D01*
X8073373Y12332037D01*
X7960147Y12366384D01*
X7903533Y12383557D01*
X7747011Y12467221D01*
X7747009Y12467222D01*
X7699936Y12505854D01*
X7609814Y12579814D01*
X7526552Y12681271D01*
X7497222Y12717009D01*
X7422448Y12856900D01*
X7413557Y12873533D01*
X7371623Y13011772D01*
X7362037Y13043373D01*
X7344641Y13220000D01*
X7362037Y13396627D01*
X7413557Y13566466D01*
X7413557Y13566467D01*
X7497221Y13722989D01*
X7497222Y13722991D01*
X7526552Y13758729D01*
X7609814Y13860186D01*
X7711271Y13943448D01*
X7747009Y13972778D01*
X7824404Y14014147D01*
X7903533Y14056443D01*
X7975577Y14078297D01*
X8073373Y14107963D01*
X8139558Y14114482D01*
X8205740Y14121000D01*
X8294260Y14121000D01*
X8360442Y14114482D01*
X8360442Y14114482D01*
G37*
G36*
X15293228Y14078297D02*
X15448100Y14014147D01*
X15587481Y13921015D01*
X15706015Y13802481D01*
X15799147Y13663100D01*
X15863297Y13508228D01*
X15896000Y13343816D01*
X15896000Y13176184D01*
X15863297Y13011772D01*
X15799147Y12856900D01*
X15706015Y12717519D01*
X15587481Y12598985D01*
X15448100Y12505853D01*
X15293228Y12441703D01*
X15128816Y12409000D01*
X14961184Y12409000D01*
X14796772Y12441703D01*
X14641900Y12505853D01*
X14502519Y12598985D01*
X14383985Y12717519D01*
X14290853Y12856900D01*
X14226703Y13011772D01*
X14194000Y13176184D01*
X14194000Y13343816D01*
X14226703Y13508228D01*
X14290853Y13663100D01*
X14383985Y13802481D01*
X14502519Y13921015D01*
X14641900Y14014147D01*
X14796772Y14078297D01*
X14961184Y14111000D01*
X15128816Y14111000D01*
X15293228Y14078297D01*
X15293228Y14078297D01*
G37*
G36*
X60293228Y14078297D02*
X60448100Y14014147D01*
X60587481Y13921015D01*
X60706015Y13802481D01*
X60799147Y13663100D01*
X60863297Y13508228D01*
X60896000Y13343816D01*
X60896000Y13176184D01*
X60863297Y13011772D01*
X60799147Y12856900D01*
X60706015Y12717519D01*
X60587481Y12598985D01*
X60448100Y12505853D01*
X60293228Y12441703D01*
X60128816Y12409000D01*
X59961184Y12409000D01*
X59796772Y12441703D01*
X59641900Y12505853D01*
X59502519Y12598985D01*
X59383985Y12717519D01*
X59290853Y12856900D01*
X59226703Y13011772D01*
X59194000Y13176184D01*
X59194000Y13343816D01*
X59226703Y13508228D01*
X59290853Y13663100D01*
X59383985Y13802481D01*
X59502519Y13921015D01*
X59641900Y14014147D01*
X59796772Y14078297D01*
X59961184Y14111000D01*
X60128816Y14111000D01*
X60293228Y14078297D01*
X60293228Y14078297D01*
G37*
G36*
X9151000Y14859000D02*
X7349000Y14859000D01*
X7349000Y16661000D01*
X9151000Y16661000D01*
X9151000Y14859000D01*
X9151000Y14859000D01*
G37*
G36*
X54151000Y14859000D02*
X52349000Y14859000D01*
X52349000Y16661000D01*
X54151000Y16661000D01*
X54151000Y14859000D01*
X54151000Y14859000D01*
G37*
G36*
X60896000Y14909000D02*
X59194000Y14909000D01*
X59194000Y16611000D01*
X60896000Y16611000D01*
X60896000Y14909000D01*
X60896000Y14909000D01*
G37*
G36*
X15896000Y14909000D02*
X14194000Y14909000D01*
X14194000Y16611000D01*
X15896000Y16611000D01*
X15896000Y14909000D01*
X15896000Y14909000D01*
G37*
G36*
X90537396Y17424454D02*
X90710466Y17352766D01*
X90866230Y17248688D01*
X90998688Y17116230D01*
X91102766Y16960466D01*
X91174454Y16787396D01*
X91211000Y16603667D01*
X91211000Y16416333D01*
X91174454Y16232604D01*
X91102766Y16059534D01*
X90998688Y15903770D01*
X90866230Y15771312D01*
X90710466Y15667234D01*
X90537396Y15595546D01*
X90353667Y15559000D01*
X90166333Y15559000D01*
X89982604Y15595546D01*
X89809534Y15667234D01*
X89653770Y15771312D01*
X89521312Y15903770D01*
X89417234Y16059534D01*
X89345546Y16232604D01*
X89309000Y16416333D01*
X89309000Y16603667D01*
X89345546Y16787396D01*
X89417234Y16960466D01*
X89521312Y17116230D01*
X89653770Y17248688D01*
X89809534Y17352766D01*
X89982604Y17424454D01*
X90166333Y17461000D01*
X90353667Y17461000D01*
X90537396Y17424454D01*
X90537396Y17424454D01*
G37*
G36*
X45537396Y17424454D02*
X45710466Y17352766D01*
X45866230Y17248688D01*
X45998688Y17116230D01*
X46102766Y16960466D01*
X46174454Y16787396D01*
X46211000Y16603667D01*
X46211000Y16416333D01*
X46174454Y16232604D01*
X46102766Y16059534D01*
X45998688Y15903770D01*
X45866230Y15771312D01*
X45710466Y15667234D01*
X45537396Y15595546D01*
X45353667Y15559000D01*
X45166333Y15559000D01*
X44982604Y15595546D01*
X44809534Y15667234D01*
X44653770Y15771312D01*
X44521312Y15903770D01*
X44417234Y16059534D01*
X44345546Y16232604D01*
X44309000Y16416333D01*
X44309000Y16603667D01*
X44345546Y16787396D01*
X44417234Y16960466D01*
X44521312Y17116230D01*
X44653770Y17248688D01*
X44809534Y17352766D01*
X44982604Y17424454D01*
X45166333Y17461000D01*
X45353667Y17461000D01*
X45537396Y17424454D01*
X45537396Y17424454D01*
G37*
G36*
X48751000Y15559000D02*
X46849000Y15559000D01*
X46849000Y17461000D01*
X48751000Y17461000D01*
X48751000Y15559000D01*
X48751000Y15559000D01*
G37*
G36*
X93751000Y15559000D02*
X91849000Y15559000D01*
X91849000Y17461000D01*
X93751000Y17461000D01*
X93751000Y15559000D01*
X93751000Y15559000D01*
G37*
G36*
X22382004Y18989456D02*
X22469059Y18972140D01*
X22605732Y18915528D01*
X22605733Y18915527D01*
X22728738Y18833338D01*
X22833338Y18728738D01*
X22833340Y18728735D01*
X22915528Y18605732D01*
X22972140Y18469059D01*
X23001000Y18323967D01*
X23001000Y18176033D01*
X22972140Y18030941D01*
X22915528Y17894268D01*
X22915527Y17894267D01*
X22833338Y17771262D01*
X22728738Y17666662D01*
X22728735Y17666660D01*
X22605732Y17584472D01*
X22469059Y17527860D01*
X22382004Y17510544D01*
X22323969Y17499000D01*
X22176031Y17499000D01*
X22117996Y17510544D01*
X22030941Y17527860D01*
X21894268Y17584472D01*
X21771265Y17666660D01*
X21771262Y17666662D01*
X21666662Y17771262D01*
X21584473Y17894267D01*
X21584472Y17894268D01*
X21527860Y18030941D01*
X21499000Y18176033D01*
X21499000Y18323967D01*
X21527860Y18469059D01*
X21584472Y18605732D01*
X21666660Y18728735D01*
X21666662Y18728738D01*
X21771262Y18833338D01*
X21894267Y18915527D01*
X21894268Y18915528D01*
X22030941Y18972140D01*
X22117996Y18989456D01*
X22176031Y19001000D01*
X22323969Y19001000D01*
X22382004Y18989456D01*
X22382004Y18989456D01*
G37*
G36*
X27882004Y18989456D02*
X27969059Y18972140D01*
X28105732Y18915528D01*
X28105733Y18915527D01*
X28228738Y18833338D01*
X28333338Y18728738D01*
X28333340Y18728735D01*
X28415528Y18605732D01*
X28472140Y18469059D01*
X28501000Y18323967D01*
X28501000Y18176033D01*
X28472140Y18030941D01*
X28415528Y17894268D01*
X28415527Y17894267D01*
X28333338Y17771262D01*
X28228738Y17666662D01*
X28228735Y17666660D01*
X28105732Y17584472D01*
X27969059Y17527860D01*
X27882004Y17510544D01*
X27823969Y17499000D01*
X27676031Y17499000D01*
X27617996Y17510544D01*
X27530941Y17527860D01*
X27394268Y17584472D01*
X27271265Y17666660D01*
X27271262Y17666662D01*
X27166662Y17771262D01*
X27084473Y17894267D01*
X27084472Y17894268D01*
X27027860Y18030941D01*
X26999000Y18176033D01*
X26999000Y18323967D01*
X27027860Y18469059D01*
X27084472Y18605732D01*
X27166660Y18728735D01*
X27166662Y18728738D01*
X27271262Y18833338D01*
X27394267Y18915527D01*
X27394268Y18915528D01*
X27530941Y18972140D01*
X27617996Y18989456D01*
X27676031Y19001000D01*
X27823969Y19001000D01*
X27882004Y18989456D01*
X27882004Y18989456D01*
G37*
G36*
X78632004Y18989456D02*
X78719059Y18972140D01*
X78855732Y18915528D01*
X78855733Y18915527D01*
X78978738Y18833338D01*
X79083338Y18728738D01*
X79083340Y18728735D01*
X79165528Y18605732D01*
X79222140Y18469059D01*
X79251000Y18323967D01*
X79251000Y18176033D01*
X79222140Y18030941D01*
X79165528Y17894268D01*
X79165527Y17894267D01*
X79083338Y17771262D01*
X78978738Y17666662D01*
X78978735Y17666660D01*
X78855732Y17584472D01*
X78719059Y17527860D01*
X78632004Y17510544D01*
X78573969Y17499000D01*
X78426031Y17499000D01*
X78367996Y17510544D01*
X78280941Y17527860D01*
X78144268Y17584472D01*
X78021265Y17666660D01*
X78021262Y17666662D01*
X77916662Y17771262D01*
X77834473Y17894267D01*
X77834472Y17894268D01*
X77777860Y18030941D01*
X77749000Y18176033D01*
X77749000Y18323967D01*
X77777860Y18469059D01*
X77834472Y18605732D01*
X77916660Y18728735D01*
X77916662Y18728738D01*
X78021262Y18833338D01*
X78144267Y18915527D01*
X78144268Y18915528D01*
X78280941Y18972140D01*
X78367996Y18989456D01*
X78426031Y19001000D01*
X78573969Y19001000D01*
X78632004Y18989456D01*
X78632004Y18989456D01*
G37*
G36*
X33632004Y18989456D02*
X33719059Y18972140D01*
X33855732Y18915528D01*
X33855733Y18915527D01*
X33978738Y18833338D01*
X34083338Y18728738D01*
X34083340Y18728735D01*
X34165528Y18605732D01*
X34222140Y18469059D01*
X34251000Y18323967D01*
X34251000Y18176033D01*
X34222140Y18030941D01*
X34165528Y17894268D01*
X34165527Y17894267D01*
X34083338Y17771262D01*
X33978738Y17666662D01*
X33978735Y17666660D01*
X33855732Y17584472D01*
X33719059Y17527860D01*
X33632004Y17510544D01*
X33573969Y17499000D01*
X33426031Y17499000D01*
X33367996Y17510544D01*
X33280941Y17527860D01*
X33144268Y17584472D01*
X33021265Y17666660D01*
X33021262Y17666662D01*
X32916662Y17771262D01*
X32834473Y17894267D01*
X32834472Y17894268D01*
X32777860Y18030941D01*
X32749000Y18176033D01*
X32749000Y18323967D01*
X32777860Y18469059D01*
X32834472Y18605732D01*
X32916660Y18728735D01*
X32916662Y18728738D01*
X33021262Y18833338D01*
X33144267Y18915527D01*
X33144268Y18915528D01*
X33280941Y18972140D01*
X33367996Y18989456D01*
X33426031Y19001000D01*
X33573969Y19001000D01*
X33632004Y18989456D01*
X33632004Y18989456D01*
G37*
G36*
X67382004Y18989456D02*
X67469059Y18972140D01*
X67605732Y18915528D01*
X67605733Y18915527D01*
X67728738Y18833338D01*
X67833338Y18728738D01*
X67833340Y18728735D01*
X67915528Y18605732D01*
X67972140Y18469059D01*
X68001000Y18323967D01*
X68001000Y18176033D01*
X67972140Y18030941D01*
X67915528Y17894268D01*
X67915527Y17894267D01*
X67833338Y17771262D01*
X67728738Y17666662D01*
X67728735Y17666660D01*
X67605732Y17584472D01*
X67469059Y17527860D01*
X67382004Y17510544D01*
X67323969Y17499000D01*
X67176031Y17499000D01*
X67117996Y17510544D01*
X67030941Y17527860D01*
X66894268Y17584472D01*
X66771265Y17666660D01*
X66771262Y17666662D01*
X66666662Y17771262D01*
X66584473Y17894267D01*
X66584472Y17894268D01*
X66527860Y18030941D01*
X66499000Y18176033D01*
X66499000Y18323967D01*
X66527860Y18469059D01*
X66584472Y18605732D01*
X66666660Y18728735D01*
X66666662Y18728738D01*
X66771262Y18833338D01*
X66894267Y18915527D01*
X66894268Y18915528D01*
X67030941Y18972140D01*
X67117996Y18989456D01*
X67176031Y19001000D01*
X67323969Y19001000D01*
X67382004Y18989456D01*
X67382004Y18989456D01*
G37*
G36*
X72882004Y18989456D02*
X72969059Y18972140D01*
X73105732Y18915528D01*
X73105733Y18915527D01*
X73228738Y18833338D01*
X73333338Y18728738D01*
X73333340Y18728735D01*
X73415528Y18605732D01*
X73472140Y18469059D01*
X73501000Y18323967D01*
X73501000Y18176033D01*
X73472140Y18030941D01*
X73415528Y17894268D01*
X73415527Y17894267D01*
X73333338Y17771262D01*
X73228738Y17666662D01*
X73228735Y17666660D01*
X73105732Y17584472D01*
X72969059Y17527860D01*
X72882004Y17510544D01*
X72823969Y17499000D01*
X72676031Y17499000D01*
X72617996Y17510544D01*
X72530941Y17527860D01*
X72394268Y17584472D01*
X72271265Y17666660D01*
X72271262Y17666662D01*
X72166662Y17771262D01*
X72084473Y17894267D01*
X72084472Y17894268D01*
X72027860Y18030941D01*
X71999000Y18176033D01*
X71999000Y18323967D01*
X72027860Y18469059D01*
X72084472Y18605732D01*
X72166660Y18728735D01*
X72166662Y18728738D01*
X72271262Y18833338D01*
X72394267Y18915527D01*
X72394268Y18915528D01*
X72530941Y18972140D01*
X72617996Y18989456D01*
X72676031Y19001000D01*
X72823969Y19001000D01*
X72882004Y18989456D01*
X72882004Y18989456D01*
G37*
G36*
X12283000Y22782000D02*
X10481000Y22782000D01*
X10481000Y24584000D01*
X12283000Y24584000D01*
X12283000Y22782000D01*
X12283000Y22782000D01*
G37*
G36*
X57283000Y22782000D02*
X55481000Y22782000D01*
X55481000Y24584000D01*
X57283000Y24584000D01*
X57283000Y22782000D01*
X57283000Y22782000D01*
G37*
G36*
X93751000Y22859000D02*
X91849000Y22859000D01*
X91849000Y24761000D01*
X93751000Y24761000D01*
X93751000Y22859000D01*
X93751000Y22859000D01*
G37*
G36*
X90537396Y24724454D02*
X90710466Y24652766D01*
X90866230Y24548688D01*
X90998688Y24416230D01*
X91102766Y24260466D01*
X91174454Y24087396D01*
X91211000Y23903667D01*
X91211000Y23716333D01*
X91174454Y23532604D01*
X91102766Y23359534D01*
X90998688Y23203770D01*
X90866230Y23071312D01*
X90710466Y22967234D01*
X90537396Y22895546D01*
X90353667Y22859000D01*
X90166333Y22859000D01*
X89982604Y22895546D01*
X89809534Y22967234D01*
X89653770Y23071312D01*
X89521312Y23203770D01*
X89417234Y23359534D01*
X89345546Y23532604D01*
X89309000Y23716333D01*
X89309000Y23903667D01*
X89345546Y24087396D01*
X89417234Y24260466D01*
X89521312Y24416230D01*
X89653770Y24548688D01*
X89809534Y24652766D01*
X89982604Y24724454D01*
X90166333Y24761000D01*
X90353667Y24761000D01*
X90537396Y24724454D01*
X90537396Y24724454D01*
G37*
G36*
X45537396Y24724454D02*
X45710466Y24652766D01*
X45866230Y24548688D01*
X45998688Y24416230D01*
X46102766Y24260466D01*
X46174454Y24087396D01*
X46211000Y23903667D01*
X46211000Y23716333D01*
X46174454Y23532604D01*
X46102766Y23359534D01*
X45998688Y23203770D01*
X45866230Y23071312D01*
X45710466Y22967234D01*
X45537396Y22895546D01*
X45353667Y22859000D01*
X45166333Y22859000D01*
X44982604Y22895546D01*
X44809534Y22967234D01*
X44653770Y23071312D01*
X44521312Y23203770D01*
X44417234Y23359534D01*
X44345546Y23532604D01*
X44309000Y23716333D01*
X44309000Y23903667D01*
X44345546Y24087396D01*
X44417234Y24260466D01*
X44521312Y24416230D01*
X44653770Y24548688D01*
X44809534Y24652766D01*
X44982604Y24724454D01*
X45166333Y24761000D01*
X45353667Y24761000D01*
X45537396Y24724454D01*
X45537396Y24724454D01*
G37*
G36*
X48751000Y22859000D02*
X46849000Y22859000D01*
X46849000Y24761000D01*
X48751000Y24761000D01*
X48751000Y22859000D01*
X48751000Y22859000D01*
G37*
G36*
X19351000Y23649000D02*
X17649000Y23649000D01*
X17649000Y25351000D01*
X19351000Y25351000D01*
X19351000Y23649000D01*
X19351000Y23649000D01*
G37*
G36*
X66248228Y25318297D02*
X66403100Y25254147D01*
X66542481Y25161015D01*
X66661015Y25042481D01*
X66754147Y24903100D01*
X66818297Y24748228D01*
X66851000Y24583816D01*
X66851000Y24416184D01*
X66818297Y24251772D01*
X66754147Y24096900D01*
X66661015Y23957519D01*
X66542481Y23838985D01*
X66403100Y23745853D01*
X66248228Y23681703D01*
X66083816Y23649000D01*
X65916184Y23649000D01*
X65751772Y23681703D01*
X65596900Y23745853D01*
X65457519Y23838985D01*
X65338985Y23957519D01*
X65245853Y24096900D01*
X65181703Y24251772D01*
X65149000Y24416184D01*
X65149000Y24583816D01*
X65181703Y24748228D01*
X65245853Y24903100D01*
X65338985Y25042481D01*
X65457519Y25161015D01*
X65596900Y25254147D01*
X65751772Y25318297D01*
X65916184Y25351000D01*
X66083816Y25351000D01*
X66248228Y25318297D01*
X66248228Y25318297D01*
G37*
G36*
X64351000Y23649000D02*
X62649000Y23649000D01*
X62649000Y25351000D01*
X64351000Y25351000D01*
X64351000Y23649000D01*
X64351000Y23649000D01*
G37*
G36*
X21248228Y25318297D02*
X21403100Y25254147D01*
X21542481Y25161015D01*
X21661015Y25042481D01*
X21754147Y24903100D01*
X21818297Y24748228D01*
X21851000Y24583816D01*
X21851000Y24416184D01*
X21818297Y24251772D01*
X21754147Y24096900D01*
X21661015Y23957519D01*
X21542481Y23838985D01*
X21403100Y23745853D01*
X21248228Y23681703D01*
X21083816Y23649000D01*
X20916184Y23649000D01*
X20751772Y23681703D01*
X20596900Y23745853D01*
X20457519Y23838985D01*
X20338985Y23957519D01*
X20245853Y24096900D01*
X20181703Y24251772D01*
X20149000Y24416184D01*
X20149000Y24583816D01*
X20181703Y24748228D01*
X20245853Y24903100D01*
X20338985Y25042481D01*
X20457519Y25161015D01*
X20596900Y25254147D01*
X20751772Y25318297D01*
X20916184Y25351000D01*
X21083816Y25351000D01*
X21248228Y25318297D01*
X21248228Y25318297D01*
G37*
G36*
X73518643Y25350219D02*
X73664415Y25289838D01*
X73795611Y25202176D01*
X73907176Y25090611D01*
X73994838Y24959415D01*
X74055219Y24813643D01*
X74086000Y24658893D01*
X74086000Y24501107D01*
X74055219Y24346357D01*
X73994838Y24200585D01*
X73907176Y24069389D01*
X73795611Y23957824D01*
X73664415Y23870162D01*
X73518643Y23809781D01*
X73363893Y23779000D01*
X73206107Y23779000D01*
X73051357Y23809781D01*
X72905585Y23870162D01*
X72774389Y23957824D01*
X72662824Y24069389D01*
X72575162Y24200585D01*
X72514781Y24346357D01*
X72484000Y24501107D01*
X72484000Y24658893D01*
X72514781Y24813643D01*
X72575162Y24959415D01*
X72662824Y25090611D01*
X72774389Y25202176D01*
X72905585Y25289838D01*
X73051357Y25350219D01*
X73206107Y25381000D01*
X73363893Y25381000D01*
X73518643Y25350219D01*
X73518643Y25350219D01*
G37*
G36*
X85801000Y23779000D02*
X84199000Y23779000D01*
X84199000Y25381000D01*
X85801000Y25381000D01*
X85801000Y23779000D01*
X85801000Y23779000D01*
G37*
G36*
X82693643Y25350219D02*
X82839415Y25289838D01*
X82970611Y25202176D01*
X83082176Y25090611D01*
X83169838Y24959415D01*
X83230219Y24813643D01*
X83261000Y24658893D01*
X83261000Y24501107D01*
X83230219Y24346357D01*
X83169838Y24200585D01*
X83082176Y24069389D01*
X82970611Y23957824D01*
X82839415Y23870162D01*
X82693643Y23809781D01*
X82538893Y23779000D01*
X82381107Y23779000D01*
X82226357Y23809781D01*
X82080585Y23870162D01*
X81949389Y23957824D01*
X81837824Y24069389D01*
X81750162Y24200585D01*
X81689781Y24346357D01*
X81659000Y24501107D01*
X81659000Y24658893D01*
X81689781Y24813643D01*
X81750162Y24959415D01*
X81837824Y25090611D01*
X81949389Y25202176D01*
X82080585Y25289838D01*
X82226357Y25350219D01*
X82381107Y25381000D01*
X82538893Y25381000D01*
X82693643Y25350219D01*
X82693643Y25350219D01*
G37*
G36*
X80153643Y25350219D02*
X80299415Y25289838D01*
X80430611Y25202176D01*
X80542176Y25090611D01*
X80629838Y24959415D01*
X80690219Y24813643D01*
X80721000Y24658893D01*
X80721000Y24501107D01*
X80690219Y24346357D01*
X80629838Y24200585D01*
X80542176Y24069389D01*
X80430611Y23957824D01*
X80299415Y23870162D01*
X80153643Y23809781D01*
X79998893Y23779000D01*
X79841107Y23779000D01*
X79686357Y23809781D01*
X79540585Y23870162D01*
X79409389Y23957824D01*
X79297824Y24069389D01*
X79210162Y24200585D01*
X79149781Y24346357D01*
X79119000Y24501107D01*
X79119000Y24658893D01*
X79149781Y24813643D01*
X79210162Y24959415D01*
X79297824Y25090611D01*
X79409389Y25202176D01*
X79540585Y25289838D01*
X79686357Y25350219D01*
X79841107Y25381000D01*
X79998893Y25381000D01*
X80153643Y25350219D01*
X80153643Y25350219D01*
G37*
G36*
X35153643Y25350219D02*
X35299415Y25289838D01*
X35430611Y25202176D01*
X35542176Y25090611D01*
X35629838Y24959415D01*
X35690219Y24813643D01*
X35721000Y24658893D01*
X35721000Y24501107D01*
X35690219Y24346357D01*
X35629838Y24200585D01*
X35542176Y24069389D01*
X35430611Y23957824D01*
X35299415Y23870162D01*
X35153643Y23809781D01*
X34998893Y23779000D01*
X34841107Y23779000D01*
X34686357Y23809781D01*
X34540585Y23870162D01*
X34409389Y23957824D01*
X34297824Y24069389D01*
X34210162Y24200585D01*
X34149781Y24346357D01*
X34119000Y24501107D01*
X34119000Y24658893D01*
X34149781Y24813643D01*
X34210162Y24959415D01*
X34297824Y25090611D01*
X34409389Y25202176D01*
X34540585Y25289838D01*
X34686357Y25350219D01*
X34841107Y25381000D01*
X34998893Y25381000D01*
X35153643Y25350219D01*
X35153643Y25350219D01*
G37*
G36*
X70978643Y25350219D02*
X71124415Y25289838D01*
X71255611Y25202176D01*
X71367176Y25090611D01*
X71454838Y24959415D01*
X71515219Y24813643D01*
X71546000Y24658893D01*
X71546000Y24501107D01*
X71515219Y24346357D01*
X71454838Y24200585D01*
X71367176Y24069389D01*
X71255611Y23957824D01*
X71124415Y23870162D01*
X70978643Y23809781D01*
X70823893Y23779000D01*
X70666107Y23779000D01*
X70511357Y23809781D01*
X70365585Y23870162D01*
X70234389Y23957824D01*
X70122824Y24069389D01*
X70035162Y24200585D01*
X69974781Y24346357D01*
X69944000Y24501107D01*
X69944000Y24658893D01*
X69974781Y24813643D01*
X70035162Y24959415D01*
X70122824Y25090611D01*
X70234389Y25202176D01*
X70365585Y25289838D01*
X70511357Y25350219D01*
X70666107Y25381000D01*
X70823893Y25381000D01*
X70978643Y25350219D01*
X70978643Y25350219D01*
G37*
G36*
X37693643Y25350219D02*
X37839415Y25289838D01*
X37970611Y25202176D01*
X38082176Y25090611D01*
X38169838Y24959415D01*
X38230219Y24813643D01*
X38261000Y24658893D01*
X38261000Y24501107D01*
X38230219Y24346357D01*
X38169838Y24200585D01*
X38082176Y24069389D01*
X37970611Y23957824D01*
X37839415Y23870162D01*
X37693643Y23809781D01*
X37538893Y23779000D01*
X37381107Y23779000D01*
X37226357Y23809781D01*
X37080585Y23870162D01*
X36949389Y23957824D01*
X36837824Y24069389D01*
X36750162Y24200585D01*
X36689781Y24346357D01*
X36659000Y24501107D01*
X36659000Y24658893D01*
X36689781Y24813643D01*
X36750162Y24959415D01*
X36837824Y25090611D01*
X36949389Y25202176D01*
X37080585Y25289838D01*
X37226357Y25350219D01*
X37381107Y25381000D01*
X37538893Y25381000D01*
X37693643Y25350219D01*
X37693643Y25350219D01*
G37*
G36*
X40801000Y23779000D02*
X39199000Y23779000D01*
X39199000Y25381000D01*
X40801000Y25381000D01*
X40801000Y23779000D01*
X40801000Y23779000D01*
G37*
G36*
X25978643Y25350219D02*
X26124415Y25289838D01*
X26255611Y25202176D01*
X26367176Y25090611D01*
X26454838Y24959415D01*
X26515219Y24813643D01*
X26546000Y24658893D01*
X26546000Y24501107D01*
X26515219Y24346357D01*
X26454838Y24200585D01*
X26367176Y24069389D01*
X26255611Y23957824D01*
X26124415Y23870162D01*
X25978643Y23809781D01*
X25823893Y23779000D01*
X25666107Y23779000D01*
X25511357Y23809781D01*
X25365585Y23870162D01*
X25234389Y23957824D01*
X25122824Y24069389D01*
X25035162Y24200585D01*
X24974781Y24346357D01*
X24944000Y24501107D01*
X24944000Y24658893D01*
X24974781Y24813643D01*
X25035162Y24959415D01*
X25122824Y25090611D01*
X25234389Y25202176D01*
X25365585Y25289838D01*
X25511357Y25350219D01*
X25666107Y25381000D01*
X25823893Y25381000D01*
X25978643Y25350219D01*
X25978643Y25350219D01*
G37*
G36*
X31626000Y23779000D02*
X30024000Y23779000D01*
X30024000Y25381000D01*
X31626000Y25381000D01*
X31626000Y23779000D01*
X31626000Y23779000D01*
G37*
G36*
X28518643Y25350219D02*
X28664415Y25289838D01*
X28795611Y25202176D01*
X28907176Y25090611D01*
X28994838Y24959415D01*
X29055219Y24813643D01*
X29086000Y24658893D01*
X29086000Y24501107D01*
X29055219Y24346357D01*
X28994838Y24200585D01*
X28907176Y24069389D01*
X28795611Y23957824D01*
X28664415Y23870162D01*
X28518643Y23809781D01*
X28363893Y23779000D01*
X28206107Y23779000D01*
X28051357Y23809781D01*
X27905585Y23870162D01*
X27774389Y23957824D01*
X27662824Y24069389D01*
X27575162Y24200585D01*
X27514781Y24346357D01*
X27484000Y24501107D01*
X27484000Y24658893D01*
X27514781Y24813643D01*
X27575162Y24959415D01*
X27662824Y25090611D01*
X27774389Y25202176D01*
X27905585Y25289838D01*
X28051357Y25350219D01*
X28206107Y25381000D01*
X28363893Y25381000D01*
X28518643Y25350219D01*
X28518643Y25350219D01*
G37*
G36*
X76626000Y23779000D02*
X75024000Y23779000D01*
X75024000Y25381000D01*
X76626000Y25381000D01*
X76626000Y23779000D01*
X76626000Y23779000D01*
G37*
G36*
X56492442Y27117482D02*
X56558627Y27110963D01*
X56671853Y27076616D01*
X56728467Y27059443D01*
X56867087Y26985348D01*
X56884991Y26975778D01*
X56920729Y26946448D01*
X57022186Y26863186D01*
X57105448Y26761729D01*
X57134778Y26725991D01*
X57134779Y26725989D01*
X57218443Y26569467D01*
X57218443Y26569466D01*
X57269963Y26399627D01*
X57287359Y26223000D01*
X57269963Y26046373D01*
X57235616Y25933147D01*
X57218443Y25876533D01*
X57144348Y25737913D01*
X57134778Y25720009D01*
X57105448Y25684271D01*
X57022186Y25582814D01*
X56920729Y25499552D01*
X56884991Y25470222D01*
X56884989Y25470221D01*
X56728467Y25386557D01*
X56671853Y25369384D01*
X56558627Y25335037D01*
X56492442Y25328518D01*
X56426260Y25322000D01*
X56337740Y25322000D01*
X56271558Y25328518D01*
X56205373Y25335037D01*
X56092147Y25369384D01*
X56035533Y25386557D01*
X55879011Y25470221D01*
X55879009Y25470222D01*
X55843271Y25499552D01*
X55741814Y25582814D01*
X55658552Y25684271D01*
X55629222Y25720009D01*
X55619652Y25737913D01*
X55545557Y25876533D01*
X55528384Y25933147D01*
X55494037Y26046373D01*
X55476641Y26223000D01*
X55494037Y26399627D01*
X55545557Y26569466D01*
X55545557Y26569467D01*
X55629221Y26725989D01*
X55629222Y26725991D01*
X55658552Y26761729D01*
X55741814Y26863186D01*
X55843271Y26946448D01*
X55879009Y26975778D01*
X55896913Y26985348D01*
X56035533Y27059443D01*
X56092147Y27076616D01*
X56205373Y27110963D01*
X56271558Y27117482D01*
X56337740Y27124000D01*
X56426260Y27124000D01*
X56492442Y27117482D01*
X56492442Y27117482D01*
G37*
G36*
X11492442Y27117482D02*
X11558627Y27110963D01*
X11671853Y27076616D01*
X11728467Y27059443D01*
X11867087Y26985348D01*
X11884991Y26975778D01*
X11920729Y26946448D01*
X12022186Y26863186D01*
X12105448Y26761729D01*
X12134778Y26725991D01*
X12134779Y26725989D01*
X12218443Y26569467D01*
X12218443Y26569466D01*
X12269963Y26399627D01*
X12287359Y26223000D01*
X12269963Y26046373D01*
X12235616Y25933147D01*
X12218443Y25876533D01*
X12144348Y25737913D01*
X12134778Y25720009D01*
X12105448Y25684271D01*
X12022186Y25582814D01*
X11920729Y25499552D01*
X11884991Y25470222D01*
X11884989Y25470221D01*
X11728467Y25386557D01*
X11671853Y25369384D01*
X11558627Y25335037D01*
X11492442Y25328518D01*
X11426260Y25322000D01*
X11337740Y25322000D01*
X11271558Y25328518D01*
X11205373Y25335037D01*
X11092147Y25369384D01*
X11035533Y25386557D01*
X10879011Y25470221D01*
X10879009Y25470222D01*
X10843271Y25499552D01*
X10741814Y25582814D01*
X10658552Y25684271D01*
X10629222Y25720009D01*
X10619652Y25737913D01*
X10545557Y25876533D01*
X10528384Y25933147D01*
X10494037Y26046373D01*
X10476641Y26223000D01*
X10494037Y26399627D01*
X10545557Y26569466D01*
X10545557Y26569467D01*
X10629221Y26725989D01*
X10629222Y26725991D01*
X10658552Y26761729D01*
X10741814Y26863186D01*
X10843271Y26946448D01*
X10879009Y26975778D01*
X10896913Y26985348D01*
X11035533Y27059443D01*
X11092147Y27076616D01*
X11205373Y27110963D01*
X11271558Y27117482D01*
X11337740Y27124000D01*
X11426260Y27124000D01*
X11492442Y27117482D01*
X11492442Y27117482D01*
G37*
G36*
X48751000Y29209000D02*
X46849000Y29209000D01*
X46849000Y31111000D01*
X48751000Y31111000D01*
X48751000Y29209000D01*
X48751000Y29209000D01*
G37*
G36*
X45537396Y31074454D02*
X45710466Y31002766D01*
X45866230Y30898688D01*
X45998688Y30766230D01*
X46102766Y30610466D01*
X46174454Y30437396D01*
X46211000Y30253667D01*
X46211000Y30066333D01*
X46174454Y29882604D01*
X46102766Y29709534D01*
X45998688Y29553770D01*
X45866230Y29421312D01*
X45710466Y29317234D01*
X45537396Y29245546D01*
X45353667Y29209000D01*
X45166333Y29209000D01*
X44982604Y29245546D01*
X44809534Y29317234D01*
X44653770Y29421312D01*
X44521312Y29553770D01*
X44417234Y29709534D01*
X44345546Y29882604D01*
X44309000Y30066333D01*
X44309000Y30253667D01*
X44345546Y30437396D01*
X44417234Y30610466D01*
X44521312Y30766230D01*
X44653770Y30898688D01*
X44809534Y31002766D01*
X44982604Y31074454D01*
X45166333Y31111000D01*
X45353667Y31111000D01*
X45537396Y31074454D01*
X45537396Y31074454D01*
G37*
G36*
X90537396Y31074454D02*
X90710466Y31002766D01*
X90866230Y30898688D01*
X90998688Y30766230D01*
X91102766Y30610466D01*
X91174454Y30437396D01*
X91211000Y30253667D01*
X91211000Y30066333D01*
X91174454Y29882604D01*
X91102766Y29709534D01*
X90998688Y29553770D01*
X90866230Y29421312D01*
X90710466Y29317234D01*
X90537396Y29245546D01*
X90353667Y29209000D01*
X90166333Y29209000D01*
X89982604Y29245546D01*
X89809534Y29317234D01*
X89653770Y29421312D01*
X89521312Y29553770D01*
X89417234Y29709534D01*
X89345546Y29882604D01*
X89309000Y30066333D01*
X89309000Y30253667D01*
X89345546Y30437396D01*
X89417234Y30610466D01*
X89521312Y30766230D01*
X89653770Y30898688D01*
X89809534Y31002766D01*
X89982604Y31074454D01*
X90166333Y31111000D01*
X90353667Y31111000D01*
X90537396Y31074454D01*
X90537396Y31074454D01*
G37*
G36*
X93751000Y29209000D02*
X91849000Y29209000D01*
X91849000Y31111000D01*
X93751000Y31111000D01*
X93751000Y29209000D01*
X93751000Y29209000D01*
G37*
G36*
X78573665Y31377378D02*
X78647222Y31370133D01*
X78788786Y31327190D01*
X78919252Y31257454D01*
X79033606Y31163606D01*
X79127454Y31049252D01*
X79197190Y30918786D01*
X79240133Y30777222D01*
X79254633Y30630000D01*
X79240133Y30482778D01*
X79197190Y30341214D01*
X79127454Y30210748D01*
X79033606Y30096394D01*
X78919252Y30002546D01*
X78788786Y29932810D01*
X78647222Y29889867D01*
X78573665Y29882622D01*
X78536888Y29879000D01*
X78463112Y29879000D01*
X78426335Y29882622D01*
X78352778Y29889867D01*
X78211214Y29932810D01*
X78080748Y30002546D01*
X77966394Y30096394D01*
X77872546Y30210748D01*
X77802810Y30341214D01*
X77759867Y30482778D01*
X77745367Y30630000D01*
X77759867Y30777222D01*
X77802810Y30918786D01*
X77872546Y31049252D01*
X77966394Y31163606D01*
X78080748Y31257454D01*
X78211214Y31327190D01*
X78352778Y31370133D01*
X78426335Y31377378D01*
X78463112Y31381000D01*
X78536888Y31381000D01*
X78573665Y31377378D01*
X78573665Y31377378D01*
G37*
G36*
X27823665Y31377378D02*
X27897222Y31370133D01*
X28038786Y31327190D01*
X28169252Y31257454D01*
X28283606Y31163606D01*
X28377454Y31049252D01*
X28447190Y30918786D01*
X28490133Y30777222D01*
X28504633Y30630000D01*
X28490133Y30482778D01*
X28447190Y30341214D01*
X28377454Y30210748D01*
X28283606Y30096394D01*
X28169252Y30002546D01*
X28038786Y29932810D01*
X27897222Y29889867D01*
X27823665Y29882622D01*
X27786888Y29879000D01*
X27713112Y29879000D01*
X27676335Y29882622D01*
X27602778Y29889867D01*
X27461214Y29932810D01*
X27330748Y30002546D01*
X27216394Y30096394D01*
X27122546Y30210748D01*
X27052810Y30341214D01*
X27009867Y30482778D01*
X26995367Y30630000D01*
X27009867Y30777222D01*
X27052810Y30918786D01*
X27122546Y31049252D01*
X27216394Y31163606D01*
X27330748Y31257454D01*
X27461214Y31327190D01*
X27602778Y31370133D01*
X27676335Y31377378D01*
X27713112Y31381000D01*
X27786888Y31381000D01*
X27823665Y31377378D01*
X27823665Y31377378D01*
G37*
G36*
X72823665Y31377378D02*
X72897222Y31370133D01*
X73038786Y31327190D01*
X73169252Y31257454D01*
X73283606Y31163606D01*
X73377454Y31049252D01*
X73447190Y30918786D01*
X73490133Y30777222D01*
X73504633Y30630000D01*
X73490133Y30482778D01*
X73447190Y30341214D01*
X73377454Y30210748D01*
X73283606Y30096394D01*
X73169252Y30002546D01*
X73038786Y29932810D01*
X72897222Y29889867D01*
X72823665Y29882622D01*
X72786888Y29879000D01*
X72713112Y29879000D01*
X72676335Y29882622D01*
X72602778Y29889867D01*
X72461214Y29932810D01*
X72330748Y30002546D01*
X72216394Y30096394D01*
X72122546Y30210748D01*
X72052810Y30341214D01*
X72009867Y30482778D01*
X71995367Y30630000D01*
X72009867Y30777222D01*
X72052810Y30918786D01*
X72122546Y31049252D01*
X72216394Y31163606D01*
X72330748Y31257454D01*
X72461214Y31327190D01*
X72602778Y31370133D01*
X72676335Y31377378D01*
X72713112Y31381000D01*
X72786888Y31381000D01*
X72823665Y31377378D01*
X72823665Y31377378D01*
G37*
G36*
X67323665Y31377378D02*
X67397222Y31370133D01*
X67538786Y31327190D01*
X67669252Y31257454D01*
X67783606Y31163606D01*
X67877454Y31049252D01*
X67947190Y30918786D01*
X67990133Y30777222D01*
X68004633Y30630000D01*
X67990133Y30482778D01*
X67947190Y30341214D01*
X67877454Y30210748D01*
X67783606Y30096394D01*
X67669252Y30002546D01*
X67538786Y29932810D01*
X67397222Y29889867D01*
X67323665Y29882622D01*
X67286888Y29879000D01*
X67213112Y29879000D01*
X67176335Y29882622D01*
X67102778Y29889867D01*
X66961214Y29932810D01*
X66830748Y30002546D01*
X66716394Y30096394D01*
X66622546Y30210748D01*
X66552810Y30341214D01*
X66509867Y30482778D01*
X66495367Y30630000D01*
X66509867Y30777222D01*
X66552810Y30918786D01*
X66622546Y31049252D01*
X66716394Y31163606D01*
X66830748Y31257454D01*
X66961214Y31327190D01*
X67102778Y31370133D01*
X67176335Y31377378D01*
X67213112Y31381000D01*
X67286888Y31381000D01*
X67323665Y31377378D01*
X67323665Y31377378D01*
G37*
G36*
X33573665Y31377378D02*
X33647222Y31370133D01*
X33788786Y31327190D01*
X33919252Y31257454D01*
X34033606Y31163606D01*
X34127454Y31049252D01*
X34197190Y30918786D01*
X34240133Y30777222D01*
X34254633Y30630000D01*
X34240133Y30482778D01*
X34197190Y30341214D01*
X34127454Y30210748D01*
X34033606Y30096394D01*
X33919252Y30002546D01*
X33788786Y29932810D01*
X33647222Y29889867D01*
X33573665Y29882622D01*
X33536888Y29879000D01*
X33463112Y29879000D01*
X33426335Y29882622D01*
X33352778Y29889867D01*
X33211214Y29932810D01*
X33080748Y30002546D01*
X32966394Y30096394D01*
X32872546Y30210748D01*
X32802810Y30341214D01*
X32759867Y30482778D01*
X32745367Y30630000D01*
X32759867Y30777222D01*
X32802810Y30918786D01*
X32872546Y31049252D01*
X32966394Y31163606D01*
X33080748Y31257454D01*
X33211214Y31327190D01*
X33352778Y31370133D01*
X33426335Y31377378D01*
X33463112Y31381000D01*
X33536888Y31381000D01*
X33573665Y31377378D01*
X33573665Y31377378D01*
G37*
G36*
X22323665Y31377378D02*
X22397222Y31370133D01*
X22538786Y31327190D01*
X22669252Y31257454D01*
X22783606Y31163606D01*
X22877454Y31049252D01*
X22947190Y30918786D01*
X22990133Y30777222D01*
X23004633Y30630000D01*
X22990133Y30482778D01*
X22947190Y30341214D01*
X22877454Y30210748D01*
X22783606Y30096394D01*
X22669252Y30002546D01*
X22538786Y29932810D01*
X22397222Y29889867D01*
X22323665Y29882622D01*
X22286888Y29879000D01*
X22213112Y29879000D01*
X22176335Y29882622D01*
X22102778Y29889867D01*
X21961214Y29932810D01*
X21830748Y30002546D01*
X21716394Y30096394D01*
X21622546Y30210748D01*
X21552810Y30341214D01*
X21509867Y30482778D01*
X21495367Y30630000D01*
X21509867Y30777222D01*
X21552810Y30918786D01*
X21622546Y31049252D01*
X21716394Y31163606D01*
X21830748Y31257454D01*
X21961214Y31327190D01*
X22102778Y31370133D01*
X22176335Y31377378D01*
X22213112Y31381000D01*
X22286888Y31381000D01*
X22323665Y31377378D01*
X22323665Y31377378D01*
G37*
G36*
X8360443Y34114481D02*
X8426627Y34107963D01*
X8524423Y34078297D01*
X8596467Y34056443D01*
X8675596Y34014147D01*
X8752991Y33972778D01*
X8788729Y33943448D01*
X8890186Y33860186D01*
X8973448Y33758729D01*
X9002778Y33722991D01*
X9002779Y33722989D01*
X9086443Y33566467D01*
X9086443Y33566466D01*
X9137963Y33396627D01*
X9155359Y33220000D01*
X9137963Y33043373D01*
X9128377Y33011772D01*
X9086443Y32873533D01*
X9077552Y32856900D01*
X9002778Y32717009D01*
X8973448Y32681271D01*
X8890186Y32579814D01*
X8800064Y32505854D01*
X8752991Y32467222D01*
X8752989Y32467221D01*
X8596467Y32383557D01*
X8539853Y32366384D01*
X8426627Y32332037D01*
X8360442Y32325518D01*
X8294260Y32319000D01*
X8205740Y32319000D01*
X8139558Y32325518D01*
X8073373Y32332037D01*
X7960147Y32366384D01*
X7903533Y32383557D01*
X7747011Y32467221D01*
X7747009Y32467222D01*
X7699936Y32505854D01*
X7609814Y32579814D01*
X7526552Y32681271D01*
X7497222Y32717009D01*
X7422448Y32856900D01*
X7413557Y32873533D01*
X7371623Y33011772D01*
X7362037Y33043373D01*
X7344641Y33220000D01*
X7362037Y33396627D01*
X7413557Y33566466D01*
X7413557Y33566467D01*
X7497221Y33722989D01*
X7497222Y33722991D01*
X7526552Y33758729D01*
X7609814Y33860186D01*
X7711271Y33943448D01*
X7747009Y33972778D01*
X7824404Y34014147D01*
X7903533Y34056443D01*
X7975577Y34078297D01*
X8073373Y34107963D01*
X8139557Y34114481D01*
X8205740Y34121000D01*
X8294260Y34121000D01*
X8360443Y34114481D01*
X8360443Y34114481D01*
G37*
G36*
X53360443Y34114481D02*
X53426627Y34107963D01*
X53524423Y34078297D01*
X53596467Y34056443D01*
X53675596Y34014147D01*
X53752991Y33972778D01*
X53788729Y33943448D01*
X53890186Y33860186D01*
X53973448Y33758729D01*
X54002778Y33722991D01*
X54002779Y33722989D01*
X54086443Y33566467D01*
X54086443Y33566466D01*
X54137963Y33396627D01*
X54155359Y33220000D01*
X54137963Y33043373D01*
X54128377Y33011772D01*
X54086443Y32873533D01*
X54077552Y32856900D01*
X54002778Y32717009D01*
X53973448Y32681271D01*
X53890186Y32579814D01*
X53800064Y32505854D01*
X53752991Y32467222D01*
X53752989Y32467221D01*
X53596467Y32383557D01*
X53539853Y32366384D01*
X53426627Y32332037D01*
X53360442Y32325518D01*
X53294260Y32319000D01*
X53205740Y32319000D01*
X53139558Y32325518D01*
X53073373Y32332037D01*
X52960147Y32366384D01*
X52903533Y32383557D01*
X52747011Y32467221D01*
X52747009Y32467222D01*
X52699936Y32505854D01*
X52609814Y32579814D01*
X52526552Y32681271D01*
X52497222Y32717009D01*
X52422448Y32856900D01*
X52413557Y32873533D01*
X52371623Y33011772D01*
X52362037Y33043373D01*
X52344641Y33220000D01*
X52362037Y33396627D01*
X52413557Y33566466D01*
X52413557Y33566467D01*
X52497221Y33722989D01*
X52497222Y33722991D01*
X52526552Y33758729D01*
X52609814Y33860186D01*
X52711271Y33943448D01*
X52747009Y33972778D01*
X52824404Y34014147D01*
X52903533Y34056443D01*
X52975577Y34078297D01*
X53073373Y34107963D01*
X53139557Y34114481D01*
X53205740Y34121000D01*
X53294260Y34121000D01*
X53360443Y34114481D01*
X53360443Y34114481D01*
G37*
G36*
X15293228Y34078297D02*
X15448100Y34014147D01*
X15587481Y33921015D01*
X15706015Y33802481D01*
X15799147Y33663100D01*
X15863297Y33508228D01*
X15896000Y33343816D01*
X15896000Y33176184D01*
X15863297Y33011772D01*
X15799147Y32856900D01*
X15706015Y32717519D01*
X15587481Y32598985D01*
X15448100Y32505853D01*
X15293228Y32441703D01*
X15128816Y32409000D01*
X14961184Y32409000D01*
X14796772Y32441703D01*
X14641900Y32505853D01*
X14502519Y32598985D01*
X14383985Y32717519D01*
X14290853Y32856900D01*
X14226703Y33011772D01*
X14194000Y33176184D01*
X14194000Y33343816D01*
X14226703Y33508228D01*
X14290853Y33663100D01*
X14383985Y33802481D01*
X14502519Y33921015D01*
X14641900Y34014147D01*
X14796772Y34078297D01*
X14961184Y34111000D01*
X15128816Y34111000D01*
X15293228Y34078297D01*
X15293228Y34078297D01*
G37*
G36*
X60293228Y34078297D02*
X60448100Y34014147D01*
X60587481Y33921015D01*
X60706015Y33802481D01*
X60799147Y33663100D01*
X60863297Y33508228D01*
X60896000Y33343816D01*
X60896000Y33176184D01*
X60863297Y33011772D01*
X60799147Y32856900D01*
X60706015Y32717519D01*
X60587481Y32598985D01*
X60448100Y32505853D01*
X60293228Y32441703D01*
X60128816Y32409000D01*
X59961184Y32409000D01*
X59796772Y32441703D01*
X59641900Y32505853D01*
X59502519Y32598985D01*
X59383985Y32717519D01*
X59290853Y32856900D01*
X59226703Y33011772D01*
X59194000Y33176184D01*
X59194000Y33343816D01*
X59226703Y33508228D01*
X59290853Y33663100D01*
X59383985Y33802481D01*
X59502519Y33921015D01*
X59641900Y34014147D01*
X59796772Y34078297D01*
X59961184Y34111000D01*
X60128816Y34111000D01*
X60293228Y34078297D01*
X60293228Y34078297D01*
G37*
G36*
X54151000Y34859000D02*
X52349000Y34859000D01*
X52349000Y36661000D01*
X54151000Y36661000D01*
X54151000Y34859000D01*
X54151000Y34859000D01*
G37*
G36*
X9151000Y34859000D02*
X7349000Y34859000D01*
X7349000Y36661000D01*
X9151000Y36661000D01*
X9151000Y34859000D01*
X9151000Y34859000D01*
G37*
G36*
X15896000Y34909000D02*
X14194000Y34909000D01*
X14194000Y36611000D01*
X15896000Y36611000D01*
X15896000Y34909000D01*
X15896000Y34909000D01*
G37*
G36*
X60896000Y34909000D02*
X59194000Y34909000D01*
X59194000Y36611000D01*
X60896000Y36611000D01*
X60896000Y34909000D01*
X60896000Y34909000D01*
G37*
G36*
X93751000Y35559000D02*
X91849000Y35559000D01*
X91849000Y37461000D01*
X93751000Y37461000D01*
X93751000Y35559000D01*
X93751000Y35559000D01*
G37*
G36*
X45537396Y37424454D02*
X45710466Y37352766D01*
X45866230Y37248688D01*
X45998688Y37116230D01*
X46102766Y36960466D01*
X46174454Y36787396D01*
X46211000Y36603667D01*
X46211000Y36416333D01*
X46174454Y36232604D01*
X46102766Y36059534D01*
X45998688Y35903770D01*
X45866230Y35771312D01*
X45710466Y35667234D01*
X45537396Y35595546D01*
X45353667Y35559000D01*
X45166333Y35559000D01*
X44982604Y35595546D01*
X44809534Y35667234D01*
X44653770Y35771312D01*
X44521312Y35903770D01*
X44417234Y36059534D01*
X44345546Y36232604D01*
X44309000Y36416333D01*
X44309000Y36603667D01*
X44345546Y36787396D01*
X44417234Y36960466D01*
X44521312Y37116230D01*
X44653770Y37248688D01*
X44809534Y37352766D01*
X44982604Y37424454D01*
X45166333Y37461000D01*
X45353667Y37461000D01*
X45537396Y37424454D01*
X45537396Y37424454D01*
G37*
G36*
X48751000Y35559000D02*
X46849000Y35559000D01*
X46849000Y37461000D01*
X48751000Y37461000D01*
X48751000Y35559000D01*
X48751000Y35559000D01*
G37*
G36*
X90537396Y37424454D02*
X90710466Y37352766D01*
X90866230Y37248688D01*
X90998688Y37116230D01*
X91102766Y36960466D01*
X91174454Y36787396D01*
X91211000Y36603667D01*
X91211000Y36416333D01*
X91174454Y36232604D01*
X91102766Y36059534D01*
X90998688Y35903770D01*
X90866230Y35771312D01*
X90710466Y35667234D01*
X90537396Y35595546D01*
X90353667Y35559000D01*
X90166333Y35559000D01*
X89982604Y35595546D01*
X89809534Y35667234D01*
X89653770Y35771312D01*
X89521312Y35903770D01*
X89417234Y36059534D01*
X89345546Y36232604D01*
X89309000Y36416333D01*
X89309000Y36603667D01*
X89345546Y36787396D01*
X89417234Y36960466D01*
X89521312Y37116230D01*
X89653770Y37248688D01*
X89809534Y37352766D01*
X89982604Y37424454D01*
X90166333Y37461000D01*
X90353667Y37461000D01*
X90537396Y37424454D01*
X90537396Y37424454D01*
G37*
G36*
X67382004Y38989456D02*
X67469059Y38972140D01*
X67605732Y38915528D01*
X67605733Y38915527D01*
X67728738Y38833338D01*
X67833338Y38728738D01*
X67833340Y38728735D01*
X67915528Y38605732D01*
X67972140Y38469059D01*
X68001000Y38323967D01*
X68001000Y38176033D01*
X67972140Y38030941D01*
X67915528Y37894268D01*
X67915527Y37894267D01*
X67833338Y37771262D01*
X67728738Y37666662D01*
X67728735Y37666660D01*
X67605732Y37584472D01*
X67469059Y37527860D01*
X67382004Y37510544D01*
X67323969Y37499000D01*
X67176031Y37499000D01*
X67117996Y37510544D01*
X67030941Y37527860D01*
X66894268Y37584472D01*
X66771265Y37666660D01*
X66771262Y37666662D01*
X66666662Y37771262D01*
X66584473Y37894267D01*
X66584472Y37894268D01*
X66527860Y38030941D01*
X66499000Y38176033D01*
X66499000Y38323967D01*
X66527860Y38469059D01*
X66584472Y38605732D01*
X66666660Y38728735D01*
X66666662Y38728738D01*
X66771262Y38833338D01*
X66894267Y38915527D01*
X66894268Y38915528D01*
X67030941Y38972140D01*
X67117996Y38989456D01*
X67176031Y39001000D01*
X67323969Y39001000D01*
X67382004Y38989456D01*
X67382004Y38989456D01*
G37*
G36*
X78632004Y38989456D02*
X78719059Y38972140D01*
X78855732Y38915528D01*
X78855733Y38915527D01*
X78978738Y38833338D01*
X79083338Y38728738D01*
X79083340Y38728735D01*
X79165528Y38605732D01*
X79222140Y38469059D01*
X79251000Y38323967D01*
X79251000Y38176033D01*
X79222140Y38030941D01*
X79165528Y37894268D01*
X79165527Y37894267D01*
X79083338Y37771262D01*
X78978738Y37666662D01*
X78978735Y37666660D01*
X78855732Y37584472D01*
X78719059Y37527860D01*
X78632004Y37510544D01*
X78573969Y37499000D01*
X78426031Y37499000D01*
X78367996Y37510544D01*
X78280941Y37527860D01*
X78144268Y37584472D01*
X78021265Y37666660D01*
X78021262Y37666662D01*
X77916662Y37771262D01*
X77834473Y37894267D01*
X77834472Y37894268D01*
X77777860Y38030941D01*
X77749000Y38176033D01*
X77749000Y38323967D01*
X77777860Y38469059D01*
X77834472Y38605732D01*
X77916660Y38728735D01*
X77916662Y38728738D01*
X78021262Y38833338D01*
X78144267Y38915527D01*
X78144268Y38915528D01*
X78280941Y38972140D01*
X78367996Y38989456D01*
X78426031Y39001000D01*
X78573969Y39001000D01*
X78632004Y38989456D01*
X78632004Y38989456D01*
G37*
G36*
X22382004Y38989456D02*
X22469059Y38972140D01*
X22605732Y38915528D01*
X22605733Y38915527D01*
X22728738Y38833338D01*
X22833338Y38728738D01*
X22833340Y38728735D01*
X22915528Y38605732D01*
X22972140Y38469059D01*
X23001000Y38323967D01*
X23001000Y38176033D01*
X22972140Y38030941D01*
X22915528Y37894268D01*
X22915527Y37894267D01*
X22833338Y37771262D01*
X22728738Y37666662D01*
X22728735Y37666660D01*
X22605732Y37584472D01*
X22469059Y37527860D01*
X22382004Y37510544D01*
X22323969Y37499000D01*
X22176031Y37499000D01*
X22117996Y37510544D01*
X22030941Y37527860D01*
X21894268Y37584472D01*
X21771265Y37666660D01*
X21771262Y37666662D01*
X21666662Y37771262D01*
X21584473Y37894267D01*
X21584472Y37894268D01*
X21527860Y38030941D01*
X21499000Y38176033D01*
X21499000Y38323967D01*
X21527860Y38469059D01*
X21584472Y38605732D01*
X21666660Y38728735D01*
X21666662Y38728738D01*
X21771262Y38833338D01*
X21894267Y38915527D01*
X21894268Y38915528D01*
X22030941Y38972140D01*
X22117996Y38989456D01*
X22176031Y39001000D01*
X22323969Y39001000D01*
X22382004Y38989456D01*
X22382004Y38989456D01*
G37*
G36*
X27882004Y38989456D02*
X27969059Y38972140D01*
X28105732Y38915528D01*
X28105733Y38915527D01*
X28228738Y38833338D01*
X28333338Y38728738D01*
X28333340Y38728735D01*
X28415528Y38605732D01*
X28472140Y38469059D01*
X28501000Y38323967D01*
X28501000Y38176033D01*
X28472140Y38030941D01*
X28415528Y37894268D01*
X28415527Y37894267D01*
X28333338Y37771262D01*
X28228738Y37666662D01*
X28228735Y37666660D01*
X28105732Y37584472D01*
X27969059Y37527860D01*
X27882004Y37510544D01*
X27823969Y37499000D01*
X27676031Y37499000D01*
X27617996Y37510544D01*
X27530941Y37527860D01*
X27394268Y37584472D01*
X27271265Y37666660D01*
X27271262Y37666662D01*
X27166662Y37771262D01*
X27084473Y37894267D01*
X27084472Y37894268D01*
X27027860Y38030941D01*
X26999000Y38176033D01*
X26999000Y38323967D01*
X27027860Y38469059D01*
X27084472Y38605732D01*
X27166660Y38728735D01*
X27166662Y38728738D01*
X27271262Y38833338D01*
X27394267Y38915527D01*
X27394268Y38915528D01*
X27530941Y38972140D01*
X27617996Y38989456D01*
X27676031Y39001000D01*
X27823969Y39001000D01*
X27882004Y38989456D01*
X27882004Y38989456D01*
G37*
G36*
X72882004Y38989456D02*
X72969059Y38972140D01*
X73105732Y38915528D01*
X73105733Y38915527D01*
X73228738Y38833338D01*
X73333338Y38728738D01*
X73333340Y38728735D01*
X73415528Y38605732D01*
X73472140Y38469059D01*
X73501000Y38323967D01*
X73501000Y38176033D01*
X73472140Y38030941D01*
X73415528Y37894268D01*
X73415527Y37894267D01*
X73333338Y37771262D01*
X73228738Y37666662D01*
X73228735Y37666660D01*
X73105732Y37584472D01*
X72969059Y37527860D01*
X72882004Y37510544D01*
X72823969Y37499000D01*
X72676031Y37499000D01*
X72617996Y37510544D01*
X72530941Y37527860D01*
X72394268Y37584472D01*
X72271265Y37666660D01*
X72271262Y37666662D01*
X72166662Y37771262D01*
X72084473Y37894267D01*
X72084472Y37894268D01*
X72027860Y38030941D01*
X71999000Y38176033D01*
X71999000Y38323967D01*
X72027860Y38469059D01*
X72084472Y38605732D01*
X72166660Y38728735D01*
X72166662Y38728738D01*
X72271262Y38833338D01*
X72394267Y38915527D01*
X72394268Y38915528D01*
X72530941Y38972140D01*
X72617996Y38989456D01*
X72676031Y39001000D01*
X72823969Y39001000D01*
X72882004Y38989456D01*
X72882004Y38989456D01*
G37*
G36*
X33632004Y38989456D02*
X33719059Y38972140D01*
X33855732Y38915528D01*
X33855733Y38915527D01*
X33978738Y38833338D01*
X34083338Y38728738D01*
X34083340Y38728735D01*
X34165528Y38605732D01*
X34222140Y38469059D01*
X34251000Y38323967D01*
X34251000Y38176033D01*
X34222140Y38030941D01*
X34165528Y37894268D01*
X34165527Y37894267D01*
X34083338Y37771262D01*
X33978738Y37666662D01*
X33978735Y37666660D01*
X33855732Y37584472D01*
X33719059Y37527860D01*
X33632004Y37510544D01*
X33573969Y37499000D01*
X33426031Y37499000D01*
X33367996Y37510544D01*
X33280941Y37527860D01*
X33144268Y37584472D01*
X33021265Y37666660D01*
X33021262Y37666662D01*
X32916662Y37771262D01*
X32834473Y37894267D01*
X32834472Y37894268D01*
X32777860Y38030941D01*
X32749000Y38176033D01*
X32749000Y38323967D01*
X32777860Y38469059D01*
X32834472Y38605732D01*
X32916660Y38728735D01*
X32916662Y38728738D01*
X33021262Y38833338D01*
X33144267Y38915527D01*
X33144268Y38915528D01*
X33280941Y38972140D01*
X33367996Y38989456D01*
X33426031Y39001000D01*
X33573969Y39001000D01*
X33632004Y38989456D01*
X33632004Y38989456D01*
G37*
G36*
X12283000Y42782000D02*
X10481000Y42782000D01*
X10481000Y44584000D01*
X12283000Y44584000D01*
X12283000Y42782000D01*
X12283000Y42782000D01*
G37*
G36*
X57283000Y42782000D02*
X55481000Y42782000D01*
X55481000Y44584000D01*
X57283000Y44584000D01*
X57283000Y42782000D01*
X57283000Y42782000D01*
G37*
G36*
X45537396Y44724454D02*
X45710466Y44652766D01*
X45866230Y44548688D01*
X45998688Y44416230D01*
X46102766Y44260466D01*
X46174454Y44087396D01*
X46211000Y43903667D01*
X46211000Y43716333D01*
X46174454Y43532604D01*
X46102766Y43359534D01*
X45998688Y43203770D01*
X45866230Y43071312D01*
X45710466Y42967234D01*
X45537396Y42895546D01*
X45353667Y42859000D01*
X45166333Y42859000D01*
X44982604Y42895546D01*
X44809534Y42967234D01*
X44653770Y43071312D01*
X44521312Y43203770D01*
X44417234Y43359534D01*
X44345546Y43532604D01*
X44309000Y43716333D01*
X44309000Y43903667D01*
X44345546Y44087396D01*
X44417234Y44260466D01*
X44521312Y44416230D01*
X44653770Y44548688D01*
X44809534Y44652766D01*
X44982604Y44724454D01*
X45166333Y44761000D01*
X45353667Y44761000D01*
X45537396Y44724454D01*
X45537396Y44724454D01*
G37*
G36*
X93751000Y42859000D02*
X91849000Y42859000D01*
X91849000Y44761000D01*
X93751000Y44761000D01*
X93751000Y42859000D01*
X93751000Y42859000D01*
G37*
G36*
X48751000Y42859000D02*
X46849000Y42859000D01*
X46849000Y44761000D01*
X48751000Y44761000D01*
X48751000Y42859000D01*
X48751000Y42859000D01*
G37*
G36*
X90537396Y44724454D02*
X90710466Y44652766D01*
X90866230Y44548688D01*
X90998688Y44416230D01*
X91102766Y44260466D01*
X91174454Y44087396D01*
X91211000Y43903667D01*
X91211000Y43716333D01*
X91174454Y43532604D01*
X91102766Y43359534D01*
X90998688Y43203770D01*
X90866230Y43071312D01*
X90710466Y42967234D01*
X90537396Y42895546D01*
X90353667Y42859000D01*
X90166333Y42859000D01*
X89982604Y42895546D01*
X89809534Y42967234D01*
X89653770Y43071312D01*
X89521312Y43203770D01*
X89417234Y43359534D01*
X89345546Y43532604D01*
X89309000Y43716333D01*
X89309000Y43903667D01*
X89345546Y44087396D01*
X89417234Y44260466D01*
X89521312Y44416230D01*
X89653770Y44548688D01*
X89809534Y44652766D01*
X89982604Y44724454D01*
X90166333Y44761000D01*
X90353667Y44761000D01*
X90537396Y44724454D01*
X90537396Y44724454D01*
G37*
G36*
X19351000Y43649000D02*
X17649000Y43649000D01*
X17649000Y45351000D01*
X19351000Y45351000D01*
X19351000Y43649000D01*
X19351000Y43649000D01*
G37*
G36*
X21248228Y45318297D02*
X21403100Y45254147D01*
X21542481Y45161015D01*
X21661015Y45042481D01*
X21754147Y44903100D01*
X21818297Y44748228D01*
X21851000Y44583816D01*
X21851000Y44416184D01*
X21818297Y44251772D01*
X21754147Y44096900D01*
X21661015Y43957519D01*
X21542481Y43838985D01*
X21403100Y43745853D01*
X21248228Y43681703D01*
X21083816Y43649000D01*
X20916184Y43649000D01*
X20751772Y43681703D01*
X20596900Y43745853D01*
X20457519Y43838985D01*
X20338985Y43957519D01*
X20245853Y44096900D01*
X20181703Y44251772D01*
X20149000Y44416184D01*
X20149000Y44583816D01*
X20181703Y44748228D01*
X20245853Y44903100D01*
X20338985Y45042481D01*
X20457519Y45161015D01*
X20596900Y45254147D01*
X20751772Y45318297D01*
X20916184Y45351000D01*
X21083816Y45351000D01*
X21248228Y45318297D01*
X21248228Y45318297D01*
G37*
G36*
X66248228Y45318297D02*
X66403100Y45254147D01*
X66542481Y45161015D01*
X66661015Y45042481D01*
X66754147Y44903100D01*
X66818297Y44748228D01*
X66851000Y44583816D01*
X66851000Y44416184D01*
X66818297Y44251772D01*
X66754147Y44096900D01*
X66661015Y43957519D01*
X66542481Y43838985D01*
X66403100Y43745853D01*
X66248228Y43681703D01*
X66083816Y43649000D01*
X65916184Y43649000D01*
X65751772Y43681703D01*
X65596900Y43745853D01*
X65457519Y43838985D01*
X65338985Y43957519D01*
X65245853Y44096900D01*
X65181703Y44251772D01*
X65149000Y44416184D01*
X65149000Y44583816D01*
X65181703Y44748228D01*
X65245853Y44903100D01*
X65338985Y45042481D01*
X65457519Y45161015D01*
X65596900Y45254147D01*
X65751772Y45318297D01*
X65916184Y45351000D01*
X66083816Y45351000D01*
X66248228Y45318297D01*
X66248228Y45318297D01*
G37*
G36*
X64351000Y43649000D02*
X62649000Y43649000D01*
X62649000Y45351000D01*
X64351000Y45351000D01*
X64351000Y43649000D01*
X64351000Y43649000D01*
G37*
G36*
X25978643Y45350219D02*
X26124415Y45289838D01*
X26255611Y45202176D01*
X26367176Y45090611D01*
X26454838Y44959415D01*
X26515219Y44813643D01*
X26546000Y44658893D01*
X26546000Y44501107D01*
X26515219Y44346357D01*
X26454838Y44200585D01*
X26367176Y44069389D01*
X26255611Y43957824D01*
X26124415Y43870162D01*
X25978643Y43809781D01*
X25823893Y43779000D01*
X25666107Y43779000D01*
X25511357Y43809781D01*
X25365585Y43870162D01*
X25234389Y43957824D01*
X25122824Y44069389D01*
X25035162Y44200585D01*
X24974781Y44346357D01*
X24944000Y44501107D01*
X24944000Y44658893D01*
X24974781Y44813643D01*
X25035162Y44959415D01*
X25122824Y45090611D01*
X25234389Y45202176D01*
X25365585Y45289838D01*
X25511357Y45350219D01*
X25666107Y45381000D01*
X25823893Y45381000D01*
X25978643Y45350219D01*
X25978643Y45350219D01*
G37*
G36*
X70978643Y45350219D02*
X71124415Y45289838D01*
X71255611Y45202176D01*
X71367176Y45090611D01*
X71454838Y44959415D01*
X71515219Y44813643D01*
X71546000Y44658893D01*
X71546000Y44501107D01*
X71515219Y44346357D01*
X71454838Y44200585D01*
X71367176Y44069389D01*
X71255611Y43957824D01*
X71124415Y43870162D01*
X70978643Y43809781D01*
X70823893Y43779000D01*
X70666107Y43779000D01*
X70511357Y43809781D01*
X70365585Y43870162D01*
X70234389Y43957824D01*
X70122824Y44069389D01*
X70035162Y44200585D01*
X69974781Y44346357D01*
X69944000Y44501107D01*
X69944000Y44658893D01*
X69974781Y44813643D01*
X70035162Y44959415D01*
X70122824Y45090611D01*
X70234389Y45202176D01*
X70365585Y45289838D01*
X70511357Y45350219D01*
X70666107Y45381000D01*
X70823893Y45381000D01*
X70978643Y45350219D01*
X70978643Y45350219D01*
G37*
G36*
X28518643Y45350219D02*
X28664415Y45289838D01*
X28795611Y45202176D01*
X28907176Y45090611D01*
X28994838Y44959415D01*
X29055219Y44813643D01*
X29086000Y44658893D01*
X29086000Y44501107D01*
X29055219Y44346357D01*
X28994838Y44200585D01*
X28907176Y44069389D01*
X28795611Y43957824D01*
X28664415Y43870162D01*
X28518643Y43809781D01*
X28363893Y43779000D01*
X28206107Y43779000D01*
X28051357Y43809781D01*
X27905585Y43870162D01*
X27774389Y43957824D01*
X27662824Y44069389D01*
X27575162Y44200585D01*
X27514781Y44346357D01*
X27484000Y44501107D01*
X27484000Y44658893D01*
X27514781Y44813643D01*
X27575162Y44959415D01*
X27662824Y45090611D01*
X27774389Y45202176D01*
X27905585Y45289838D01*
X28051357Y45350219D01*
X28206107Y45381000D01*
X28363893Y45381000D01*
X28518643Y45350219D01*
X28518643Y45350219D01*
G37*
G36*
X85801000Y43779000D02*
X84199000Y43779000D01*
X84199000Y45381000D01*
X85801000Y45381000D01*
X85801000Y43779000D01*
X85801000Y43779000D01*
G37*
G36*
X31626000Y43779000D02*
X30024000Y43779000D01*
X30024000Y45381000D01*
X31626000Y45381000D01*
X31626000Y43779000D01*
X31626000Y43779000D01*
G37*
G36*
X82693643Y45350219D02*
X82839415Y45289838D01*
X82970611Y45202176D01*
X83082176Y45090611D01*
X83169838Y44959415D01*
X83230219Y44813643D01*
X83261000Y44658893D01*
X83261000Y44501107D01*
X83230219Y44346357D01*
X83169838Y44200585D01*
X83082176Y44069389D01*
X82970611Y43957824D01*
X82839415Y43870162D01*
X82693643Y43809781D01*
X82538893Y43779000D01*
X82381107Y43779000D01*
X82226357Y43809781D01*
X82080585Y43870162D01*
X81949389Y43957824D01*
X81837824Y44069389D01*
X81750162Y44200585D01*
X81689781Y44346357D01*
X81659000Y44501107D01*
X81659000Y44658893D01*
X81689781Y44813643D01*
X81750162Y44959415D01*
X81837824Y45090611D01*
X81949389Y45202176D01*
X82080585Y45289838D01*
X82226357Y45350219D01*
X82381107Y45381000D01*
X82538893Y45381000D01*
X82693643Y45350219D01*
X82693643Y45350219D01*
G37*
G36*
X40801000Y43779000D02*
X39199000Y43779000D01*
X39199000Y45381000D01*
X40801000Y45381000D01*
X40801000Y43779000D01*
X40801000Y43779000D01*
G37*
G36*
X80153643Y45350219D02*
X80299415Y45289838D01*
X80430611Y45202176D01*
X80542176Y45090611D01*
X80629838Y44959415D01*
X80690219Y44813643D01*
X80721000Y44658893D01*
X80721000Y44501107D01*
X80690219Y44346357D01*
X80629838Y44200585D01*
X80542176Y44069389D01*
X80430611Y43957824D01*
X80299415Y43870162D01*
X80153643Y43809781D01*
X79998893Y43779000D01*
X79841107Y43779000D01*
X79686357Y43809781D01*
X79540585Y43870162D01*
X79409389Y43957824D01*
X79297824Y44069389D01*
X79210162Y44200585D01*
X79149781Y44346357D01*
X79119000Y44501107D01*
X79119000Y44658893D01*
X79149781Y44813643D01*
X79210162Y44959415D01*
X79297824Y45090611D01*
X79409389Y45202176D01*
X79540585Y45289838D01*
X79686357Y45350219D01*
X79841107Y45381000D01*
X79998893Y45381000D01*
X80153643Y45350219D01*
X80153643Y45350219D01*
G37*
G36*
X35153643Y45350219D02*
X35299415Y45289838D01*
X35430611Y45202176D01*
X35542176Y45090611D01*
X35629838Y44959415D01*
X35690219Y44813643D01*
X35721000Y44658893D01*
X35721000Y44501107D01*
X35690219Y44346357D01*
X35629838Y44200585D01*
X35542176Y44069389D01*
X35430611Y43957824D01*
X35299415Y43870162D01*
X35153643Y43809781D01*
X34998893Y43779000D01*
X34841107Y43779000D01*
X34686357Y43809781D01*
X34540585Y43870162D01*
X34409389Y43957824D01*
X34297824Y44069389D01*
X34210162Y44200585D01*
X34149781Y44346357D01*
X34119000Y44501107D01*
X34119000Y44658893D01*
X34149781Y44813643D01*
X34210162Y44959415D01*
X34297824Y45090611D01*
X34409389Y45202176D01*
X34540585Y45289838D01*
X34686357Y45350219D01*
X34841107Y45381000D01*
X34998893Y45381000D01*
X35153643Y45350219D01*
X35153643Y45350219D01*
G37*
G36*
X37693643Y45350219D02*
X37839415Y45289838D01*
X37970611Y45202176D01*
X38082176Y45090611D01*
X38169838Y44959415D01*
X38230219Y44813643D01*
X38261000Y44658893D01*
X38261000Y44501107D01*
X38230219Y44346357D01*
X38169838Y44200585D01*
X38082176Y44069389D01*
X37970611Y43957824D01*
X37839415Y43870162D01*
X37693643Y43809781D01*
X37538893Y43779000D01*
X37381107Y43779000D01*
X37226357Y43809781D01*
X37080585Y43870162D01*
X36949389Y43957824D01*
X36837824Y44069389D01*
X36750162Y44200585D01*
X36689781Y44346357D01*
X36659000Y44501107D01*
X36659000Y44658893D01*
X36689781Y44813643D01*
X36750162Y44959415D01*
X36837824Y45090611D01*
X36949389Y45202176D01*
X37080585Y45289838D01*
X37226357Y45350219D01*
X37381107Y45381000D01*
X37538893Y45381000D01*
X37693643Y45350219D01*
X37693643Y45350219D01*
G37*
G36*
X73518643Y45350219D02*
X73664415Y45289838D01*
X73795611Y45202176D01*
X73907176Y45090611D01*
X73994838Y44959415D01*
X74055219Y44813643D01*
X74086000Y44658893D01*
X74086000Y44501107D01*
X74055219Y44346357D01*
X73994838Y44200585D01*
X73907176Y44069389D01*
X73795611Y43957824D01*
X73664415Y43870162D01*
X73518643Y43809781D01*
X73363893Y43779000D01*
X73206107Y43779000D01*
X73051357Y43809781D01*
X72905585Y43870162D01*
X72774389Y43957824D01*
X72662824Y44069389D01*
X72575162Y44200585D01*
X72514781Y44346357D01*
X72484000Y44501107D01*
X72484000Y44658893D01*
X72514781Y44813643D01*
X72575162Y44959415D01*
X72662824Y45090611D01*
X72774389Y45202176D01*
X72905585Y45289838D01*
X73051357Y45350219D01*
X73206107Y45381000D01*
X73363893Y45381000D01*
X73518643Y45350219D01*
X73518643Y45350219D01*
G37*
G36*
X76626000Y43779000D02*
X75024000Y43779000D01*
X75024000Y45381000D01*
X76626000Y45381000D01*
X76626000Y43779000D01*
X76626000Y43779000D01*
G37*
G36*
X11492442Y47117482D02*
X11558627Y47110963D01*
X11671853Y47076616D01*
X11728467Y47059443D01*
X11867087Y46985348D01*
X11884991Y46975778D01*
X11920729Y46946448D01*
X12022186Y46863186D01*
X12105448Y46761729D01*
X12134778Y46725991D01*
X12134779Y46725989D01*
X12218443Y46569467D01*
X12218443Y46569466D01*
X12269963Y46399627D01*
X12287359Y46223000D01*
X12269963Y46046373D01*
X12235616Y45933147D01*
X12218443Y45876533D01*
X12144348Y45737913D01*
X12134778Y45720009D01*
X12105448Y45684271D01*
X12022186Y45582814D01*
X11920729Y45499552D01*
X11884991Y45470222D01*
X11884989Y45470221D01*
X11728467Y45386557D01*
X11671853Y45369384D01*
X11558627Y45335037D01*
X11492442Y45328518D01*
X11426260Y45322000D01*
X11337740Y45322000D01*
X11271558Y45328518D01*
X11205373Y45335037D01*
X11092147Y45369384D01*
X11035533Y45386557D01*
X10879011Y45470221D01*
X10879009Y45470222D01*
X10843271Y45499552D01*
X10741814Y45582814D01*
X10658552Y45684271D01*
X10629222Y45720009D01*
X10619652Y45737913D01*
X10545557Y45876533D01*
X10528384Y45933147D01*
X10494037Y46046373D01*
X10476641Y46223000D01*
X10494037Y46399627D01*
X10545557Y46569466D01*
X10545557Y46569467D01*
X10629221Y46725989D01*
X10629222Y46725991D01*
X10658552Y46761729D01*
X10741814Y46863186D01*
X10843271Y46946448D01*
X10879009Y46975778D01*
X10896913Y46985348D01*
X11035533Y47059443D01*
X11092147Y47076616D01*
X11205373Y47110963D01*
X11271558Y47117482D01*
X11337740Y47124000D01*
X11426260Y47124000D01*
X11492442Y47117482D01*
X11492442Y47117482D01*
G37*
G36*
X56492442Y47117482D02*
X56558627Y47110963D01*
X56671853Y47076616D01*
X56728467Y47059443D01*
X56867087Y46985348D01*
X56884991Y46975778D01*
X56920729Y46946448D01*
X57022186Y46863186D01*
X57105448Y46761729D01*
X57134778Y46725991D01*
X57134779Y46725989D01*
X57218443Y46569467D01*
X57218443Y46569466D01*
X57269963Y46399627D01*
X57287359Y46223000D01*
X57269963Y46046373D01*
X57235616Y45933147D01*
X57218443Y45876533D01*
X57144348Y45737913D01*
X57134778Y45720009D01*
X57105448Y45684271D01*
X57022186Y45582814D01*
X56920729Y45499552D01*
X56884991Y45470222D01*
X56884989Y45470221D01*
X56728467Y45386557D01*
X56671853Y45369384D01*
X56558627Y45335037D01*
X56492442Y45328518D01*
X56426260Y45322000D01*
X56337740Y45322000D01*
X56271558Y45328518D01*
X56205373Y45335037D01*
X56092147Y45369384D01*
X56035533Y45386557D01*
X55879011Y45470221D01*
X55879009Y45470222D01*
X55843271Y45499552D01*
X55741814Y45582814D01*
X55658552Y45684271D01*
X55629222Y45720009D01*
X55619652Y45737913D01*
X55545557Y45876533D01*
X55528384Y45933147D01*
X55494037Y46046373D01*
X55476641Y46223000D01*
X55494037Y46399627D01*
X55545557Y46569466D01*
X55545557Y46569467D01*
X55629221Y46725989D01*
X55629222Y46725991D01*
X55658552Y46761729D01*
X55741814Y46863186D01*
X55843271Y46946448D01*
X55879009Y46975778D01*
X55896913Y46985348D01*
X56035533Y47059443D01*
X56092147Y47076616D01*
X56205373Y47110963D01*
X56271557Y47117481D01*
X56337740Y47124000D01*
X56426260Y47124000D01*
X56492442Y47117482D01*
X56492442Y47117482D01*
G37*
G36*
X45537396Y51074454D02*
X45710466Y51002766D01*
X45866230Y50898688D01*
X45998688Y50766230D01*
X46102766Y50610466D01*
X46174454Y50437396D01*
X46211000Y50253667D01*
X46211000Y50066333D01*
X46174454Y49882604D01*
X46102766Y49709534D01*
X45998688Y49553770D01*
X45866230Y49421312D01*
X45710466Y49317234D01*
X45537396Y49245546D01*
X45353667Y49209000D01*
X45166333Y49209000D01*
X44982604Y49245546D01*
X44809534Y49317234D01*
X44653770Y49421312D01*
X44521312Y49553770D01*
X44417234Y49709534D01*
X44345546Y49882604D01*
X44309000Y50066333D01*
X44309000Y50253667D01*
X44345546Y50437396D01*
X44417234Y50610466D01*
X44521312Y50766230D01*
X44653770Y50898688D01*
X44809534Y51002766D01*
X44982604Y51074454D01*
X45166333Y51111000D01*
X45353667Y51111000D01*
X45537396Y51074454D01*
X45537396Y51074454D01*
G37*
G36*
X90537396Y51074454D02*
X90710466Y51002766D01*
X90866230Y50898688D01*
X90998688Y50766230D01*
X91102766Y50610466D01*
X91174454Y50437396D01*
X91211000Y50253667D01*
X91211000Y50066333D01*
X91174454Y49882604D01*
X91102766Y49709534D01*
X90998688Y49553770D01*
X90866230Y49421312D01*
X90710466Y49317234D01*
X90537396Y49245546D01*
X90353667Y49209000D01*
X90166333Y49209000D01*
X89982604Y49245546D01*
X89809534Y49317234D01*
X89653770Y49421312D01*
X89521312Y49553770D01*
X89417234Y49709534D01*
X89345546Y49882604D01*
X89309000Y50066333D01*
X89309000Y50253667D01*
X89345546Y50437396D01*
X89417234Y50610466D01*
X89521312Y50766230D01*
X89653770Y50898688D01*
X89809534Y51002766D01*
X89982604Y51074454D01*
X90166333Y51111000D01*
X90353667Y51111000D01*
X90537396Y51074454D01*
X90537396Y51074454D01*
G37*
G36*
X48751000Y49209000D02*
X46849000Y49209000D01*
X46849000Y51111000D01*
X48751000Y51111000D01*
X48751000Y49209000D01*
X48751000Y49209000D01*
G37*
G36*
X93751000Y49209000D02*
X91849000Y49209000D01*
X91849000Y51111000D01*
X93751000Y51111000D01*
X93751000Y49209000D01*
X93751000Y49209000D01*
G37*
G36*
X72823665Y51377378D02*
X72897222Y51370133D01*
X73038786Y51327190D01*
X73169252Y51257454D01*
X73283606Y51163606D01*
X73377454Y51049252D01*
X73447190Y50918786D01*
X73490133Y50777222D01*
X73504633Y50630000D01*
X73490133Y50482778D01*
X73447190Y50341214D01*
X73377454Y50210748D01*
X73283606Y50096394D01*
X73169252Y50002546D01*
X73038786Y49932810D01*
X72897222Y49889867D01*
X72823665Y49882622D01*
X72786888Y49879000D01*
X72713112Y49879000D01*
X72676335Y49882622D01*
X72602778Y49889867D01*
X72461214Y49932810D01*
X72330748Y50002546D01*
X72216394Y50096394D01*
X72122546Y50210748D01*
X72052810Y50341214D01*
X72009867Y50482778D01*
X71995367Y50630000D01*
X72009867Y50777222D01*
X72052810Y50918786D01*
X72122546Y51049252D01*
X72216394Y51163606D01*
X72330748Y51257454D01*
X72461214Y51327190D01*
X72602778Y51370133D01*
X72676335Y51377378D01*
X72713112Y51381000D01*
X72786888Y51381000D01*
X72823665Y51377378D01*
X72823665Y51377378D01*
G37*
G36*
X78573665Y51377378D02*
X78647222Y51370133D01*
X78788786Y51327190D01*
X78919252Y51257454D01*
X79033606Y51163606D01*
X79127454Y51049252D01*
X79197190Y50918786D01*
X79240133Y50777222D01*
X79254633Y50630000D01*
X79240133Y50482778D01*
X79197190Y50341214D01*
X79127454Y50210748D01*
X79033606Y50096394D01*
X78919252Y50002546D01*
X78788786Y49932810D01*
X78647222Y49889867D01*
X78573665Y49882622D01*
X78536888Y49879000D01*
X78463112Y49879000D01*
X78426335Y49882622D01*
X78352778Y49889867D01*
X78211214Y49932810D01*
X78080748Y50002546D01*
X77966394Y50096394D01*
X77872546Y50210748D01*
X77802810Y50341214D01*
X77759867Y50482778D01*
X77745367Y50630000D01*
X77759867Y50777222D01*
X77802810Y50918786D01*
X77872546Y51049252D01*
X77966394Y51163606D01*
X78080748Y51257454D01*
X78211214Y51327190D01*
X78352778Y51370133D01*
X78426335Y51377378D01*
X78463112Y51381000D01*
X78536888Y51381000D01*
X78573665Y51377378D01*
X78573665Y51377378D01*
G37*
G36*
X22323665Y51377378D02*
X22397222Y51370133D01*
X22538786Y51327190D01*
X22669252Y51257454D01*
X22783606Y51163606D01*
X22877454Y51049252D01*
X22947190Y50918786D01*
X22990133Y50777222D01*
X23004633Y50630000D01*
X22990133Y50482778D01*
X22947190Y50341214D01*
X22877454Y50210748D01*
X22783606Y50096394D01*
X22669252Y50002546D01*
X22538786Y49932810D01*
X22397222Y49889867D01*
X22323665Y49882622D01*
X22286888Y49879000D01*
X22213112Y49879000D01*
X22176335Y49882622D01*
X22102778Y49889867D01*
X21961214Y49932810D01*
X21830748Y50002546D01*
X21716394Y50096394D01*
X21622546Y50210748D01*
X21552810Y50341214D01*
X21509867Y50482778D01*
X21495367Y50630000D01*
X21509867Y50777222D01*
X21552810Y50918786D01*
X21622546Y51049252D01*
X21716394Y51163606D01*
X21830748Y51257454D01*
X21961214Y51327190D01*
X22102778Y51370133D01*
X22176335Y51377378D01*
X22213112Y51381000D01*
X22286888Y51381000D01*
X22323665Y51377378D01*
X22323665Y51377378D01*
G37*
G36*
X27823665Y51377378D02*
X27897222Y51370133D01*
X28038786Y51327190D01*
X28169252Y51257454D01*
X28283606Y51163606D01*
X28377454Y51049252D01*
X28447190Y50918786D01*
X28490133Y50777222D01*
X28504633Y50630000D01*
X28490133Y50482778D01*
X28447190Y50341214D01*
X28377454Y50210748D01*
X28283606Y50096394D01*
X28169252Y50002546D01*
X28038786Y49932810D01*
X27897222Y49889867D01*
X27823665Y49882622D01*
X27786888Y49879000D01*
X27713112Y49879000D01*
X27676335Y49882622D01*
X27602778Y49889867D01*
X27461214Y49932810D01*
X27330748Y50002546D01*
X27216394Y50096394D01*
X27122546Y50210748D01*
X27052810Y50341214D01*
X27009867Y50482778D01*
X26995367Y50630000D01*
X27009867Y50777222D01*
X27052810Y50918786D01*
X27122546Y51049252D01*
X27216394Y51163606D01*
X27330748Y51257454D01*
X27461214Y51327190D01*
X27602778Y51370133D01*
X27676335Y51377378D01*
X27713112Y51381000D01*
X27786888Y51381000D01*
X27823665Y51377378D01*
X27823665Y51377378D01*
G37*
G36*
X67323665Y51377378D02*
X67397222Y51370133D01*
X67538786Y51327190D01*
X67669252Y51257454D01*
X67783606Y51163606D01*
X67877454Y51049252D01*
X67947190Y50918786D01*
X67990133Y50777222D01*
X68004633Y50630000D01*
X67990133Y50482778D01*
X67947190Y50341214D01*
X67877454Y50210748D01*
X67783606Y50096394D01*
X67669252Y50002546D01*
X67538786Y49932810D01*
X67397222Y49889867D01*
X67323665Y49882622D01*
X67286888Y49879000D01*
X67213112Y49879000D01*
X67176335Y49882622D01*
X67102778Y49889867D01*
X66961214Y49932810D01*
X66830748Y50002546D01*
X66716394Y50096394D01*
X66622546Y50210748D01*
X66552810Y50341214D01*
X66509867Y50482778D01*
X66495367Y50630000D01*
X66509867Y50777222D01*
X66552810Y50918786D01*
X66622546Y51049252D01*
X66716394Y51163606D01*
X66830748Y51257454D01*
X66961214Y51327190D01*
X67102778Y51370133D01*
X67176335Y51377378D01*
X67213112Y51381000D01*
X67286888Y51381000D01*
X67323665Y51377378D01*
X67323665Y51377378D01*
G37*
G36*
X33573665Y51377378D02*
X33647222Y51370133D01*
X33788786Y51327190D01*
X33919252Y51257454D01*
X34033606Y51163606D01*
X34127454Y51049252D01*
X34197190Y50918786D01*
X34240133Y50777222D01*
X34254633Y50630000D01*
X34240133Y50482778D01*
X34197190Y50341214D01*
X34127454Y50210748D01*
X34033606Y50096394D01*
X33919252Y50002546D01*
X33788786Y49932810D01*
X33647222Y49889867D01*
X33573665Y49882622D01*
X33536888Y49879000D01*
X33463112Y49879000D01*
X33426335Y49882622D01*
X33352778Y49889867D01*
X33211214Y49932810D01*
X33080748Y50002546D01*
X32966394Y50096394D01*
X32872546Y50210748D01*
X32802810Y50341214D01*
X32759867Y50482778D01*
X32745367Y50630000D01*
X32759867Y50777222D01*
X32802810Y50918786D01*
X32872546Y51049252D01*
X32966394Y51163606D01*
X33080748Y51257454D01*
X33211214Y51327190D01*
X33352778Y51370133D01*
X33426335Y51377378D01*
X33463112Y51381000D01*
X33536888Y51381000D01*
X33573665Y51377378D01*
X33573665Y51377378D01*
G37*
G36*
X53360442Y54114482D02*
X53426627Y54107963D01*
X53524423Y54078297D01*
X53596467Y54056443D01*
X53675596Y54014147D01*
X53752991Y53972778D01*
X53788729Y53943448D01*
X53890186Y53860186D01*
X53973448Y53758729D01*
X54002778Y53722991D01*
X54002779Y53722989D01*
X54086443Y53566467D01*
X54086443Y53566466D01*
X54137963Y53396627D01*
X54155359Y53220000D01*
X54137963Y53043373D01*
X54128377Y53011772D01*
X54086443Y52873533D01*
X54077552Y52856900D01*
X54002778Y52717009D01*
X53973448Y52681271D01*
X53890186Y52579814D01*
X53800064Y52505854D01*
X53752991Y52467222D01*
X53752989Y52467221D01*
X53596467Y52383557D01*
X53539853Y52366384D01*
X53426627Y52332037D01*
X53360442Y52325518D01*
X53294260Y52319000D01*
X53205740Y52319000D01*
X53139558Y52325518D01*
X53073373Y52332037D01*
X52960147Y52366384D01*
X52903533Y52383557D01*
X52747011Y52467221D01*
X52747009Y52467222D01*
X52699936Y52505854D01*
X52609814Y52579814D01*
X52526552Y52681271D01*
X52497222Y52717009D01*
X52422448Y52856900D01*
X52413557Y52873533D01*
X52371623Y53011772D01*
X52362037Y53043373D01*
X52344641Y53220000D01*
X52362037Y53396627D01*
X52413557Y53566466D01*
X52413557Y53566467D01*
X52497221Y53722989D01*
X52497222Y53722991D01*
X52526552Y53758729D01*
X52609814Y53860186D01*
X52711271Y53943448D01*
X52747009Y53972778D01*
X52824404Y54014147D01*
X52903533Y54056443D01*
X52975577Y54078297D01*
X53073373Y54107963D01*
X53139558Y54114482D01*
X53205740Y54121000D01*
X53294260Y54121000D01*
X53360442Y54114482D01*
X53360442Y54114482D01*
G37*
G36*
X8360442Y54114482D02*
X8426627Y54107963D01*
X8524423Y54078297D01*
X8596467Y54056443D01*
X8675596Y54014147D01*
X8752991Y53972778D01*
X8788729Y53943448D01*
X8890186Y53860186D01*
X8973448Y53758729D01*
X9002778Y53722991D01*
X9002779Y53722989D01*
X9086443Y53566467D01*
X9086443Y53566466D01*
X9137963Y53396627D01*
X9155359Y53220000D01*
X9137963Y53043373D01*
X9128377Y53011772D01*
X9086443Y52873533D01*
X9077552Y52856900D01*
X9002778Y52717009D01*
X8973448Y52681271D01*
X8890186Y52579814D01*
X8800064Y52505854D01*
X8752991Y52467222D01*
X8752989Y52467221D01*
X8596467Y52383557D01*
X8539853Y52366384D01*
X8426627Y52332037D01*
X8360442Y52325518D01*
X8294260Y52319000D01*
X8205740Y52319000D01*
X8139558Y52325518D01*
X8073373Y52332037D01*
X7960147Y52366384D01*
X7903533Y52383557D01*
X7747011Y52467221D01*
X7747009Y52467222D01*
X7699936Y52505854D01*
X7609814Y52579814D01*
X7526552Y52681271D01*
X7497222Y52717009D01*
X7422448Y52856900D01*
X7413557Y52873533D01*
X7371623Y53011772D01*
X7362037Y53043373D01*
X7344641Y53220000D01*
X7362037Y53396627D01*
X7413557Y53566466D01*
X7413557Y53566467D01*
X7497221Y53722989D01*
X7497222Y53722991D01*
X7526552Y53758729D01*
X7609814Y53860186D01*
X7711271Y53943448D01*
X7747009Y53972778D01*
X7824404Y54014147D01*
X7903533Y54056443D01*
X7975577Y54078297D01*
X8073373Y54107963D01*
X8139558Y54114482D01*
X8205740Y54121000D01*
X8294260Y54121000D01*
X8360442Y54114482D01*
X8360442Y54114482D01*
G37*
G36*
X60293228Y54078297D02*
X60448100Y54014147D01*
X60587481Y53921015D01*
X60706015Y53802481D01*
X60799147Y53663100D01*
X60863297Y53508228D01*
X60896000Y53343816D01*
X60896000Y53176184D01*
X60863297Y53011772D01*
X60799147Y52856900D01*
X60706015Y52717519D01*
X60587481Y52598985D01*
X60448100Y52505853D01*
X60293228Y52441703D01*
X60128816Y52409000D01*
X59961184Y52409000D01*
X59796772Y52441703D01*
X59641900Y52505853D01*
X59502519Y52598985D01*
X59383985Y52717519D01*
X59290853Y52856900D01*
X59226703Y53011772D01*
X59194000Y53176184D01*
X59194000Y53343816D01*
X59226703Y53508228D01*
X59290853Y53663100D01*
X59383985Y53802481D01*
X59502519Y53921015D01*
X59641900Y54014147D01*
X59796772Y54078297D01*
X59961184Y54111000D01*
X60128816Y54111000D01*
X60293228Y54078297D01*
X60293228Y54078297D01*
G37*
G36*
X15293228Y54078297D02*
X15448100Y54014147D01*
X15587481Y53921015D01*
X15706015Y53802481D01*
X15799147Y53663100D01*
X15863297Y53508228D01*
X15896000Y53343816D01*
X15896000Y53176184D01*
X15863297Y53011772D01*
X15799147Y52856900D01*
X15706015Y52717519D01*
X15587481Y52598985D01*
X15448100Y52505853D01*
X15293228Y52441703D01*
X15128816Y52409000D01*
X14961184Y52409000D01*
X14796772Y52441703D01*
X14641900Y52505853D01*
X14502519Y52598985D01*
X14383985Y52717519D01*
X14290853Y52856900D01*
X14226703Y53011772D01*
X14194000Y53176184D01*
X14194000Y53343816D01*
X14226703Y53508228D01*
X14290853Y53663100D01*
X14383985Y53802481D01*
X14502519Y53921015D01*
X14641900Y54014147D01*
X14796772Y54078297D01*
X14961184Y54111000D01*
X15128816Y54111000D01*
X15293228Y54078297D01*
X15293228Y54078297D01*
G37*
G36*
X9151000Y54859000D02*
X7349000Y54859000D01*
X7349000Y56661000D01*
X9151000Y56661000D01*
X9151000Y54859000D01*
X9151000Y54859000D01*
G37*
G36*
X54151000Y54859000D02*
X52349000Y54859000D01*
X52349000Y56661000D01*
X54151000Y56661000D01*
X54151000Y54859000D01*
X54151000Y54859000D01*
G37*
G36*
X15896000Y54909000D02*
X14194000Y54909000D01*
X14194000Y56611000D01*
X15896000Y56611000D01*
X15896000Y54909000D01*
X15896000Y54909000D01*
G37*
G36*
X60896000Y54909000D02*
X59194000Y54909000D01*
X59194000Y56611000D01*
X60896000Y56611000D01*
X60896000Y54909000D01*
X60896000Y54909000D01*
G37*
G36*
X45537396Y57424454D02*
X45710466Y57352766D01*
X45866230Y57248688D01*
X45998688Y57116230D01*
X46102766Y56960466D01*
X46174454Y56787396D01*
X46211000Y56603667D01*
X46211000Y56416333D01*
X46174454Y56232604D01*
X46102766Y56059534D01*
X45998688Y55903770D01*
X45866230Y55771312D01*
X45710466Y55667234D01*
X45537396Y55595546D01*
X45353667Y55559000D01*
X45166333Y55559000D01*
X44982604Y55595546D01*
X44809534Y55667234D01*
X44653770Y55771312D01*
X44521312Y55903770D01*
X44417234Y56059534D01*
X44345546Y56232604D01*
X44309000Y56416333D01*
X44309000Y56603667D01*
X44345546Y56787396D01*
X44417234Y56960466D01*
X44521312Y57116230D01*
X44653770Y57248688D01*
X44809534Y57352766D01*
X44982604Y57424454D01*
X45166333Y57461000D01*
X45353667Y57461000D01*
X45537396Y57424454D01*
X45537396Y57424454D01*
G37*
G36*
X90537396Y57424454D02*
X90710466Y57352766D01*
X90866230Y57248688D01*
X90998688Y57116230D01*
X91102766Y56960466D01*
X91174454Y56787396D01*
X91211000Y56603667D01*
X91211000Y56416333D01*
X91174454Y56232604D01*
X91102766Y56059534D01*
X90998688Y55903770D01*
X90866230Y55771312D01*
X90710466Y55667234D01*
X90537396Y55595546D01*
X90353667Y55559000D01*
X90166333Y55559000D01*
X89982604Y55595546D01*
X89809534Y55667234D01*
X89653770Y55771312D01*
X89521312Y55903770D01*
X89417234Y56059534D01*
X89345546Y56232604D01*
X89309000Y56416333D01*
X89309000Y56603667D01*
X89345546Y56787396D01*
X89417234Y56960466D01*
X89521312Y57116230D01*
X89653770Y57248688D01*
X89809534Y57352766D01*
X89982604Y57424454D01*
X90166333Y57461000D01*
X90353667Y57461000D01*
X90537396Y57424454D01*
X90537396Y57424454D01*
G37*
G36*
X48751000Y55559000D02*
X46849000Y55559000D01*
X46849000Y57461000D01*
X48751000Y57461000D01*
X48751000Y55559000D01*
X48751000Y55559000D01*
G37*
G36*
X93751000Y55559000D02*
X91849000Y55559000D01*
X91849000Y57461000D01*
X93751000Y57461000D01*
X93751000Y55559000D01*
X93751000Y55559000D01*
G37*
G36*
X72882004Y58989456D02*
X72969059Y58972140D01*
X73105732Y58915528D01*
X73105733Y58915527D01*
X73228738Y58833338D01*
X73333338Y58728738D01*
X73333340Y58728735D01*
X73415528Y58605732D01*
X73472140Y58469059D01*
X73501000Y58323967D01*
X73501000Y58176033D01*
X73472140Y58030941D01*
X73415528Y57894268D01*
X73415527Y57894267D01*
X73333338Y57771262D01*
X73228738Y57666662D01*
X73228735Y57666660D01*
X73105732Y57584472D01*
X72969059Y57527860D01*
X72882004Y57510544D01*
X72823969Y57499000D01*
X72676031Y57499000D01*
X72617996Y57510544D01*
X72530941Y57527860D01*
X72394268Y57584472D01*
X72271265Y57666660D01*
X72271262Y57666662D01*
X72166662Y57771262D01*
X72084473Y57894267D01*
X72084472Y57894268D01*
X72027860Y58030941D01*
X71999000Y58176033D01*
X71999000Y58323967D01*
X72027860Y58469059D01*
X72084472Y58605732D01*
X72166660Y58728735D01*
X72166662Y58728738D01*
X72271262Y58833338D01*
X72394267Y58915527D01*
X72394268Y58915528D01*
X72530941Y58972140D01*
X72617996Y58989456D01*
X72676031Y59001000D01*
X72823969Y59001000D01*
X72882004Y58989456D01*
X72882004Y58989456D01*
G37*
G36*
X27882004Y58989456D02*
X27969059Y58972140D01*
X28105732Y58915528D01*
X28105733Y58915527D01*
X28228738Y58833338D01*
X28333338Y58728738D01*
X28333340Y58728735D01*
X28415528Y58605732D01*
X28472140Y58469059D01*
X28501000Y58323967D01*
X28501000Y58176033D01*
X28472140Y58030941D01*
X28415528Y57894268D01*
X28415527Y57894267D01*
X28333338Y57771262D01*
X28228738Y57666662D01*
X28228735Y57666660D01*
X28105732Y57584472D01*
X27969059Y57527860D01*
X27882004Y57510544D01*
X27823969Y57499000D01*
X27676031Y57499000D01*
X27617996Y57510544D01*
X27530941Y57527860D01*
X27394268Y57584472D01*
X27271265Y57666660D01*
X27271262Y57666662D01*
X27166662Y57771262D01*
X27084473Y57894267D01*
X27084472Y57894268D01*
X27027860Y58030941D01*
X26999000Y58176033D01*
X26999000Y58323967D01*
X27027860Y58469059D01*
X27084472Y58605732D01*
X27166660Y58728735D01*
X27166662Y58728738D01*
X27271262Y58833338D01*
X27394267Y58915527D01*
X27394268Y58915528D01*
X27530941Y58972140D01*
X27617996Y58989456D01*
X27676031Y59001000D01*
X27823969Y59001000D01*
X27882004Y58989456D01*
X27882004Y58989456D01*
G37*
G36*
X33632004Y58989456D02*
X33719059Y58972140D01*
X33855732Y58915528D01*
X33855733Y58915527D01*
X33978738Y58833338D01*
X34083338Y58728738D01*
X34083340Y58728735D01*
X34165528Y58605732D01*
X34222140Y58469059D01*
X34251000Y58323967D01*
X34251000Y58176033D01*
X34222140Y58030941D01*
X34165528Y57894268D01*
X34165527Y57894267D01*
X34083338Y57771262D01*
X33978738Y57666662D01*
X33978735Y57666660D01*
X33855732Y57584472D01*
X33719059Y57527860D01*
X33632004Y57510544D01*
X33573969Y57499000D01*
X33426031Y57499000D01*
X33367996Y57510544D01*
X33280941Y57527860D01*
X33144268Y57584472D01*
X33021265Y57666660D01*
X33021262Y57666662D01*
X32916662Y57771262D01*
X32834473Y57894267D01*
X32834472Y57894268D01*
X32777860Y58030941D01*
X32749000Y58176033D01*
X32749000Y58323967D01*
X32777860Y58469059D01*
X32834472Y58605732D01*
X32916660Y58728735D01*
X32916662Y58728738D01*
X33021262Y58833338D01*
X33144267Y58915527D01*
X33144268Y58915528D01*
X33280941Y58972140D01*
X33367996Y58989456D01*
X33426031Y59001000D01*
X33573969Y59001000D01*
X33632004Y58989456D01*
X33632004Y58989456D01*
G37*
G36*
X67382004Y58989456D02*
X67469059Y58972140D01*
X67605732Y58915528D01*
X67605733Y58915527D01*
X67728738Y58833338D01*
X67833338Y58728738D01*
X67833340Y58728735D01*
X67915528Y58605732D01*
X67972140Y58469059D01*
X68001000Y58323967D01*
X68001000Y58176033D01*
X67972140Y58030941D01*
X67915528Y57894268D01*
X67915527Y57894267D01*
X67833338Y57771262D01*
X67728738Y57666662D01*
X67728735Y57666660D01*
X67605732Y57584472D01*
X67469059Y57527860D01*
X67382004Y57510544D01*
X67323969Y57499000D01*
X67176031Y57499000D01*
X67117996Y57510544D01*
X67030941Y57527860D01*
X66894268Y57584472D01*
X66771265Y57666660D01*
X66771262Y57666662D01*
X66666662Y57771262D01*
X66584473Y57894267D01*
X66584472Y57894268D01*
X66527860Y58030941D01*
X66499000Y58176033D01*
X66499000Y58323967D01*
X66527860Y58469059D01*
X66584472Y58605732D01*
X66666660Y58728735D01*
X66666662Y58728738D01*
X66771262Y58833338D01*
X66894267Y58915527D01*
X66894268Y58915528D01*
X67030941Y58972140D01*
X67117996Y58989456D01*
X67176031Y59001000D01*
X67323969Y59001000D01*
X67382004Y58989456D01*
X67382004Y58989456D01*
G37*
G36*
X78632004Y58989456D02*
X78719059Y58972140D01*
X78855732Y58915528D01*
X78855733Y58915527D01*
X78978738Y58833338D01*
X79083338Y58728738D01*
X79083340Y58728735D01*
X79165528Y58605732D01*
X79222140Y58469059D01*
X79251000Y58323967D01*
X79251000Y58176033D01*
X79222140Y58030941D01*
X79165528Y57894268D01*
X79165527Y57894267D01*
X79083338Y57771262D01*
X78978738Y57666662D01*
X78978735Y57666660D01*
X78855732Y57584472D01*
X78719059Y57527860D01*
X78632004Y57510544D01*
X78573969Y57499000D01*
X78426031Y57499000D01*
X78367996Y57510544D01*
X78280941Y57527860D01*
X78144268Y57584472D01*
X78021265Y57666660D01*
X78021262Y57666662D01*
X77916662Y57771262D01*
X77834473Y57894267D01*
X77834472Y57894268D01*
X77777860Y58030941D01*
X77749000Y58176033D01*
X77749000Y58323967D01*
X77777860Y58469059D01*
X77834472Y58605732D01*
X77916660Y58728735D01*
X77916662Y58728738D01*
X78021262Y58833338D01*
X78144267Y58915527D01*
X78144268Y58915528D01*
X78280941Y58972140D01*
X78367996Y58989456D01*
X78426031Y59001000D01*
X78573969Y59001000D01*
X78632004Y58989456D01*
X78632004Y58989456D01*
G37*
G36*
X22382004Y58989456D02*
X22469059Y58972140D01*
X22605732Y58915528D01*
X22605733Y58915527D01*
X22728738Y58833338D01*
X22833338Y58728738D01*
X22833340Y58728735D01*
X22915528Y58605732D01*
X22972140Y58469059D01*
X23001000Y58323967D01*
X23001000Y58176033D01*
X22972140Y58030941D01*
X22915528Y57894268D01*
X22915527Y57894267D01*
X22833338Y57771262D01*
X22728738Y57666662D01*
X22728735Y57666660D01*
X22605732Y57584472D01*
X22469059Y57527860D01*
X22382004Y57510544D01*
X22323969Y57499000D01*
X22176031Y57499000D01*
X22117996Y57510544D01*
X22030941Y57527860D01*
X21894268Y57584472D01*
X21771265Y57666660D01*
X21771262Y57666662D01*
X21666662Y57771262D01*
X21584473Y57894267D01*
X21584472Y57894268D01*
X21527860Y58030941D01*
X21499000Y58176033D01*
X21499000Y58323967D01*
X21527860Y58469059D01*
X21584472Y58605732D01*
X21666660Y58728735D01*
X21666662Y58728738D01*
X21771262Y58833338D01*
X21894267Y58915527D01*
X21894268Y58915528D01*
X22030941Y58972140D01*
X22117996Y58989456D01*
X22176031Y59001000D01*
X22323969Y59001000D01*
X22382004Y58989456D01*
X22382004Y58989456D01*
G37*
G36*
X57283000Y62782000D02*
X55481000Y62782000D01*
X55481000Y64584000D01*
X57283000Y64584000D01*
X57283000Y62782000D01*
X57283000Y62782000D01*
G37*
G36*
X12283000Y62782000D02*
X10481000Y62782000D01*
X10481000Y64584000D01*
X12283000Y64584000D01*
X12283000Y62782000D01*
X12283000Y62782000D01*
G37*
G36*
X45537396Y64724454D02*
X45710466Y64652766D01*
X45866230Y64548688D01*
X45998688Y64416230D01*
X46102766Y64260466D01*
X46174454Y64087396D01*
X46211000Y63903667D01*
X46211000Y63716333D01*
X46174454Y63532604D01*
X46102766Y63359534D01*
X45998688Y63203770D01*
X45866230Y63071312D01*
X45710466Y62967234D01*
X45537396Y62895546D01*
X45353667Y62859000D01*
X45166333Y62859000D01*
X44982604Y62895546D01*
X44809534Y62967234D01*
X44653770Y63071312D01*
X44521312Y63203770D01*
X44417234Y63359534D01*
X44345546Y63532604D01*
X44309000Y63716333D01*
X44309000Y63903667D01*
X44345546Y64087396D01*
X44417234Y64260466D01*
X44521312Y64416230D01*
X44653770Y64548688D01*
X44809534Y64652766D01*
X44982604Y64724454D01*
X45166333Y64761000D01*
X45353667Y64761000D01*
X45537396Y64724454D01*
X45537396Y64724454D01*
G37*
G36*
X48751000Y62859000D02*
X46849000Y62859000D01*
X46849000Y64761000D01*
X48751000Y64761000D01*
X48751000Y62859000D01*
X48751000Y62859000D01*
G37*
G36*
X93751000Y62859000D02*
X91849000Y62859000D01*
X91849000Y64761000D01*
X93751000Y64761000D01*
X93751000Y62859000D01*
X93751000Y62859000D01*
G37*
G36*
X90537396Y64724454D02*
X90710466Y64652766D01*
X90866230Y64548688D01*
X90998688Y64416230D01*
X91102766Y64260466D01*
X91174454Y64087396D01*
X91211000Y63903667D01*
X91211000Y63716333D01*
X91174454Y63532604D01*
X91102766Y63359534D01*
X90998688Y63203770D01*
X90866230Y63071312D01*
X90710466Y62967234D01*
X90537396Y62895546D01*
X90353667Y62859000D01*
X90166333Y62859000D01*
X89982604Y62895546D01*
X89809534Y62967234D01*
X89653770Y63071312D01*
X89521312Y63203770D01*
X89417234Y63359534D01*
X89345546Y63532604D01*
X89309000Y63716333D01*
X89309000Y63903667D01*
X89345546Y64087396D01*
X89417234Y64260466D01*
X89521312Y64416230D01*
X89653770Y64548688D01*
X89809534Y64652766D01*
X89982604Y64724454D01*
X90166333Y64761000D01*
X90353667Y64761000D01*
X90537396Y64724454D01*
X90537396Y64724454D01*
G37*
G36*
X64351000Y63649000D02*
X62649000Y63649000D01*
X62649000Y65351000D01*
X64351000Y65351000D01*
X64351000Y63649000D01*
X64351000Y63649000D01*
G37*
G36*
X19351000Y63649000D02*
X17649000Y63649000D01*
X17649000Y65351000D01*
X19351000Y65351000D01*
X19351000Y63649000D01*
X19351000Y63649000D01*
G37*
G36*
X66248228Y65318297D02*
X66403100Y65254147D01*
X66542481Y65161015D01*
X66661015Y65042481D01*
X66754147Y64903100D01*
X66818297Y64748228D01*
X66851000Y64583816D01*
X66851000Y64416184D01*
X66818297Y64251772D01*
X66754147Y64096900D01*
X66661015Y63957519D01*
X66542481Y63838985D01*
X66403100Y63745853D01*
X66248228Y63681703D01*
X66083816Y63649000D01*
X65916184Y63649000D01*
X65751772Y63681703D01*
X65596900Y63745853D01*
X65457519Y63838985D01*
X65338985Y63957519D01*
X65245853Y64096900D01*
X65181703Y64251772D01*
X65149000Y64416184D01*
X65149000Y64583816D01*
X65181703Y64748228D01*
X65245853Y64903100D01*
X65338985Y65042481D01*
X65457519Y65161015D01*
X65596900Y65254147D01*
X65751772Y65318297D01*
X65916184Y65351000D01*
X66083816Y65351000D01*
X66248228Y65318297D01*
X66248228Y65318297D01*
G37*
G36*
X21248228Y65318297D02*
X21403100Y65254147D01*
X21542481Y65161015D01*
X21661015Y65042481D01*
X21754147Y64903100D01*
X21818297Y64748228D01*
X21851000Y64583816D01*
X21851000Y64416184D01*
X21818297Y64251772D01*
X21754147Y64096900D01*
X21661015Y63957519D01*
X21542481Y63838985D01*
X21403100Y63745853D01*
X21248228Y63681703D01*
X21083816Y63649000D01*
X20916184Y63649000D01*
X20751772Y63681703D01*
X20596900Y63745853D01*
X20457519Y63838985D01*
X20338985Y63957519D01*
X20245853Y64096900D01*
X20181703Y64251772D01*
X20149000Y64416184D01*
X20149000Y64583816D01*
X20181703Y64748228D01*
X20245853Y64903100D01*
X20338985Y65042481D01*
X20457519Y65161015D01*
X20596900Y65254147D01*
X20751772Y65318297D01*
X20916184Y65351000D01*
X21083816Y65351000D01*
X21248228Y65318297D01*
X21248228Y65318297D01*
G37*
G36*
X85801000Y63779000D02*
X84199000Y63779000D01*
X84199000Y65381000D01*
X85801000Y65381000D01*
X85801000Y63779000D01*
X85801000Y63779000D01*
G37*
G36*
X40801000Y63779000D02*
X39199000Y63779000D01*
X39199000Y65381000D01*
X40801000Y65381000D01*
X40801000Y63779000D01*
X40801000Y63779000D01*
G37*
G36*
X80153643Y65350219D02*
X80299415Y65289838D01*
X80430611Y65202176D01*
X80542176Y65090611D01*
X80629838Y64959415D01*
X80690219Y64813643D01*
X80721000Y64658893D01*
X80721000Y64501107D01*
X80690219Y64346357D01*
X80629838Y64200585D01*
X80542176Y64069389D01*
X80430611Y63957824D01*
X80299415Y63870162D01*
X80153643Y63809781D01*
X79998893Y63779000D01*
X79841107Y63779000D01*
X79686357Y63809781D01*
X79540585Y63870162D01*
X79409389Y63957824D01*
X79297824Y64069389D01*
X79210162Y64200585D01*
X79149781Y64346357D01*
X79119000Y64501107D01*
X79119000Y64658893D01*
X79149781Y64813643D01*
X79210162Y64959415D01*
X79297824Y65090611D01*
X79409389Y65202176D01*
X79540585Y65289838D01*
X79686357Y65350219D01*
X79841107Y65381000D01*
X79998893Y65381000D01*
X80153643Y65350219D01*
X80153643Y65350219D01*
G37*
G36*
X28518643Y65350219D02*
X28664415Y65289838D01*
X28795611Y65202176D01*
X28907176Y65090611D01*
X28994838Y64959415D01*
X29055219Y64813643D01*
X29086000Y64658893D01*
X29086000Y64501107D01*
X29055219Y64346357D01*
X28994838Y64200585D01*
X28907176Y64069389D01*
X28795611Y63957824D01*
X28664415Y63870162D01*
X28518643Y63809781D01*
X28363893Y63779000D01*
X28206107Y63779000D01*
X28051357Y63809781D01*
X27905585Y63870162D01*
X27774389Y63957824D01*
X27662824Y64069389D01*
X27575162Y64200585D01*
X27514781Y64346357D01*
X27484000Y64501107D01*
X27484000Y64658893D01*
X27514781Y64813643D01*
X27575162Y64959415D01*
X27662824Y65090611D01*
X27774389Y65202176D01*
X27905585Y65289838D01*
X28051357Y65350219D01*
X28206107Y65381000D01*
X28363893Y65381000D01*
X28518643Y65350219D01*
X28518643Y65350219D01*
G37*
G36*
X25978643Y65350219D02*
X26124415Y65289838D01*
X26255611Y65202176D01*
X26367176Y65090611D01*
X26454838Y64959415D01*
X26515219Y64813643D01*
X26546000Y64658893D01*
X26546000Y64501107D01*
X26515219Y64346357D01*
X26454838Y64200585D01*
X26367176Y64069389D01*
X26255611Y63957824D01*
X26124415Y63870162D01*
X25978643Y63809781D01*
X25823893Y63779000D01*
X25666107Y63779000D01*
X25511357Y63809781D01*
X25365585Y63870162D01*
X25234389Y63957824D01*
X25122824Y64069389D01*
X25035162Y64200585D01*
X24974781Y64346357D01*
X24944000Y64501107D01*
X24944000Y64658893D01*
X24974781Y64813643D01*
X25035162Y64959415D01*
X25122824Y65090611D01*
X25234389Y65202176D01*
X25365585Y65289838D01*
X25511357Y65350219D01*
X25666107Y65381000D01*
X25823893Y65381000D01*
X25978643Y65350219D01*
X25978643Y65350219D01*
G37*
G36*
X31626000Y63779000D02*
X30024000Y63779000D01*
X30024000Y65381000D01*
X31626000Y65381000D01*
X31626000Y63779000D01*
X31626000Y63779000D01*
G37*
G36*
X82693643Y65350219D02*
X82839415Y65289838D01*
X82970611Y65202176D01*
X83082176Y65090611D01*
X83169838Y64959415D01*
X83230219Y64813643D01*
X83261000Y64658893D01*
X83261000Y64501107D01*
X83230219Y64346357D01*
X83169838Y64200585D01*
X83082176Y64069389D01*
X82970611Y63957824D01*
X82839415Y63870162D01*
X82693643Y63809781D01*
X82538893Y63779000D01*
X82381107Y63779000D01*
X82226357Y63809781D01*
X82080585Y63870162D01*
X81949389Y63957824D01*
X81837824Y64069389D01*
X81750162Y64200585D01*
X81689781Y64346357D01*
X81659000Y64501107D01*
X81659000Y64658893D01*
X81689781Y64813643D01*
X81750162Y64959415D01*
X81837824Y65090611D01*
X81949389Y65202176D01*
X82080585Y65289838D01*
X82226357Y65350219D01*
X82381107Y65381000D01*
X82538893Y65381000D01*
X82693643Y65350219D01*
X82693643Y65350219D01*
G37*
G36*
X37693643Y65350219D02*
X37839415Y65289838D01*
X37970611Y65202176D01*
X38082176Y65090611D01*
X38169838Y64959415D01*
X38230219Y64813643D01*
X38261000Y64658893D01*
X38261000Y64501107D01*
X38230219Y64346357D01*
X38169838Y64200585D01*
X38082176Y64069389D01*
X37970611Y63957824D01*
X37839415Y63870162D01*
X37693643Y63809781D01*
X37538893Y63779000D01*
X37381107Y63779000D01*
X37226357Y63809781D01*
X37080585Y63870162D01*
X36949389Y63957824D01*
X36837824Y64069389D01*
X36750162Y64200585D01*
X36689781Y64346357D01*
X36659000Y64501107D01*
X36659000Y64658893D01*
X36689781Y64813643D01*
X36750162Y64959415D01*
X36837824Y65090611D01*
X36949389Y65202176D01*
X37080585Y65289838D01*
X37226357Y65350219D01*
X37381107Y65381000D01*
X37538893Y65381000D01*
X37693643Y65350219D01*
X37693643Y65350219D01*
G37*
G36*
X35153643Y65350219D02*
X35299415Y65289838D01*
X35430611Y65202176D01*
X35542176Y65090611D01*
X35629838Y64959415D01*
X35690219Y64813643D01*
X35721000Y64658893D01*
X35721000Y64501107D01*
X35690219Y64346357D01*
X35629838Y64200585D01*
X35542176Y64069389D01*
X35430611Y63957824D01*
X35299415Y63870162D01*
X35153643Y63809781D01*
X34998893Y63779000D01*
X34841107Y63779000D01*
X34686357Y63809781D01*
X34540585Y63870162D01*
X34409389Y63957824D01*
X34297824Y64069389D01*
X34210162Y64200585D01*
X34149781Y64346357D01*
X34119000Y64501107D01*
X34119000Y64658893D01*
X34149781Y64813643D01*
X34210162Y64959415D01*
X34297824Y65090611D01*
X34409389Y65202176D01*
X34540585Y65289838D01*
X34686357Y65350219D01*
X34841107Y65381000D01*
X34998893Y65381000D01*
X35153643Y65350219D01*
X35153643Y65350219D01*
G37*
G36*
X76626000Y63779000D02*
X75024000Y63779000D01*
X75024000Y65381000D01*
X76626000Y65381000D01*
X76626000Y63779000D01*
X76626000Y63779000D01*
G37*
G36*
X70978643Y65350219D02*
X71124415Y65289838D01*
X71255611Y65202176D01*
X71367176Y65090611D01*
X71454838Y64959415D01*
X71515219Y64813643D01*
X71546000Y64658893D01*
X71546000Y64501107D01*
X71515219Y64346357D01*
X71454838Y64200585D01*
X71367176Y64069389D01*
X71255611Y63957824D01*
X71124415Y63870162D01*
X70978643Y63809781D01*
X70823893Y63779000D01*
X70666107Y63779000D01*
X70511357Y63809781D01*
X70365585Y63870162D01*
X70234389Y63957824D01*
X70122824Y64069389D01*
X70035162Y64200585D01*
X69974781Y64346357D01*
X69944000Y64501107D01*
X69944000Y64658893D01*
X69974781Y64813643D01*
X70035162Y64959415D01*
X70122824Y65090611D01*
X70234389Y65202176D01*
X70365585Y65289838D01*
X70511357Y65350219D01*
X70666107Y65381000D01*
X70823893Y65381000D01*
X70978643Y65350219D01*
X70978643Y65350219D01*
G37*
G36*
X73518643Y65350219D02*
X73664415Y65289838D01*
X73795611Y65202176D01*
X73907176Y65090611D01*
X73994838Y64959415D01*
X74055219Y64813643D01*
X74086000Y64658893D01*
X74086000Y64501107D01*
X74055219Y64346357D01*
X73994838Y64200585D01*
X73907176Y64069389D01*
X73795611Y63957824D01*
X73664415Y63870162D01*
X73518643Y63809781D01*
X73363893Y63779000D01*
X73206107Y63779000D01*
X73051357Y63809781D01*
X72905585Y63870162D01*
X72774389Y63957824D01*
X72662824Y64069389D01*
X72575162Y64200585D01*
X72514781Y64346357D01*
X72484000Y64501107D01*
X72484000Y64658893D01*
X72514781Y64813643D01*
X72575162Y64959415D01*
X72662824Y65090611D01*
X72774389Y65202176D01*
X72905585Y65289838D01*
X73051357Y65350219D01*
X73206107Y65381000D01*
X73363893Y65381000D01*
X73518643Y65350219D01*
X73518643Y65350219D01*
G37*
G36*
X56492442Y67117482D02*
X56558627Y67110963D01*
X56671853Y67076616D01*
X56728467Y67059443D01*
X56867087Y66985348D01*
X56884991Y66975778D01*
X56920729Y66946448D01*
X57022186Y66863186D01*
X57105448Y66761729D01*
X57134778Y66725991D01*
X57134779Y66725989D01*
X57218443Y66569467D01*
X57218443Y66569466D01*
X57269963Y66399627D01*
X57287359Y66223000D01*
X57269963Y66046373D01*
X57235616Y65933147D01*
X57218443Y65876533D01*
X57144348Y65737913D01*
X57134778Y65720009D01*
X57105448Y65684271D01*
X57022186Y65582814D01*
X56920729Y65499552D01*
X56884991Y65470222D01*
X56884989Y65470221D01*
X56728467Y65386557D01*
X56671853Y65369384D01*
X56558627Y65335037D01*
X56492442Y65328518D01*
X56426260Y65322000D01*
X56337740Y65322000D01*
X56271558Y65328518D01*
X56205373Y65335037D01*
X56092147Y65369384D01*
X56035533Y65386557D01*
X55879011Y65470221D01*
X55879009Y65470222D01*
X55843271Y65499552D01*
X55741814Y65582814D01*
X55658552Y65684271D01*
X55629222Y65720009D01*
X55619652Y65737913D01*
X55545557Y65876533D01*
X55528384Y65933147D01*
X55494037Y66046373D01*
X55476641Y66223000D01*
X55494037Y66399627D01*
X55545557Y66569466D01*
X55545557Y66569467D01*
X55629221Y66725989D01*
X55629222Y66725991D01*
X55658552Y66761729D01*
X55741814Y66863186D01*
X55843271Y66946448D01*
X55879009Y66975778D01*
X55896913Y66985348D01*
X56035533Y67059443D01*
X56092147Y67076616D01*
X56205373Y67110963D01*
X56271558Y67117482D01*
X56337740Y67124000D01*
X56426260Y67124000D01*
X56492442Y67117482D01*
X56492442Y67117482D01*
G37*
G36*
X11492442Y67117482D02*
X11558627Y67110963D01*
X11671853Y67076616D01*
X11728467Y67059443D01*
X11867087Y66985348D01*
X11884991Y66975778D01*
X11920729Y66946448D01*
X12022186Y66863186D01*
X12105448Y66761729D01*
X12134778Y66725991D01*
X12134779Y66725989D01*
X12218443Y66569467D01*
X12218443Y66569466D01*
X12269963Y66399627D01*
X12287359Y66223000D01*
X12269963Y66046373D01*
X12235616Y65933147D01*
X12218443Y65876533D01*
X12144348Y65737913D01*
X12134778Y65720009D01*
X12105448Y65684271D01*
X12022186Y65582814D01*
X11920729Y65499552D01*
X11884991Y65470222D01*
X11884989Y65470221D01*
X11728467Y65386557D01*
X11671853Y65369384D01*
X11558627Y65335037D01*
X11492442Y65328518D01*
X11426260Y65322000D01*
X11337740Y65322000D01*
X11271558Y65328518D01*
X11205373Y65335037D01*
X11092147Y65369384D01*
X11035533Y65386557D01*
X10879011Y65470221D01*
X10879009Y65470222D01*
X10843271Y65499552D01*
X10741814Y65582814D01*
X10658552Y65684271D01*
X10629222Y65720009D01*
X10619652Y65737913D01*
X10545557Y65876533D01*
X10528384Y65933147D01*
X10494037Y66046373D01*
X10476641Y66223000D01*
X10494037Y66399627D01*
X10545557Y66569466D01*
X10545557Y66569467D01*
X10629221Y66725989D01*
X10629222Y66725991D01*
X10658552Y66761729D01*
X10741814Y66863186D01*
X10843271Y66946448D01*
X10879009Y66975778D01*
X10896913Y66985348D01*
X11035533Y67059443D01*
X11092147Y67076616D01*
X11205373Y67110963D01*
X11271558Y67117482D01*
X11337740Y67124000D01*
X11426260Y67124000D01*
X11492442Y67117482D01*
X11492442Y67117482D01*
G37*
G36*
X45537396Y71074454D02*
X45710466Y71002766D01*
X45866230Y70898688D01*
X45998688Y70766230D01*
X46102766Y70610466D01*
X46174454Y70437396D01*
X46211000Y70253667D01*
X46211000Y70066333D01*
X46174454Y69882604D01*
X46102766Y69709534D01*
X45998688Y69553770D01*
X45866230Y69421312D01*
X45710466Y69317234D01*
X45537396Y69245546D01*
X45353667Y69209000D01*
X45166333Y69209000D01*
X44982604Y69245546D01*
X44809534Y69317234D01*
X44653770Y69421312D01*
X44521312Y69553770D01*
X44417234Y69709534D01*
X44345546Y69882604D01*
X44309000Y70066333D01*
X44309000Y70253667D01*
X44345546Y70437396D01*
X44417234Y70610466D01*
X44521312Y70766230D01*
X44653770Y70898688D01*
X44809534Y71002766D01*
X44982604Y71074454D01*
X45166333Y71111000D01*
X45353667Y71111000D01*
X45537396Y71074454D01*
X45537396Y71074454D01*
G37*
G36*
X48751000Y69209000D02*
X46849000Y69209000D01*
X46849000Y71111000D01*
X48751000Y71111000D01*
X48751000Y69209000D01*
X48751000Y69209000D01*
G37*
G36*
X93751000Y69209000D02*
X91849000Y69209000D01*
X91849000Y71111000D01*
X93751000Y71111000D01*
X93751000Y69209000D01*
X93751000Y69209000D01*
G37*
G36*
X90537396Y71074454D02*
X90710466Y71002766D01*
X90866230Y70898688D01*
X90998688Y70766230D01*
X91102766Y70610466D01*
X91174454Y70437396D01*
X91211000Y70253667D01*
X91211000Y70066333D01*
X91174454Y69882604D01*
X91102766Y69709534D01*
X90998688Y69553770D01*
X90866230Y69421312D01*
X90710466Y69317234D01*
X90537396Y69245546D01*
X90353667Y69209000D01*
X90166333Y69209000D01*
X89982604Y69245546D01*
X89809534Y69317234D01*
X89653770Y69421312D01*
X89521312Y69553770D01*
X89417234Y69709534D01*
X89345546Y69882604D01*
X89309000Y70066333D01*
X89309000Y70253667D01*
X89345546Y70437396D01*
X89417234Y70610466D01*
X89521312Y70766230D01*
X89653770Y70898688D01*
X89809534Y71002766D01*
X89982604Y71074454D01*
X90166333Y71111000D01*
X90353667Y71111000D01*
X90537396Y71074454D01*
X90537396Y71074454D01*
G37*
G36*
X67323665Y71377378D02*
X67397222Y71370133D01*
X67538786Y71327190D01*
X67669252Y71257454D01*
X67783606Y71163606D01*
X67877454Y71049252D01*
X67947190Y70918786D01*
X67990133Y70777222D01*
X68004633Y70630000D01*
X67990133Y70482778D01*
X67947190Y70341214D01*
X67877454Y70210748D01*
X67783606Y70096394D01*
X67669252Y70002546D01*
X67538786Y69932810D01*
X67397222Y69889867D01*
X67323665Y69882622D01*
X67286888Y69879000D01*
X67213112Y69879000D01*
X67176335Y69882622D01*
X67102778Y69889867D01*
X66961214Y69932810D01*
X66830748Y70002546D01*
X66716394Y70096394D01*
X66622546Y70210748D01*
X66552810Y70341214D01*
X66509867Y70482778D01*
X66495367Y70630000D01*
X66509867Y70777222D01*
X66552810Y70918786D01*
X66622546Y71049252D01*
X66716394Y71163606D01*
X66830748Y71257454D01*
X66961214Y71327190D01*
X67102778Y71370133D01*
X67176335Y71377378D01*
X67213112Y71381000D01*
X67286888Y71381000D01*
X67323665Y71377378D01*
X67323665Y71377378D01*
G37*
G36*
X27823665Y71377378D02*
X27897222Y71370133D01*
X28038786Y71327190D01*
X28169252Y71257454D01*
X28283606Y71163606D01*
X28377454Y71049252D01*
X28447190Y70918786D01*
X28490133Y70777222D01*
X28504633Y70630000D01*
X28490133Y70482778D01*
X28447190Y70341214D01*
X28377454Y70210748D01*
X28283606Y70096394D01*
X28169252Y70002546D01*
X28038786Y69932810D01*
X27897222Y69889867D01*
X27823665Y69882622D01*
X27786888Y69879000D01*
X27713112Y69879000D01*
X27676335Y69882622D01*
X27602778Y69889867D01*
X27461214Y69932810D01*
X27330748Y70002546D01*
X27216394Y70096394D01*
X27122546Y70210748D01*
X27052810Y70341214D01*
X27009867Y70482778D01*
X26995367Y70630000D01*
X27009867Y70777222D01*
X27052810Y70918786D01*
X27122546Y71049252D01*
X27216394Y71163606D01*
X27330748Y71257454D01*
X27461214Y71327190D01*
X27602778Y71370133D01*
X27676335Y71377378D01*
X27713112Y71381000D01*
X27786888Y71381000D01*
X27823665Y71377378D01*
X27823665Y71377378D01*
G37*
G36*
X33573665Y71377378D02*
X33647222Y71370133D01*
X33788786Y71327190D01*
X33919252Y71257454D01*
X34033606Y71163606D01*
X34127454Y71049252D01*
X34197190Y70918786D01*
X34240133Y70777222D01*
X34254633Y70630000D01*
X34240133Y70482778D01*
X34197190Y70341214D01*
X34127454Y70210748D01*
X34033606Y70096394D01*
X33919252Y70002546D01*
X33788786Y69932810D01*
X33647222Y69889867D01*
X33573665Y69882622D01*
X33536888Y69879000D01*
X33463112Y69879000D01*
X33426335Y69882622D01*
X33352778Y69889867D01*
X33211214Y69932810D01*
X33080748Y70002546D01*
X32966394Y70096394D01*
X32872546Y70210748D01*
X32802810Y70341214D01*
X32759867Y70482778D01*
X32745367Y70630000D01*
X32759867Y70777222D01*
X32802810Y70918786D01*
X32872546Y71049252D01*
X32966394Y71163606D01*
X33080748Y71257454D01*
X33211214Y71327190D01*
X33352778Y71370133D01*
X33426335Y71377378D01*
X33463112Y71381000D01*
X33536888Y71381000D01*
X33573665Y71377378D01*
X33573665Y71377378D01*
G37*
G36*
X78573665Y71377378D02*
X78647222Y71370133D01*
X78788786Y71327190D01*
X78919252Y71257454D01*
X79033606Y71163606D01*
X79127454Y71049252D01*
X79197190Y70918786D01*
X79240133Y70777222D01*
X79254633Y70630000D01*
X79240133Y70482778D01*
X79197190Y70341214D01*
X79127454Y70210748D01*
X79033606Y70096394D01*
X78919252Y70002546D01*
X78788786Y69932810D01*
X78647222Y69889867D01*
X78573665Y69882622D01*
X78536888Y69879000D01*
X78463112Y69879000D01*
X78426335Y69882622D01*
X78352778Y69889867D01*
X78211214Y69932810D01*
X78080748Y70002546D01*
X77966394Y70096394D01*
X77872546Y70210748D01*
X77802810Y70341214D01*
X77759867Y70482778D01*
X77745367Y70630000D01*
X77759867Y70777222D01*
X77802810Y70918786D01*
X77872546Y71049252D01*
X77966394Y71163606D01*
X78080748Y71257454D01*
X78211214Y71327190D01*
X78352778Y71370133D01*
X78426335Y71377378D01*
X78463112Y71381000D01*
X78536888Y71381000D01*
X78573665Y71377378D01*
X78573665Y71377378D01*
G37*
G36*
X72823665Y71377378D02*
X72897222Y71370133D01*
X73038786Y71327190D01*
X73169252Y71257454D01*
X73283606Y71163606D01*
X73377454Y71049252D01*
X73447190Y70918786D01*
X73490133Y70777222D01*
X73504633Y70630000D01*
X73490133Y70482778D01*
X73447190Y70341214D01*
X73377454Y70210748D01*
X73283606Y70096394D01*
X73169252Y70002546D01*
X73038786Y69932810D01*
X72897222Y69889867D01*
X72823665Y69882622D01*
X72786888Y69879000D01*
X72713112Y69879000D01*
X72676335Y69882622D01*
X72602778Y69889867D01*
X72461214Y69932810D01*
X72330748Y70002546D01*
X72216394Y70096394D01*
X72122546Y70210748D01*
X72052810Y70341214D01*
X72009867Y70482778D01*
X71995367Y70630000D01*
X72009867Y70777222D01*
X72052810Y70918786D01*
X72122546Y71049252D01*
X72216394Y71163606D01*
X72330748Y71257454D01*
X72461214Y71327190D01*
X72602778Y71370133D01*
X72676335Y71377378D01*
X72713112Y71381000D01*
X72786888Y71381000D01*
X72823665Y71377378D01*
X72823665Y71377378D01*
G37*
G36*
X22323665Y71377378D02*
X22397222Y71370133D01*
X22538786Y71327190D01*
X22669252Y71257454D01*
X22783606Y71163606D01*
X22877454Y71049252D01*
X22947190Y70918786D01*
X22990133Y70777222D01*
X23004633Y70630000D01*
X22990133Y70482778D01*
X22947190Y70341214D01*
X22877454Y70210748D01*
X22783606Y70096394D01*
X22669252Y70002546D01*
X22538786Y69932810D01*
X22397222Y69889867D01*
X22323665Y69882622D01*
X22286888Y69879000D01*
X22213112Y69879000D01*
X22176335Y69882622D01*
X22102778Y69889867D01*
X21961214Y69932810D01*
X21830748Y70002546D01*
X21716394Y70096394D01*
X21622546Y70210748D01*
X21552810Y70341214D01*
X21509867Y70482778D01*
X21495367Y70630000D01*
X21509867Y70777222D01*
X21552810Y70918786D01*
X21622546Y71049252D01*
X21716394Y71163606D01*
X21830748Y71257454D01*
X21961214Y71327190D01*
X22102778Y71370133D01*
X22176335Y71377378D01*
X22213112Y71381000D01*
X22286888Y71381000D01*
X22323665Y71377378D01*
X22323665Y71377378D01*
G37*
G36*
X8360443Y74114481D02*
X8426627Y74107963D01*
X8524423Y74078297D01*
X8596467Y74056443D01*
X8675596Y74014147D01*
X8752991Y73972778D01*
X8788729Y73943448D01*
X8890186Y73860186D01*
X8973448Y73758729D01*
X9002778Y73722991D01*
X9002779Y73722989D01*
X9086443Y73566467D01*
X9086443Y73566466D01*
X9137963Y73396627D01*
X9155359Y73220000D01*
X9137963Y73043373D01*
X9128377Y73011772D01*
X9086443Y72873533D01*
X9077552Y72856900D01*
X9002778Y72717009D01*
X8973448Y72681271D01*
X8890186Y72579814D01*
X8800064Y72505854D01*
X8752991Y72467222D01*
X8752989Y72467221D01*
X8596467Y72383557D01*
X8539853Y72366384D01*
X8426627Y72332037D01*
X8360443Y72325519D01*
X8294260Y72319000D01*
X8205740Y72319000D01*
X8139557Y72325519D01*
X8073373Y72332037D01*
X7960147Y72366384D01*
X7903533Y72383557D01*
X7747011Y72467221D01*
X7747009Y72467222D01*
X7699936Y72505854D01*
X7609814Y72579814D01*
X7526552Y72681271D01*
X7497222Y72717009D01*
X7422448Y72856900D01*
X7413557Y72873533D01*
X7371623Y73011772D01*
X7362037Y73043373D01*
X7344641Y73220000D01*
X7362037Y73396627D01*
X7413557Y73566466D01*
X7413557Y73566467D01*
X7497221Y73722989D01*
X7497222Y73722991D01*
X7526552Y73758729D01*
X7609814Y73860186D01*
X7711271Y73943448D01*
X7747009Y73972778D01*
X7824404Y74014147D01*
X7903533Y74056443D01*
X7975577Y74078297D01*
X8073373Y74107963D01*
X8139557Y74114481D01*
X8205740Y74121000D01*
X8294260Y74121000D01*
X8360443Y74114481D01*
X8360443Y74114481D01*
G37*
G36*
X53360443Y74114481D02*
X53426627Y74107963D01*
X53524423Y74078297D01*
X53596467Y74056443D01*
X53675596Y74014147D01*
X53752991Y73972778D01*
X53788729Y73943448D01*
X53890186Y73860186D01*
X53973448Y73758729D01*
X54002778Y73722991D01*
X54002779Y73722989D01*
X54086443Y73566467D01*
X54086443Y73566466D01*
X54137963Y73396627D01*
X54155359Y73220000D01*
X54137963Y73043373D01*
X54128377Y73011772D01*
X54086443Y72873533D01*
X54077552Y72856900D01*
X54002778Y72717009D01*
X53973448Y72681271D01*
X53890186Y72579814D01*
X53800064Y72505854D01*
X53752991Y72467222D01*
X53752989Y72467221D01*
X53596467Y72383557D01*
X53539853Y72366384D01*
X53426627Y72332037D01*
X53360443Y72325519D01*
X53294260Y72319000D01*
X53205740Y72319000D01*
X53139557Y72325519D01*
X53073373Y72332037D01*
X52960147Y72366384D01*
X52903533Y72383557D01*
X52747011Y72467221D01*
X52747009Y72467222D01*
X52699936Y72505854D01*
X52609814Y72579814D01*
X52526552Y72681271D01*
X52497222Y72717009D01*
X52422448Y72856900D01*
X52413557Y72873533D01*
X52371623Y73011772D01*
X52362037Y73043373D01*
X52344641Y73220000D01*
X52362037Y73396627D01*
X52413557Y73566466D01*
X52413557Y73566467D01*
X52497221Y73722989D01*
X52497222Y73722991D01*
X52526552Y73758729D01*
X52609814Y73860186D01*
X52711271Y73943448D01*
X52747009Y73972778D01*
X52824404Y74014147D01*
X52903533Y74056443D01*
X52975577Y74078297D01*
X53073373Y74107963D01*
X53139557Y74114481D01*
X53205740Y74121000D01*
X53294260Y74121000D01*
X53360443Y74114481D01*
X53360443Y74114481D01*
G37*
G36*
X15293228Y74078297D02*
X15448100Y74014147D01*
X15587481Y73921015D01*
X15706015Y73802481D01*
X15799147Y73663100D01*
X15863297Y73508228D01*
X15896000Y73343816D01*
X15896000Y73176184D01*
X15863297Y73011772D01*
X15799147Y72856900D01*
X15706015Y72717519D01*
X15587481Y72598985D01*
X15448100Y72505853D01*
X15293228Y72441703D01*
X15128816Y72409000D01*
X14961184Y72409000D01*
X14796772Y72441703D01*
X14641900Y72505853D01*
X14502519Y72598985D01*
X14383985Y72717519D01*
X14290853Y72856900D01*
X14226703Y73011772D01*
X14194000Y73176184D01*
X14194000Y73343816D01*
X14226703Y73508228D01*
X14290853Y73663100D01*
X14383985Y73802481D01*
X14502519Y73921015D01*
X14641900Y74014147D01*
X14796772Y74078297D01*
X14961184Y74111000D01*
X15128816Y74111000D01*
X15293228Y74078297D01*
X15293228Y74078297D01*
G37*
G36*
X60293228Y74078297D02*
X60448100Y74014147D01*
X60587481Y73921015D01*
X60706015Y73802481D01*
X60799147Y73663100D01*
X60863297Y73508228D01*
X60896000Y73343816D01*
X60896000Y73176184D01*
X60863297Y73011772D01*
X60799147Y72856900D01*
X60706015Y72717519D01*
X60587481Y72598985D01*
X60448100Y72505853D01*
X60293228Y72441703D01*
X60128816Y72409000D01*
X59961184Y72409000D01*
X59796772Y72441703D01*
X59641900Y72505853D01*
X59502519Y72598985D01*
X59383985Y72717519D01*
X59290853Y72856900D01*
X59226703Y73011772D01*
X59194000Y73176184D01*
X59194000Y73343816D01*
X59226703Y73508228D01*
X59290853Y73663100D01*
X59383985Y73802481D01*
X59502519Y73921015D01*
X59641900Y74014147D01*
X59796772Y74078297D01*
X59961184Y74111000D01*
X60128816Y74111000D01*
X60293228Y74078297D01*
X60293228Y74078297D01*
G37*
G36*
X9151000Y74859000D02*
X7349000Y74859000D01*
X7349000Y76661000D01*
X9151000Y76661000D01*
X9151000Y74859000D01*
X9151000Y74859000D01*
G37*
G36*
X54151000Y74859000D02*
X52349000Y74859000D01*
X52349000Y76661000D01*
X54151000Y76661000D01*
X54151000Y74859000D01*
X54151000Y74859000D01*
G37*
G36*
X60896000Y74909000D02*
X59194000Y74909000D01*
X59194000Y76611000D01*
X60896000Y76611000D01*
X60896000Y74909000D01*
X60896000Y74909000D01*
G37*
G36*
X15896000Y74909000D02*
X14194000Y74909000D01*
X14194000Y76611000D01*
X15896000Y76611000D01*
X15896000Y74909000D01*
X15896000Y74909000D01*
G37*
G36*
X93751000Y75559000D02*
X91849000Y75559000D01*
X91849000Y77461000D01*
X93751000Y77461000D01*
X93751000Y75559000D01*
X93751000Y75559000D01*
G37*
G36*
X45537396Y77424454D02*
X45710466Y77352766D01*
X45866230Y77248688D01*
X45998688Y77116230D01*
X46102766Y76960466D01*
X46174454Y76787396D01*
X46211000Y76603667D01*
X46211000Y76416333D01*
X46174454Y76232604D01*
X46102766Y76059534D01*
X45998688Y75903770D01*
X45866230Y75771312D01*
X45710466Y75667234D01*
X45537396Y75595546D01*
X45353667Y75559000D01*
X45166333Y75559000D01*
X44982604Y75595546D01*
X44809534Y75667234D01*
X44653770Y75771312D01*
X44521312Y75903770D01*
X44417234Y76059534D01*
X44345546Y76232604D01*
X44309000Y76416333D01*
X44309000Y76603667D01*
X44345546Y76787396D01*
X44417234Y76960466D01*
X44521312Y77116230D01*
X44653770Y77248688D01*
X44809534Y77352766D01*
X44982604Y77424454D01*
X45166333Y77461000D01*
X45353667Y77461000D01*
X45537396Y77424454D01*
X45537396Y77424454D01*
G37*
G36*
X90537396Y77424454D02*
X90710466Y77352766D01*
X90866230Y77248688D01*
X90998688Y77116230D01*
X91102766Y76960466D01*
X91174454Y76787396D01*
X91211000Y76603667D01*
X91211000Y76416333D01*
X91174454Y76232604D01*
X91102766Y76059534D01*
X90998688Y75903770D01*
X90866230Y75771312D01*
X90710466Y75667234D01*
X90537396Y75595546D01*
X90353667Y75559000D01*
X90166333Y75559000D01*
X89982604Y75595546D01*
X89809534Y75667234D01*
X89653770Y75771312D01*
X89521312Y75903770D01*
X89417234Y76059534D01*
X89345546Y76232604D01*
X89309000Y76416333D01*
X89309000Y76603667D01*
X89345546Y76787396D01*
X89417234Y76960466D01*
X89521312Y77116230D01*
X89653770Y77248688D01*
X89809534Y77352766D01*
X89982604Y77424454D01*
X90166333Y77461000D01*
X90353667Y77461000D01*
X90537396Y77424454D01*
X90537396Y77424454D01*
G37*
G36*
X48751000Y75559000D02*
X46849000Y75559000D01*
X46849000Y77461000D01*
X48751000Y77461000D01*
X48751000Y75559000D01*
X48751000Y75559000D01*
G37*
G36*
X72882004Y78989456D02*
X72969059Y78972140D01*
X73105732Y78915528D01*
X73105733Y78915527D01*
X73228738Y78833338D01*
X73333338Y78728738D01*
X73333340Y78728735D01*
X73415528Y78605732D01*
X73472140Y78469059D01*
X73501000Y78323967D01*
X73501000Y78176033D01*
X73472140Y78030941D01*
X73415528Y77894268D01*
X73415527Y77894267D01*
X73333338Y77771262D01*
X73228738Y77666662D01*
X73228735Y77666660D01*
X73105732Y77584472D01*
X72969059Y77527860D01*
X72882004Y77510544D01*
X72823969Y77499000D01*
X72676031Y77499000D01*
X72617996Y77510544D01*
X72530941Y77527860D01*
X72394268Y77584472D01*
X72271265Y77666660D01*
X72271262Y77666662D01*
X72166662Y77771262D01*
X72084473Y77894267D01*
X72084472Y77894268D01*
X72027860Y78030941D01*
X71999000Y78176033D01*
X71999000Y78323967D01*
X72027860Y78469059D01*
X72084472Y78605732D01*
X72166660Y78728735D01*
X72166662Y78728738D01*
X72271262Y78833338D01*
X72394267Y78915527D01*
X72394268Y78915528D01*
X72530941Y78972140D01*
X72617996Y78989456D01*
X72676031Y79001000D01*
X72823969Y79001000D01*
X72882004Y78989456D01*
X72882004Y78989456D01*
G37*
G36*
X33632004Y78989456D02*
X33719059Y78972140D01*
X33855732Y78915528D01*
X33855733Y78915527D01*
X33978738Y78833338D01*
X34083338Y78728738D01*
X34083340Y78728735D01*
X34165528Y78605732D01*
X34222140Y78469059D01*
X34251000Y78323967D01*
X34251000Y78176033D01*
X34222140Y78030941D01*
X34165528Y77894268D01*
X34165527Y77894267D01*
X34083338Y77771262D01*
X33978738Y77666662D01*
X33978735Y77666660D01*
X33855732Y77584472D01*
X33719059Y77527860D01*
X33632004Y77510544D01*
X33573969Y77499000D01*
X33426031Y77499000D01*
X33367996Y77510544D01*
X33280941Y77527860D01*
X33144268Y77584472D01*
X33021265Y77666660D01*
X33021262Y77666662D01*
X32916662Y77771262D01*
X32834473Y77894267D01*
X32834472Y77894268D01*
X32777860Y78030941D01*
X32749000Y78176033D01*
X32749000Y78323967D01*
X32777860Y78469059D01*
X32834472Y78605732D01*
X32916660Y78728735D01*
X32916662Y78728738D01*
X33021262Y78833338D01*
X33144267Y78915527D01*
X33144268Y78915528D01*
X33280941Y78972140D01*
X33367996Y78989456D01*
X33426031Y79001000D01*
X33573969Y79001000D01*
X33632004Y78989456D01*
X33632004Y78989456D01*
G37*
G36*
X27882004Y78989456D02*
X27969059Y78972140D01*
X28105732Y78915528D01*
X28105733Y78915527D01*
X28228738Y78833338D01*
X28333338Y78728738D01*
X28333340Y78728735D01*
X28415528Y78605732D01*
X28472140Y78469059D01*
X28501000Y78323967D01*
X28501000Y78176033D01*
X28472140Y78030941D01*
X28415528Y77894268D01*
X28415527Y77894267D01*
X28333338Y77771262D01*
X28228738Y77666662D01*
X28228735Y77666660D01*
X28105732Y77584472D01*
X27969059Y77527860D01*
X27882004Y77510544D01*
X27823969Y77499000D01*
X27676031Y77499000D01*
X27617996Y77510544D01*
X27530941Y77527860D01*
X27394268Y77584472D01*
X27271265Y77666660D01*
X27271262Y77666662D01*
X27166662Y77771262D01*
X27084473Y77894267D01*
X27084472Y77894268D01*
X27027860Y78030941D01*
X26999000Y78176033D01*
X26999000Y78323967D01*
X27027860Y78469059D01*
X27084472Y78605732D01*
X27166660Y78728735D01*
X27166662Y78728738D01*
X27271262Y78833338D01*
X27394267Y78915527D01*
X27394268Y78915528D01*
X27530941Y78972140D01*
X27617996Y78989456D01*
X27676031Y79001000D01*
X27823969Y79001000D01*
X27882004Y78989456D01*
X27882004Y78989456D01*
G37*
G36*
X67382004Y78989456D02*
X67469059Y78972140D01*
X67605732Y78915528D01*
X67605733Y78915527D01*
X67728738Y78833338D01*
X67833338Y78728738D01*
X67833340Y78728735D01*
X67915528Y78605732D01*
X67972140Y78469059D01*
X68001000Y78323967D01*
X68001000Y78176033D01*
X67972140Y78030941D01*
X67915528Y77894268D01*
X67915527Y77894267D01*
X67833338Y77771262D01*
X67728738Y77666662D01*
X67728735Y77666660D01*
X67605732Y77584472D01*
X67469059Y77527860D01*
X67382004Y77510544D01*
X67323969Y77499000D01*
X67176031Y77499000D01*
X67117996Y77510544D01*
X67030941Y77527860D01*
X66894268Y77584472D01*
X66771265Y77666660D01*
X66771262Y77666662D01*
X66666662Y77771262D01*
X66584473Y77894267D01*
X66584472Y77894268D01*
X66527860Y78030941D01*
X66499000Y78176033D01*
X66499000Y78323967D01*
X66527860Y78469059D01*
X66584472Y78605732D01*
X66666660Y78728735D01*
X66666662Y78728738D01*
X66771262Y78833338D01*
X66894267Y78915527D01*
X66894268Y78915528D01*
X67030941Y78972140D01*
X67117996Y78989456D01*
X67176031Y79001000D01*
X67323969Y79001000D01*
X67382004Y78989456D01*
X67382004Y78989456D01*
G37*
G36*
X22382004Y78989456D02*
X22469059Y78972140D01*
X22605732Y78915528D01*
X22605733Y78915527D01*
X22728738Y78833338D01*
X22833338Y78728738D01*
X22833340Y78728735D01*
X22915528Y78605732D01*
X22972140Y78469059D01*
X23001000Y78323967D01*
X23001000Y78176033D01*
X22972140Y78030941D01*
X22915528Y77894268D01*
X22915527Y77894267D01*
X22833338Y77771262D01*
X22728738Y77666662D01*
X22728735Y77666660D01*
X22605732Y77584472D01*
X22469059Y77527860D01*
X22382004Y77510544D01*
X22323969Y77499000D01*
X22176031Y77499000D01*
X22117996Y77510544D01*
X22030941Y77527860D01*
X21894268Y77584472D01*
X21771265Y77666660D01*
X21771262Y77666662D01*
X21666662Y77771262D01*
X21584473Y77894267D01*
X21584472Y77894268D01*
X21527860Y78030941D01*
X21499000Y78176033D01*
X21499000Y78323967D01*
X21527860Y78469059D01*
X21584472Y78605732D01*
X21666660Y78728735D01*
X21666662Y78728738D01*
X21771262Y78833338D01*
X21894267Y78915527D01*
X21894268Y78915528D01*
X22030941Y78972140D01*
X22117996Y78989456D01*
X22176031Y79001000D01*
X22323969Y79001000D01*
X22382004Y78989456D01*
X22382004Y78989456D01*
G37*
G36*
X78632004Y78989456D02*
X78719059Y78972140D01*
X78855732Y78915528D01*
X78855733Y78915527D01*
X78978738Y78833338D01*
X79083338Y78728738D01*
X79083340Y78728735D01*
X79165528Y78605732D01*
X79222140Y78469059D01*
X79251000Y78323967D01*
X79251000Y78176033D01*
X79222140Y78030941D01*
X79165528Y77894268D01*
X79165527Y77894267D01*
X79083338Y77771262D01*
X78978738Y77666662D01*
X78978735Y77666660D01*
X78855732Y77584472D01*
X78719059Y77527860D01*
X78632004Y77510544D01*
X78573969Y77499000D01*
X78426031Y77499000D01*
X78367996Y77510544D01*
X78280941Y77527860D01*
X78144268Y77584472D01*
X78021265Y77666660D01*
X78021262Y77666662D01*
X77916662Y77771262D01*
X77834473Y77894267D01*
X77834472Y77894268D01*
X77777860Y78030941D01*
X77749000Y78176033D01*
X77749000Y78323967D01*
X77777860Y78469059D01*
X77834472Y78605732D01*
X77916660Y78728735D01*
X77916662Y78728738D01*
X78021262Y78833338D01*
X78144267Y78915527D01*
X78144268Y78915528D01*
X78280941Y78972140D01*
X78367996Y78989456D01*
X78426031Y79001000D01*
X78573969Y79001000D01*
X78632004Y78989456D01*
X78632004Y78989456D01*
G37*
G36*
X57283000Y82782000D02*
X55481000Y82782000D01*
X55481000Y84584000D01*
X57283000Y84584000D01*
X57283000Y82782000D01*
X57283000Y82782000D01*
G37*
G36*
X12283000Y82782000D02*
X10481000Y82782000D01*
X10481000Y84584000D01*
X12283000Y84584000D01*
X12283000Y82782000D01*
X12283000Y82782000D01*
G37*
G36*
X93751000Y82859000D02*
X91849000Y82859000D01*
X91849000Y84761000D01*
X93751000Y84761000D01*
X93751000Y82859000D01*
X93751000Y82859000D01*
G37*
G36*
X90537396Y84724454D02*
X90710466Y84652766D01*
X90866230Y84548688D01*
X90998688Y84416230D01*
X91102766Y84260466D01*
X91174454Y84087396D01*
X91211000Y83903667D01*
X91211000Y83716333D01*
X91174454Y83532604D01*
X91102766Y83359534D01*
X90998688Y83203770D01*
X90866230Y83071312D01*
X90710466Y82967234D01*
X90537396Y82895546D01*
X90353667Y82859000D01*
X90166333Y82859000D01*
X89982604Y82895546D01*
X89809534Y82967234D01*
X89653770Y83071312D01*
X89521312Y83203770D01*
X89417234Y83359534D01*
X89345546Y83532604D01*
X89309000Y83716333D01*
X89309000Y83903667D01*
X89345546Y84087396D01*
X89417234Y84260466D01*
X89521312Y84416230D01*
X89653770Y84548688D01*
X89809534Y84652766D01*
X89982604Y84724454D01*
X90166333Y84761000D01*
X90353667Y84761000D01*
X90537396Y84724454D01*
X90537396Y84724454D01*
G37*
G36*
X48751000Y82859000D02*
X46849000Y82859000D01*
X46849000Y84761000D01*
X48751000Y84761000D01*
X48751000Y82859000D01*
X48751000Y82859000D01*
G37*
G36*
X45537396Y84724454D02*
X45710466Y84652766D01*
X45866230Y84548688D01*
X45998688Y84416230D01*
X46102766Y84260466D01*
X46174454Y84087396D01*
X46211000Y83903667D01*
X46211000Y83716333D01*
X46174454Y83532604D01*
X46102766Y83359534D01*
X45998688Y83203770D01*
X45866230Y83071312D01*
X45710466Y82967234D01*
X45537396Y82895546D01*
X45353667Y82859000D01*
X45166333Y82859000D01*
X44982604Y82895546D01*
X44809534Y82967234D01*
X44653770Y83071312D01*
X44521312Y83203770D01*
X44417234Y83359534D01*
X44345546Y83532604D01*
X44309000Y83716333D01*
X44309000Y83903667D01*
X44345546Y84087396D01*
X44417234Y84260466D01*
X44521312Y84416230D01*
X44653770Y84548688D01*
X44809534Y84652766D01*
X44982604Y84724454D01*
X45166333Y84761000D01*
X45353667Y84761000D01*
X45537396Y84724454D01*
X45537396Y84724454D01*
G37*
G36*
X64351000Y83649000D02*
X62649000Y83649000D01*
X62649000Y85351000D01*
X64351000Y85351000D01*
X64351000Y83649000D01*
X64351000Y83649000D01*
G37*
G36*
X21248228Y85318297D02*
X21403100Y85254147D01*
X21542481Y85161015D01*
X21661015Y85042481D01*
X21754147Y84903100D01*
X21818297Y84748228D01*
X21851000Y84583816D01*
X21851000Y84416184D01*
X21818297Y84251772D01*
X21754147Y84096900D01*
X21661015Y83957519D01*
X21542481Y83838985D01*
X21403100Y83745853D01*
X21248228Y83681703D01*
X21083816Y83649000D01*
X20916184Y83649000D01*
X20751772Y83681703D01*
X20596900Y83745853D01*
X20457519Y83838985D01*
X20338985Y83957519D01*
X20245853Y84096900D01*
X20181703Y84251772D01*
X20149000Y84416184D01*
X20149000Y84583816D01*
X20181703Y84748228D01*
X20245853Y84903100D01*
X20338985Y85042481D01*
X20457519Y85161015D01*
X20596900Y85254147D01*
X20751772Y85318297D01*
X20916184Y85351000D01*
X21083816Y85351000D01*
X21248228Y85318297D01*
X21248228Y85318297D01*
G37*
G36*
X19351000Y83649000D02*
X17649000Y83649000D01*
X17649000Y85351000D01*
X19351000Y85351000D01*
X19351000Y83649000D01*
X19351000Y83649000D01*
G37*
G36*
X66248228Y85318297D02*
X66403100Y85254147D01*
X66542481Y85161015D01*
X66661015Y85042481D01*
X66754147Y84903100D01*
X66818297Y84748228D01*
X66851000Y84583816D01*
X66851000Y84416184D01*
X66818297Y84251772D01*
X66754147Y84096900D01*
X66661015Y83957519D01*
X66542481Y83838985D01*
X66403100Y83745853D01*
X66248228Y83681703D01*
X66083816Y83649000D01*
X65916184Y83649000D01*
X65751772Y83681703D01*
X65596900Y83745853D01*
X65457519Y83838985D01*
X65338985Y83957519D01*
X65245853Y84096900D01*
X65181703Y84251772D01*
X65149000Y84416184D01*
X65149000Y84583816D01*
X65181703Y84748228D01*
X65245853Y84903100D01*
X65338985Y85042481D01*
X65457519Y85161015D01*
X65596900Y85254147D01*
X65751772Y85318297D01*
X65916184Y85351000D01*
X66083816Y85351000D01*
X66248228Y85318297D01*
X66248228Y85318297D01*
G37*
G36*
X37693643Y85350219D02*
X37839415Y85289838D01*
X37970611Y85202176D01*
X38082176Y85090611D01*
X38169838Y84959415D01*
X38230219Y84813643D01*
X38261000Y84658893D01*
X38261000Y84501107D01*
X38230219Y84346357D01*
X38169838Y84200585D01*
X38082176Y84069389D01*
X37970611Y83957824D01*
X37839415Y83870162D01*
X37693643Y83809781D01*
X37538893Y83779000D01*
X37381107Y83779000D01*
X37226357Y83809781D01*
X37080585Y83870162D01*
X36949389Y83957824D01*
X36837824Y84069389D01*
X36750162Y84200585D01*
X36689781Y84346357D01*
X36659000Y84501107D01*
X36659000Y84658893D01*
X36689781Y84813643D01*
X36750162Y84959415D01*
X36837824Y85090611D01*
X36949389Y85202176D01*
X37080585Y85289838D01*
X37226357Y85350219D01*
X37381107Y85381000D01*
X37538893Y85381000D01*
X37693643Y85350219D01*
X37693643Y85350219D01*
G37*
G36*
X70978643Y85350219D02*
X71124415Y85289838D01*
X71255611Y85202176D01*
X71367176Y85090611D01*
X71454838Y84959415D01*
X71515219Y84813643D01*
X71546000Y84658893D01*
X71546000Y84501107D01*
X71515219Y84346357D01*
X71454838Y84200585D01*
X71367176Y84069389D01*
X71255611Y83957824D01*
X71124415Y83870162D01*
X70978643Y83809781D01*
X70823893Y83779000D01*
X70666107Y83779000D01*
X70511357Y83809781D01*
X70365585Y83870162D01*
X70234389Y83957824D01*
X70122824Y84069389D01*
X70035162Y84200585D01*
X69974781Y84346357D01*
X69944000Y84501107D01*
X69944000Y84658893D01*
X69974781Y84813643D01*
X70035162Y84959415D01*
X70122824Y85090611D01*
X70234389Y85202176D01*
X70365585Y85289838D01*
X70511357Y85350219D01*
X70666107Y85381000D01*
X70823893Y85381000D01*
X70978643Y85350219D01*
X70978643Y85350219D01*
G37*
G36*
X76626000Y83779000D02*
X75024000Y83779000D01*
X75024000Y85381000D01*
X76626000Y85381000D01*
X76626000Y83779000D01*
X76626000Y83779000D01*
G37*
G36*
X35153643Y85350219D02*
X35299415Y85289838D01*
X35430611Y85202176D01*
X35542176Y85090611D01*
X35629838Y84959415D01*
X35690219Y84813643D01*
X35721000Y84658893D01*
X35721000Y84501107D01*
X35690219Y84346357D01*
X35629838Y84200585D01*
X35542176Y84069389D01*
X35430611Y83957824D01*
X35299415Y83870162D01*
X35153643Y83809781D01*
X34998893Y83779000D01*
X34841107Y83779000D01*
X34686357Y83809781D01*
X34540585Y83870162D01*
X34409389Y83957824D01*
X34297824Y84069389D01*
X34210162Y84200585D01*
X34149781Y84346357D01*
X34119000Y84501107D01*
X34119000Y84658893D01*
X34149781Y84813643D01*
X34210162Y84959415D01*
X34297824Y85090611D01*
X34409389Y85202176D01*
X34540585Y85289838D01*
X34686357Y85350219D01*
X34841107Y85381000D01*
X34998893Y85381000D01*
X35153643Y85350219D01*
X35153643Y85350219D01*
G37*
G36*
X82693643Y85350219D02*
X82839415Y85289838D01*
X82970611Y85202176D01*
X83082176Y85090611D01*
X83169838Y84959415D01*
X83230219Y84813643D01*
X83261000Y84658893D01*
X83261000Y84501107D01*
X83230219Y84346357D01*
X83169838Y84200585D01*
X83082176Y84069389D01*
X82970611Y83957824D01*
X82839415Y83870162D01*
X82693643Y83809781D01*
X82538893Y83779000D01*
X82381107Y83779000D01*
X82226357Y83809781D01*
X82080585Y83870162D01*
X81949389Y83957824D01*
X81837824Y84069389D01*
X81750162Y84200585D01*
X81689781Y84346357D01*
X81659000Y84501107D01*
X81659000Y84658893D01*
X81689781Y84813643D01*
X81750162Y84959415D01*
X81837824Y85090611D01*
X81949389Y85202176D01*
X82080585Y85289838D01*
X82226357Y85350219D01*
X82381107Y85381000D01*
X82538893Y85381000D01*
X82693643Y85350219D01*
X82693643Y85350219D01*
G37*
G36*
X80153643Y85350219D02*
X80299415Y85289838D01*
X80430611Y85202176D01*
X80542176Y85090611D01*
X80629838Y84959415D01*
X80690219Y84813643D01*
X80721000Y84658893D01*
X80721000Y84501107D01*
X80690219Y84346357D01*
X80629838Y84200585D01*
X80542176Y84069389D01*
X80430611Y83957824D01*
X80299415Y83870162D01*
X80153643Y83809781D01*
X79998893Y83779000D01*
X79841107Y83779000D01*
X79686357Y83809781D01*
X79540585Y83870162D01*
X79409389Y83957824D01*
X79297824Y84069389D01*
X79210162Y84200585D01*
X79149781Y84346357D01*
X79119000Y84501107D01*
X79119000Y84658893D01*
X79149781Y84813643D01*
X79210162Y84959415D01*
X79297824Y85090611D01*
X79409389Y85202176D01*
X79540585Y85289838D01*
X79686357Y85350219D01*
X79841107Y85381000D01*
X79998893Y85381000D01*
X80153643Y85350219D01*
X80153643Y85350219D01*
G37*
G36*
X73518643Y85350219D02*
X73664415Y85289838D01*
X73795611Y85202176D01*
X73907176Y85090611D01*
X73994838Y84959415D01*
X74055219Y84813643D01*
X74086000Y84658893D01*
X74086000Y84501107D01*
X74055219Y84346357D01*
X73994838Y84200585D01*
X73907176Y84069389D01*
X73795611Y83957824D01*
X73664415Y83870162D01*
X73518643Y83809781D01*
X73363893Y83779000D01*
X73206107Y83779000D01*
X73051357Y83809781D01*
X72905585Y83870162D01*
X72774389Y83957824D01*
X72662824Y84069389D01*
X72575162Y84200585D01*
X72514781Y84346357D01*
X72484000Y84501107D01*
X72484000Y84658893D01*
X72514781Y84813643D01*
X72575162Y84959415D01*
X72662824Y85090611D01*
X72774389Y85202176D01*
X72905585Y85289838D01*
X73051357Y85350219D01*
X73206107Y85381000D01*
X73363893Y85381000D01*
X73518643Y85350219D01*
X73518643Y85350219D01*
G37*
G36*
X85801000Y83779000D02*
X84199000Y83779000D01*
X84199000Y85381000D01*
X85801000Y85381000D01*
X85801000Y83779000D01*
X85801000Y83779000D01*
G37*
G36*
X28518643Y85350219D02*
X28664415Y85289838D01*
X28795611Y85202176D01*
X28907176Y85090611D01*
X28994838Y84959415D01*
X29055219Y84813643D01*
X29086000Y84658893D01*
X29086000Y84501107D01*
X29055219Y84346357D01*
X28994838Y84200585D01*
X28907176Y84069389D01*
X28795611Y83957824D01*
X28664415Y83870162D01*
X28518643Y83809781D01*
X28363893Y83779000D01*
X28206107Y83779000D01*
X28051357Y83809781D01*
X27905585Y83870162D01*
X27774389Y83957824D01*
X27662824Y84069389D01*
X27575162Y84200585D01*
X27514781Y84346357D01*
X27484000Y84501107D01*
X27484000Y84658893D01*
X27514781Y84813643D01*
X27575162Y84959415D01*
X27662824Y85090611D01*
X27774389Y85202176D01*
X27905585Y85289838D01*
X28051357Y85350219D01*
X28206107Y85381000D01*
X28363893Y85381000D01*
X28518643Y85350219D01*
X28518643Y85350219D01*
G37*
G36*
X40801000Y83779000D02*
X39199000Y83779000D01*
X39199000Y85381000D01*
X40801000Y85381000D01*
X40801000Y83779000D01*
X40801000Y83779000D01*
G37*
G36*
X31626000Y83779000D02*
X30024000Y83779000D01*
X30024000Y85381000D01*
X31626000Y85381000D01*
X31626000Y83779000D01*
X31626000Y83779000D01*
G37*
G36*
X25978643Y85350219D02*
X26124415Y85289838D01*
X26255611Y85202176D01*
X26367176Y85090611D01*
X26454838Y84959415D01*
X26515219Y84813643D01*
X26546000Y84658893D01*
X26546000Y84501107D01*
X26515219Y84346357D01*
X26454838Y84200585D01*
X26367176Y84069389D01*
X26255611Y83957824D01*
X26124415Y83870162D01*
X25978643Y83809781D01*
X25823893Y83779000D01*
X25666107Y83779000D01*
X25511357Y83809781D01*
X25365585Y83870162D01*
X25234389Y83957824D01*
X25122824Y84069389D01*
X25035162Y84200585D01*
X24974781Y84346357D01*
X24944000Y84501107D01*
X24944000Y84658893D01*
X24974781Y84813643D01*
X25035162Y84959415D01*
X25122824Y85090611D01*
X25234389Y85202176D01*
X25365585Y85289838D01*
X25511357Y85350219D01*
X25666107Y85381000D01*
X25823893Y85381000D01*
X25978643Y85350219D01*
X25978643Y85350219D01*
G37*
G36*
X56492443Y87117481D02*
X56558627Y87110963D01*
X56671853Y87076616D01*
X56728467Y87059443D01*
X56867087Y86985348D01*
X56884991Y86975778D01*
X56920729Y86946448D01*
X57022186Y86863186D01*
X57105448Y86761729D01*
X57134778Y86725991D01*
X57134779Y86725989D01*
X57218443Y86569467D01*
X57218443Y86569466D01*
X57269963Y86399627D01*
X57287359Y86223000D01*
X57269963Y86046373D01*
X57235616Y85933147D01*
X57218443Y85876533D01*
X57144348Y85737913D01*
X57134778Y85720009D01*
X57105448Y85684271D01*
X57022186Y85582814D01*
X56920729Y85499552D01*
X56884991Y85470222D01*
X56884989Y85470221D01*
X56728467Y85386557D01*
X56671853Y85369384D01*
X56558627Y85335037D01*
X56492443Y85328519D01*
X56426260Y85322000D01*
X56337740Y85322000D01*
X56271557Y85328519D01*
X56205373Y85335037D01*
X56092147Y85369384D01*
X56035533Y85386557D01*
X55879011Y85470221D01*
X55879009Y85470222D01*
X55843271Y85499552D01*
X55741814Y85582814D01*
X55658552Y85684271D01*
X55629222Y85720009D01*
X55619652Y85737913D01*
X55545557Y85876533D01*
X55528384Y85933147D01*
X55494037Y86046373D01*
X55476641Y86223000D01*
X55494037Y86399627D01*
X55545557Y86569466D01*
X55545557Y86569467D01*
X55629221Y86725989D01*
X55629222Y86725991D01*
X55658552Y86761729D01*
X55741814Y86863186D01*
X55843271Y86946448D01*
X55879009Y86975778D01*
X55896913Y86985348D01*
X56035533Y87059443D01*
X56092147Y87076616D01*
X56205373Y87110963D01*
X56271557Y87117481D01*
X56337740Y87124000D01*
X56426260Y87124000D01*
X56492443Y87117481D01*
X56492443Y87117481D01*
G37*
G36*
X11492443Y87117481D02*
X11558627Y87110963D01*
X11671853Y87076616D01*
X11728467Y87059443D01*
X11867087Y86985348D01*
X11884991Y86975778D01*
X11920729Y86946448D01*
X12022186Y86863186D01*
X12105448Y86761729D01*
X12134778Y86725991D01*
X12134779Y86725989D01*
X12218443Y86569467D01*
X12218443Y86569466D01*
X12269963Y86399627D01*
X12287359Y86223000D01*
X12269963Y86046373D01*
X12235616Y85933147D01*
X12218443Y85876533D01*
X12144348Y85737913D01*
X12134778Y85720009D01*
X12105448Y85684271D01*
X12022186Y85582814D01*
X11920729Y85499552D01*
X11884991Y85470222D01*
X11884989Y85470221D01*
X11728467Y85386557D01*
X11671853Y85369384D01*
X11558627Y85335037D01*
X11492443Y85328519D01*
X11426260Y85322000D01*
X11337740Y85322000D01*
X11271557Y85328519D01*
X11205373Y85335037D01*
X11092147Y85369384D01*
X11035533Y85386557D01*
X10879011Y85470221D01*
X10879009Y85470222D01*
X10843271Y85499552D01*
X10741814Y85582814D01*
X10658552Y85684271D01*
X10629222Y85720009D01*
X10619652Y85737913D01*
X10545557Y85876533D01*
X10528384Y85933147D01*
X10494037Y86046373D01*
X10476641Y86223000D01*
X10494037Y86399627D01*
X10545557Y86569466D01*
X10545557Y86569467D01*
X10629221Y86725989D01*
X10629222Y86725991D01*
X10658552Y86761729D01*
X10741814Y86863186D01*
X10843271Y86946448D01*
X10879009Y86975778D01*
X10896913Y86985348D01*
X11035533Y87059443D01*
X11092147Y87076616D01*
X11205373Y87110963D01*
X11271557Y87117481D01*
X11337740Y87124000D01*
X11426260Y87124000D01*
X11492443Y87117481D01*
X11492443Y87117481D01*
G37*
G36*
X48751000Y89209000D02*
X46849000Y89209000D01*
X46849000Y91111000D01*
X48751000Y91111000D01*
X48751000Y89209000D01*
X48751000Y89209000D01*
G37*
G36*
X90537396Y91074454D02*
X90710466Y91002766D01*
X90866230Y90898688D01*
X90998688Y90766230D01*
X91102766Y90610466D01*
X91174454Y90437396D01*
X91211000Y90253667D01*
X91211000Y90066333D01*
X91174454Y89882604D01*
X91102766Y89709534D01*
X90998688Y89553770D01*
X90866230Y89421312D01*
X90710466Y89317234D01*
X90537396Y89245546D01*
X90353667Y89209000D01*
X90166333Y89209000D01*
X89982604Y89245546D01*
X89809534Y89317234D01*
X89653770Y89421312D01*
X89521312Y89553770D01*
X89417234Y89709534D01*
X89345546Y89882604D01*
X89309000Y90066333D01*
X89309000Y90253667D01*
X89345546Y90437396D01*
X89417234Y90610466D01*
X89521312Y90766230D01*
X89653770Y90898688D01*
X89809534Y91002766D01*
X89982604Y91074454D01*
X90166333Y91111000D01*
X90353667Y91111000D01*
X90537396Y91074454D01*
X90537396Y91074454D01*
G37*
G36*
X93751000Y89209000D02*
X91849000Y89209000D01*
X91849000Y91111000D01*
X93751000Y91111000D01*
X93751000Y89209000D01*
X93751000Y89209000D01*
G37*
G36*
X45537396Y91074454D02*
X45710466Y91002766D01*
X45866230Y90898688D01*
X45998688Y90766230D01*
X46102766Y90610466D01*
X46174454Y90437396D01*
X46211000Y90253667D01*
X46211000Y90066333D01*
X46174454Y89882604D01*
X46102766Y89709534D01*
X45998688Y89553770D01*
X45866230Y89421312D01*
X45710466Y89317234D01*
X45537396Y89245546D01*
X45353667Y89209000D01*
X45166333Y89209000D01*
X44982604Y89245546D01*
X44809534Y89317234D01*
X44653770Y89421312D01*
X44521312Y89553770D01*
X44417234Y89709534D01*
X44345546Y89882604D01*
X44309000Y90066333D01*
X44309000Y90253667D01*
X44345546Y90437396D01*
X44417234Y90610466D01*
X44521312Y90766230D01*
X44653770Y90898688D01*
X44809534Y91002766D01*
X44982604Y91074454D01*
X45166333Y91111000D01*
X45353667Y91111000D01*
X45537396Y91074454D01*
X45537396Y91074454D01*
G37*
G36*
X27823665Y91377378D02*
X27897222Y91370133D01*
X28038786Y91327190D01*
X28169252Y91257454D01*
X28283606Y91163606D01*
X28377454Y91049252D01*
X28447190Y90918786D01*
X28490133Y90777222D01*
X28504633Y90630000D01*
X28490133Y90482778D01*
X28447190Y90341214D01*
X28377454Y90210748D01*
X28283606Y90096394D01*
X28169252Y90002546D01*
X28038786Y89932810D01*
X27897222Y89889867D01*
X27823665Y89882622D01*
X27786888Y89879000D01*
X27713112Y89879000D01*
X27676335Y89882622D01*
X27602778Y89889867D01*
X27461214Y89932810D01*
X27330748Y90002546D01*
X27216394Y90096394D01*
X27122546Y90210748D01*
X27052810Y90341214D01*
X27009867Y90482778D01*
X26995367Y90630000D01*
X27009867Y90777222D01*
X27052810Y90918786D01*
X27122546Y91049252D01*
X27216394Y91163606D01*
X27330748Y91257454D01*
X27461214Y91327190D01*
X27602778Y91370133D01*
X27676335Y91377378D01*
X27713112Y91381000D01*
X27786888Y91381000D01*
X27823665Y91377378D01*
X27823665Y91377378D01*
G37*
G36*
X72823665Y91377378D02*
X72897222Y91370133D01*
X73038786Y91327190D01*
X73169252Y91257454D01*
X73283606Y91163606D01*
X73377454Y91049252D01*
X73447190Y90918786D01*
X73490133Y90777222D01*
X73504633Y90630000D01*
X73490133Y90482778D01*
X73447190Y90341214D01*
X73377454Y90210748D01*
X73283606Y90096394D01*
X73169252Y90002546D01*
X73038786Y89932810D01*
X72897222Y89889867D01*
X72823665Y89882622D01*
X72786888Y89879000D01*
X72713112Y89879000D01*
X72676335Y89882622D01*
X72602778Y89889867D01*
X72461214Y89932810D01*
X72330748Y90002546D01*
X72216394Y90096394D01*
X72122546Y90210748D01*
X72052810Y90341214D01*
X72009867Y90482778D01*
X71995367Y90630000D01*
X72009867Y90777222D01*
X72052810Y90918786D01*
X72122546Y91049252D01*
X72216394Y91163606D01*
X72330748Y91257454D01*
X72461214Y91327190D01*
X72602778Y91370133D01*
X72676335Y91377378D01*
X72713112Y91381000D01*
X72786888Y91381000D01*
X72823665Y91377378D01*
X72823665Y91377378D01*
G37*
G36*
X78573665Y91377378D02*
X78647222Y91370133D01*
X78788786Y91327190D01*
X78919252Y91257454D01*
X79033606Y91163606D01*
X79127454Y91049252D01*
X79197190Y90918786D01*
X79240133Y90777222D01*
X79254633Y90630000D01*
X79240133Y90482778D01*
X79197190Y90341214D01*
X79127454Y90210748D01*
X79033606Y90096394D01*
X78919252Y90002546D01*
X78788786Y89932810D01*
X78647222Y89889867D01*
X78573665Y89882622D01*
X78536888Y89879000D01*
X78463112Y89879000D01*
X78426335Y89882622D01*
X78352778Y89889867D01*
X78211214Y89932810D01*
X78080748Y90002546D01*
X77966394Y90096394D01*
X77872546Y90210748D01*
X77802810Y90341214D01*
X77759867Y90482778D01*
X77745367Y90630000D01*
X77759867Y90777222D01*
X77802810Y90918786D01*
X77872546Y91049252D01*
X77966394Y91163606D01*
X78080748Y91257454D01*
X78211214Y91327190D01*
X78352778Y91370133D01*
X78426335Y91377378D01*
X78463112Y91381000D01*
X78536888Y91381000D01*
X78573665Y91377378D01*
X78573665Y91377378D01*
G37*
G36*
X67323665Y91377378D02*
X67397222Y91370133D01*
X67538786Y91327190D01*
X67669252Y91257454D01*
X67783606Y91163606D01*
X67877454Y91049252D01*
X67947190Y90918786D01*
X67990133Y90777222D01*
X68004633Y90630000D01*
X67990133Y90482778D01*
X67947190Y90341214D01*
X67877454Y90210748D01*
X67783606Y90096394D01*
X67669252Y90002546D01*
X67538786Y89932810D01*
X67397222Y89889867D01*
X67323665Y89882622D01*
X67286888Y89879000D01*
X67213112Y89879000D01*
X67176335Y89882622D01*
X67102778Y89889867D01*
X66961214Y89932810D01*
X66830748Y90002546D01*
X66716394Y90096394D01*
X66622546Y90210748D01*
X66552810Y90341214D01*
X66509867Y90482778D01*
X66495367Y90630000D01*
X66509867Y90777222D01*
X66552810Y90918786D01*
X66622546Y91049252D01*
X66716394Y91163606D01*
X66830748Y91257454D01*
X66961214Y91327190D01*
X67102778Y91370133D01*
X67176335Y91377378D01*
X67213112Y91381000D01*
X67286888Y91381000D01*
X67323665Y91377378D01*
X67323665Y91377378D01*
G37*
G36*
X22323665Y91377378D02*
X22397222Y91370133D01*
X22538786Y91327190D01*
X22669252Y91257454D01*
X22783606Y91163606D01*
X22877454Y91049252D01*
X22947190Y90918786D01*
X22990133Y90777222D01*
X23004633Y90630000D01*
X22990133Y90482778D01*
X22947190Y90341214D01*
X22877454Y90210748D01*
X22783606Y90096394D01*
X22669252Y90002546D01*
X22538786Y89932810D01*
X22397222Y89889867D01*
X22323665Y89882622D01*
X22286888Y89879000D01*
X22213112Y89879000D01*
X22176335Y89882622D01*
X22102778Y89889867D01*
X21961214Y89932810D01*
X21830748Y90002546D01*
X21716394Y90096394D01*
X21622546Y90210748D01*
X21552810Y90341214D01*
X21509867Y90482778D01*
X21495367Y90630000D01*
X21509867Y90777222D01*
X21552810Y90918786D01*
X21622546Y91049252D01*
X21716394Y91163606D01*
X21830748Y91257454D01*
X21961214Y91327190D01*
X22102778Y91370133D01*
X22176335Y91377378D01*
X22213112Y91381000D01*
X22286888Y91381000D01*
X22323665Y91377378D01*
X22323665Y91377378D01*
G37*
G36*
X33573665Y91377378D02*
X33647222Y91370133D01*
X33788786Y91327190D01*
X33919252Y91257454D01*
X34033606Y91163606D01*
X34127454Y91049252D01*
X34197190Y90918786D01*
X34240133Y90777222D01*
X34254633Y90630000D01*
X34240133Y90482778D01*
X34197190Y90341214D01*
X34127454Y90210748D01*
X34033606Y90096394D01*
X33919252Y90002546D01*
X33788786Y89932810D01*
X33647222Y89889867D01*
X33573665Y89882622D01*
X33536888Y89879000D01*
X33463112Y89879000D01*
X33426335Y89882622D01*
X33352778Y89889867D01*
X33211214Y89932810D01*
X33080748Y90002546D01*
X32966394Y90096394D01*
X32872546Y90210748D01*
X32802810Y90341214D01*
X32759867Y90482778D01*
X32745367Y90630000D01*
X32759867Y90777222D01*
X32802810Y90918786D01*
X32872546Y91049252D01*
X32966394Y91163606D01*
X33080748Y91257454D01*
X33211214Y91327190D01*
X33352778Y91370133D01*
X33426335Y91377378D01*
X33463112Y91381000D01*
X33536888Y91381000D01*
X33573665Y91377378D01*
X33573665Y91377378D01*
G37*
G36*
X53360442Y94114482D02*
X53426627Y94107963D01*
X53524423Y94078297D01*
X53596467Y94056443D01*
X53675596Y94014147D01*
X53752991Y93972778D01*
X53788729Y93943448D01*
X53890186Y93860186D01*
X53973448Y93758729D01*
X54002778Y93722991D01*
X54002779Y93722989D01*
X54086443Y93566467D01*
X54086443Y93566466D01*
X54137963Y93396627D01*
X54155359Y93220000D01*
X54137963Y93043373D01*
X54128377Y93011772D01*
X54086443Y92873533D01*
X54077552Y92856900D01*
X54002778Y92717009D01*
X53973448Y92681271D01*
X53890186Y92579814D01*
X53800064Y92505854D01*
X53752991Y92467222D01*
X53752989Y92467221D01*
X53596467Y92383557D01*
X53539853Y92366384D01*
X53426627Y92332037D01*
X53360443Y92325519D01*
X53294260Y92319000D01*
X53205740Y92319000D01*
X53139557Y92325519D01*
X53073373Y92332037D01*
X52960147Y92366384D01*
X52903533Y92383557D01*
X52747011Y92467221D01*
X52747009Y92467222D01*
X52699936Y92505854D01*
X52609814Y92579814D01*
X52526552Y92681271D01*
X52497222Y92717009D01*
X52422448Y92856900D01*
X52413557Y92873533D01*
X52371623Y93011772D01*
X52362037Y93043373D01*
X52344641Y93220000D01*
X52362037Y93396627D01*
X52413557Y93566466D01*
X52413557Y93566467D01*
X52497221Y93722989D01*
X52497222Y93722991D01*
X52526552Y93758729D01*
X52609814Y93860186D01*
X52711271Y93943448D01*
X52747009Y93972778D01*
X52824404Y94014147D01*
X52903533Y94056443D01*
X52975577Y94078297D01*
X53073373Y94107963D01*
X53139557Y94114481D01*
X53205740Y94121000D01*
X53294260Y94121000D01*
X53360442Y94114482D01*
X53360442Y94114482D01*
G37*
G36*
X8360442Y94114482D02*
X8426627Y94107963D01*
X8524423Y94078297D01*
X8596467Y94056443D01*
X8675596Y94014147D01*
X8752991Y93972778D01*
X8788729Y93943448D01*
X8890186Y93860186D01*
X8973448Y93758729D01*
X9002778Y93722991D01*
X9002779Y93722989D01*
X9086443Y93566467D01*
X9086443Y93566466D01*
X9137963Y93396627D01*
X9155359Y93220000D01*
X9137963Y93043373D01*
X9128377Y93011772D01*
X9086443Y92873533D01*
X9077552Y92856900D01*
X9002778Y92717009D01*
X8973448Y92681271D01*
X8890186Y92579814D01*
X8800064Y92505854D01*
X8752991Y92467222D01*
X8752989Y92467221D01*
X8596467Y92383557D01*
X8539853Y92366384D01*
X8426627Y92332037D01*
X8360443Y92325519D01*
X8294260Y92319000D01*
X8205740Y92319000D01*
X8139557Y92325519D01*
X8073373Y92332037D01*
X7960147Y92366384D01*
X7903533Y92383557D01*
X7747011Y92467221D01*
X7747009Y92467222D01*
X7699936Y92505854D01*
X7609814Y92579814D01*
X7526552Y92681271D01*
X7497222Y92717009D01*
X7422448Y92856900D01*
X7413557Y92873533D01*
X7371623Y93011772D01*
X7362037Y93043373D01*
X7344641Y93220000D01*
X7362037Y93396627D01*
X7413557Y93566466D01*
X7413557Y93566467D01*
X7497221Y93722989D01*
X7497222Y93722991D01*
X7526552Y93758729D01*
X7609814Y93860186D01*
X7711271Y93943448D01*
X7747009Y93972778D01*
X7824404Y94014147D01*
X7903533Y94056443D01*
X7975577Y94078297D01*
X8073373Y94107963D01*
X8139557Y94114481D01*
X8205740Y94121000D01*
X8294260Y94121000D01*
X8360442Y94114482D01*
X8360442Y94114482D01*
G37*
G36*
X60293228Y94078297D02*
X60448100Y94014147D01*
X60587481Y93921015D01*
X60706015Y93802481D01*
X60799147Y93663100D01*
X60863297Y93508228D01*
X60896000Y93343816D01*
X60896000Y93176184D01*
X60863297Y93011772D01*
X60799147Y92856900D01*
X60706015Y92717519D01*
X60587481Y92598985D01*
X60448100Y92505853D01*
X60293228Y92441703D01*
X60128816Y92409000D01*
X59961184Y92409000D01*
X59796772Y92441703D01*
X59641900Y92505853D01*
X59502519Y92598985D01*
X59383985Y92717519D01*
X59290853Y92856900D01*
X59226703Y93011772D01*
X59194000Y93176184D01*
X59194000Y93343816D01*
X59226703Y93508228D01*
X59290853Y93663100D01*
X59383985Y93802481D01*
X59502519Y93921015D01*
X59641900Y94014147D01*
X59796772Y94078297D01*
X59961184Y94111000D01*
X60128816Y94111000D01*
X60293228Y94078297D01*
X60293228Y94078297D01*
G37*
G36*
X15293228Y94078297D02*
X15448100Y94014147D01*
X15587481Y93921015D01*
X15706015Y93802481D01*
X15799147Y93663100D01*
X15863297Y93508228D01*
X15896000Y93343816D01*
X15896000Y93176184D01*
X15863297Y93011772D01*
X15799147Y92856900D01*
X15706015Y92717519D01*
X15587481Y92598985D01*
X15448100Y92505853D01*
X15293228Y92441703D01*
X15128816Y92409000D01*
X14961184Y92409000D01*
X14796772Y92441703D01*
X14641900Y92505853D01*
X14502519Y92598985D01*
X14383985Y92717519D01*
X14290853Y92856900D01*
X14226703Y93011772D01*
X14194000Y93176184D01*
X14194000Y93343816D01*
X14226703Y93508228D01*
X14290853Y93663100D01*
X14383985Y93802481D01*
X14502519Y93921015D01*
X14641900Y94014147D01*
X14796772Y94078297D01*
X14961184Y94111000D01*
X15128816Y94111000D01*
X15293228Y94078297D01*
X15293228Y94078297D01*
G37*
G36*
X9151000Y94859000D02*
X7349000Y94859000D01*
X7349000Y96661000D01*
X9151000Y96661000D01*
X9151000Y94859000D01*
X9151000Y94859000D01*
G37*
G36*
X54151000Y94859000D02*
X52349000Y94859000D01*
X52349000Y96661000D01*
X54151000Y96661000D01*
X54151000Y94859000D01*
X54151000Y94859000D01*
G37*
G36*
X60896000Y94909000D02*
X59194000Y94909000D01*
X59194000Y96611000D01*
X60896000Y96611000D01*
X60896000Y94909000D01*
X60896000Y94909000D01*
G37*
G36*
X15896000Y94909000D02*
X14194000Y94909000D01*
X14194000Y96611000D01*
X15896000Y96611000D01*
X15896000Y94909000D01*
X15896000Y94909000D01*
G37*
G36*
X48751000Y95559000D02*
X46849000Y95559000D01*
X46849000Y97461000D01*
X48751000Y97461000D01*
X48751000Y95559000D01*
X48751000Y95559000D01*
G37*
G36*
X90537396Y97424454D02*
X90710466Y97352766D01*
X90866230Y97248688D01*
X90998688Y97116230D01*
X91102766Y96960466D01*
X91174454Y96787396D01*
X91211000Y96603667D01*
X91211000Y96416333D01*
X91174454Y96232604D01*
X91102766Y96059534D01*
X90998688Y95903770D01*
X90866230Y95771312D01*
X90710466Y95667234D01*
X90537396Y95595546D01*
X90353667Y95559000D01*
X90166333Y95559000D01*
X89982604Y95595546D01*
X89809534Y95667234D01*
X89653770Y95771312D01*
X89521312Y95903770D01*
X89417234Y96059534D01*
X89345546Y96232604D01*
X89309000Y96416333D01*
X89309000Y96603667D01*
X89345546Y96787396D01*
X89417234Y96960466D01*
X89521312Y97116230D01*
X89653770Y97248688D01*
X89809534Y97352766D01*
X89982604Y97424454D01*
X90166333Y97461000D01*
X90353667Y97461000D01*
X90537396Y97424454D01*
X90537396Y97424454D01*
G37*
G36*
X93751000Y95559000D02*
X91849000Y95559000D01*
X91849000Y97461000D01*
X93751000Y97461000D01*
X93751000Y95559000D01*
X93751000Y95559000D01*
G37*
G36*
X45537396Y97424454D02*
X45710466Y97352766D01*
X45866230Y97248688D01*
X45998688Y97116230D01*
X46102766Y96960466D01*
X46174454Y96787396D01*
X46211000Y96603667D01*
X46211000Y96416333D01*
X46174454Y96232604D01*
X46102766Y96059534D01*
X45998688Y95903770D01*
X45866230Y95771312D01*
X45710466Y95667234D01*
X45537396Y95595546D01*
X45353667Y95559000D01*
X45166333Y95559000D01*
X44982604Y95595546D01*
X44809534Y95667234D01*
X44653770Y95771312D01*
X44521312Y95903770D01*
X44417234Y96059534D01*
X44345546Y96232604D01*
X44309000Y96416333D01*
X44309000Y96603667D01*
X44345546Y96787396D01*
X44417234Y96960466D01*
X44521312Y97116230D01*
X44653770Y97248688D01*
X44809534Y97352766D01*
X44982604Y97424454D01*
X45166333Y97461000D01*
X45353667Y97461000D01*
X45537396Y97424454D01*
X45537396Y97424454D01*
G37*
G36*
X27882004Y98989456D02*
X27969059Y98972140D01*
X28105732Y98915528D01*
X28105733Y98915527D01*
X28228738Y98833338D01*
X28333338Y98728738D01*
X28333340Y98728735D01*
X28415528Y98605732D01*
X28472140Y98469059D01*
X28501000Y98323967D01*
X28501000Y98176033D01*
X28472140Y98030941D01*
X28415528Y97894268D01*
X28415527Y97894267D01*
X28333338Y97771262D01*
X28228738Y97666662D01*
X28228735Y97666660D01*
X28105732Y97584472D01*
X27969059Y97527860D01*
X27882004Y97510544D01*
X27823969Y97499000D01*
X27676031Y97499000D01*
X27617996Y97510544D01*
X27530941Y97527860D01*
X27394268Y97584472D01*
X27271265Y97666660D01*
X27271262Y97666662D01*
X27166662Y97771262D01*
X27084473Y97894267D01*
X27084472Y97894268D01*
X27027860Y98030941D01*
X26999000Y98176033D01*
X26999000Y98323967D01*
X27027860Y98469059D01*
X27084472Y98605732D01*
X27166660Y98728735D01*
X27166662Y98728738D01*
X27271262Y98833338D01*
X27394267Y98915527D01*
X27394268Y98915528D01*
X27530941Y98972140D01*
X27617996Y98989456D01*
X27676031Y99001000D01*
X27823969Y99001000D01*
X27882004Y98989456D01*
X27882004Y98989456D01*
G37*
G36*
X22382004Y98989456D02*
X22469059Y98972140D01*
X22605732Y98915528D01*
X22605733Y98915527D01*
X22728738Y98833338D01*
X22833338Y98728738D01*
X22833340Y98728735D01*
X22915528Y98605732D01*
X22972140Y98469059D01*
X23001000Y98323967D01*
X23001000Y98176033D01*
X22972140Y98030941D01*
X22915528Y97894268D01*
X22915527Y97894267D01*
X22833338Y97771262D01*
X22728738Y97666662D01*
X22728735Y97666660D01*
X22605732Y97584472D01*
X22469059Y97527860D01*
X22382004Y97510544D01*
X22323969Y97499000D01*
X22176031Y97499000D01*
X22117996Y97510544D01*
X22030941Y97527860D01*
X21894268Y97584472D01*
X21771265Y97666660D01*
X21771262Y97666662D01*
X21666662Y97771262D01*
X21584473Y97894267D01*
X21584472Y97894268D01*
X21527860Y98030941D01*
X21499000Y98176033D01*
X21499000Y98323967D01*
X21527860Y98469059D01*
X21584472Y98605732D01*
X21666660Y98728735D01*
X21666662Y98728738D01*
X21771262Y98833338D01*
X21894267Y98915527D01*
X21894268Y98915528D01*
X22030941Y98972140D01*
X22117996Y98989456D01*
X22176031Y99001000D01*
X22323969Y99001000D01*
X22382004Y98989456D01*
X22382004Y98989456D01*
G37*
G36*
X33632004Y98989456D02*
X33719059Y98972140D01*
X33855732Y98915528D01*
X33855733Y98915527D01*
X33978738Y98833338D01*
X34083338Y98728738D01*
X34083340Y98728735D01*
X34165528Y98605732D01*
X34222140Y98469059D01*
X34251000Y98323967D01*
X34251000Y98176033D01*
X34222140Y98030941D01*
X34165528Y97894268D01*
X34165527Y97894267D01*
X34083338Y97771262D01*
X33978738Y97666662D01*
X33978735Y97666660D01*
X33855732Y97584472D01*
X33719059Y97527860D01*
X33632004Y97510544D01*
X33573969Y97499000D01*
X33426031Y97499000D01*
X33367996Y97510544D01*
X33280941Y97527860D01*
X33144268Y97584472D01*
X33021265Y97666660D01*
X33021262Y97666662D01*
X32916662Y97771262D01*
X32834473Y97894267D01*
X32834472Y97894268D01*
X32777860Y98030941D01*
X32749000Y98176033D01*
X32749000Y98323967D01*
X32777860Y98469059D01*
X32834472Y98605732D01*
X32916660Y98728735D01*
X32916662Y98728738D01*
X33021262Y98833338D01*
X33144267Y98915527D01*
X33144268Y98915528D01*
X33280941Y98972140D01*
X33367996Y98989456D01*
X33426031Y99001000D01*
X33573969Y99001000D01*
X33632004Y98989456D01*
X33632004Y98989456D01*
G37*
G36*
X72882004Y98989456D02*
X72969059Y98972140D01*
X73105732Y98915528D01*
X73105733Y98915527D01*
X73228738Y98833338D01*
X73333338Y98728738D01*
X73333340Y98728735D01*
X73415528Y98605732D01*
X73472140Y98469059D01*
X73501000Y98323967D01*
X73501000Y98176033D01*
X73472140Y98030941D01*
X73415528Y97894268D01*
X73415527Y97894267D01*
X73333338Y97771262D01*
X73228738Y97666662D01*
X73228735Y97666660D01*
X73105732Y97584472D01*
X72969059Y97527860D01*
X72882004Y97510544D01*
X72823969Y97499000D01*
X72676031Y97499000D01*
X72617996Y97510544D01*
X72530941Y97527860D01*
X72394268Y97584472D01*
X72271265Y97666660D01*
X72271262Y97666662D01*
X72166662Y97771262D01*
X72084473Y97894267D01*
X72084472Y97894268D01*
X72027860Y98030941D01*
X71999000Y98176033D01*
X71999000Y98323967D01*
X72027860Y98469059D01*
X72084472Y98605732D01*
X72166660Y98728735D01*
X72166662Y98728738D01*
X72271262Y98833338D01*
X72394267Y98915527D01*
X72394268Y98915528D01*
X72530941Y98972140D01*
X72617996Y98989456D01*
X72676031Y99001000D01*
X72823969Y99001000D01*
X72882004Y98989456D01*
X72882004Y98989456D01*
G37*
G36*
X78632004Y98989456D02*
X78719059Y98972140D01*
X78855732Y98915528D01*
X78855733Y98915527D01*
X78978738Y98833338D01*
X79083338Y98728738D01*
X79083340Y98728735D01*
X79165528Y98605732D01*
X79222140Y98469059D01*
X79251000Y98323967D01*
X79251000Y98176033D01*
X79222140Y98030941D01*
X79165528Y97894268D01*
X79165527Y97894267D01*
X79083338Y97771262D01*
X78978738Y97666662D01*
X78978735Y97666660D01*
X78855732Y97584472D01*
X78719059Y97527860D01*
X78632004Y97510544D01*
X78573969Y97499000D01*
X78426031Y97499000D01*
X78367996Y97510544D01*
X78280941Y97527860D01*
X78144268Y97584472D01*
X78021265Y97666660D01*
X78021262Y97666662D01*
X77916662Y97771262D01*
X77834473Y97894267D01*
X77834472Y97894268D01*
X77777860Y98030941D01*
X77749000Y98176033D01*
X77749000Y98323967D01*
X77777860Y98469059D01*
X77834472Y98605732D01*
X77916660Y98728735D01*
X77916662Y98728738D01*
X78021262Y98833338D01*
X78144267Y98915527D01*
X78144268Y98915528D01*
X78280941Y98972140D01*
X78367996Y98989456D01*
X78426031Y99001000D01*
X78573969Y99001000D01*
X78632004Y98989456D01*
X78632004Y98989456D01*
G37*
G36*
X67382004Y98989456D02*
X67469059Y98972140D01*
X67605732Y98915528D01*
X67605733Y98915527D01*
X67728738Y98833338D01*
X67833338Y98728738D01*
X67833340Y98728735D01*
X67915528Y98605732D01*
X67972140Y98469059D01*
X68001000Y98323967D01*
X68001000Y98176033D01*
X67972140Y98030941D01*
X67915528Y97894268D01*
X67915527Y97894267D01*
X67833338Y97771262D01*
X67728738Y97666662D01*
X67728735Y97666660D01*
X67605732Y97584472D01*
X67469059Y97527860D01*
X67382004Y97510544D01*
X67323969Y97499000D01*
X67176031Y97499000D01*
X67117996Y97510544D01*
X67030941Y97527860D01*
X66894268Y97584472D01*
X66771265Y97666660D01*
X66771262Y97666662D01*
X66666662Y97771262D01*
X66584473Y97894267D01*
X66584472Y97894268D01*
X66527860Y98030941D01*
X66499000Y98176033D01*
X66499000Y98323967D01*
X66527860Y98469059D01*
X66584472Y98605732D01*
X66666660Y98728735D01*
X66666662Y98728738D01*
X66771262Y98833338D01*
X66894267Y98915527D01*
X66894268Y98915528D01*
X67030941Y98972140D01*
X67117996Y98989456D01*
X67176031Y99001000D01*
X67323969Y99001000D01*
X67382004Y98989456D01*
X67382004Y98989456D01*
G37*
M02*
