G04 #@! TF.GenerationSoftware,KiCad,Pcbnew,(5.0.2)-1*
G04 #@! TF.CreationDate,2019-05-19T00:08:12-05:00*
G04 #@! TF.ProjectId,panel_luz_audioritmica,70616e65-6c5f-46c7-957a-5f617564696f,rev?*
G04 #@! TF.SameCoordinates,PX4b8e0a8PY86fe1b0*
G04 #@! TF.FileFunction,Copper,L2,Bot*
G04 #@! TF.FilePolarity,Positive*
%FSLAX46Y46*%
G04 Gerber Fmt 4.6, Leading zero omitted, Abs format (unit mm)*
G04 Created by KiCad (PCBNEW (5.0.2)-1) date 5/19/2019 12:08:12 AM*
%MOMM*%
%LPD*%
G01*
G04 APERTURE LIST*
G04 #@! TA.AperFunction,ComponentPad*
%ADD10R,1.800000X1.800000*%
G04 #@! TD*
G04 #@! TA.AperFunction,ComponentPad*
%ADD11C,1.800000*%
G04 #@! TD*
G04 #@! TA.AperFunction,ComponentPad*
%ADD12R,1.600000X1.600000*%
G04 #@! TD*
G04 #@! TA.AperFunction,ComponentPad*
%ADD13C,1.600000*%
G04 #@! TD*
G04 #@! TA.AperFunction,ComponentPad*
%ADD14C,1.500000*%
G04 #@! TD*
G04 #@! TA.AperFunction,ComponentPad*
%ADD15R,1.500000X1.500000*%
G04 #@! TD*
G04 #@! TA.AperFunction,ComponentPad*
%ADD16O,1.700000X1.700000*%
G04 #@! TD*
G04 #@! TA.AperFunction,ComponentPad*
%ADD17R,1.700000X1.700000*%
G04 #@! TD*
G04 #@! TA.AperFunction,ComponentPad*
%ADD18C,1.400000*%
G04 #@! TD*
G04 #@! TA.AperFunction,ComponentPad*
%ADD19O,1.400000X1.400000*%
G04 #@! TD*
G04 #@! TA.AperFunction,Conductor*
%ADD20C,0.750000*%
G04 #@! TD*
G04 APERTURE END LIST*
D10*
G04 #@! TO.P,~,1*
G04 #@! TO.N,N/C*
X92800000Y3810000D03*
D11*
G04 #@! TO.P,~,2*
X90260000Y3810000D03*
G04 #@! TD*
D12*
G04 #@! TO.P,C2,1*
G04 #@! TO.N,N/C*
X60045000Y15760000D03*
D13*
G04 #@! TO.P,C2,2*
X60045000Y13260000D03*
G04 #@! TD*
D10*
G04 #@! TO.P,~,1*
G04 #@! TO.N,N/C*
X92800000Y16510000D03*
D11*
G04 #@! TO.P,~,2*
X90260000Y16510000D03*
G04 #@! TD*
D14*
G04 #@! TO.P,Q1,2*
G04 #@! TO.N,N/C*
X73285000Y4580000D03*
G04 #@! TO.P,Q1,3*
X70745000Y4580000D03*
D15*
G04 #@! TO.P,Q1,1*
X75825000Y4580000D03*
G04 #@! TD*
D16*
G04 #@! TO.P,~,2*
G04 #@! TO.N,N/C*
X53250000Y13220000D03*
D17*
G04 #@! TO.P,~,1*
X53250000Y15760000D03*
G04 #@! TD*
D12*
G04 #@! TO.P,C1,1*
G04 #@! TO.N,N/C*
X63500000Y4500000D03*
D13*
G04 #@! TO.P,C1,2*
X66000000Y4500000D03*
G04 #@! TD*
D18*
G04 #@! TO.P,R1,1*
G04 #@! TO.N,N/C*
X67250000Y18250000D03*
D19*
G04 #@! TO.P,R1,2*
X67250000Y10630000D03*
G04 #@! TD*
D11*
G04 #@! TO.P,~,2*
G04 #@! TO.N,N/C*
X90260000Y10160000D03*
D10*
G04 #@! TO.P,~,1*
X92800000Y10160000D03*
G04 #@! TD*
D17*
G04 #@! TO.P,M1,1*
G04 #@! TO.N,N/C*
X56382000Y3683000D03*
D16*
G04 #@! TO.P,M1,2*
X56382000Y6223000D03*
G04 #@! TD*
D19*
G04 #@! TO.P,R3,2*
G04 #@! TO.N,N/C*
X78500000Y10630000D03*
D18*
G04 #@! TO.P,R3,1*
X78500000Y18250000D03*
G04 #@! TD*
D15*
G04 #@! TO.P,Q1,1*
G04 #@! TO.N,N/C*
X30825000Y4580000D03*
D14*
G04 #@! TO.P,Q1,3*
X25745000Y4580000D03*
G04 #@! TO.P,Q1,2*
X28285000Y4580000D03*
G04 #@! TD*
D13*
G04 #@! TO.P,C2,2*
G04 #@! TO.N,N/C*
X15045000Y13260000D03*
D12*
G04 #@! TO.P,C2,1*
X15045000Y15760000D03*
G04 #@! TD*
D17*
G04 #@! TO.P,~,1*
G04 #@! TO.N,N/C*
X8250000Y15760000D03*
D16*
G04 #@! TO.P,~,2*
X8250000Y13220000D03*
G04 #@! TD*
D19*
G04 #@! TO.P,R1,2*
G04 #@! TO.N,N/C*
X22250000Y10630000D03*
D18*
G04 #@! TO.P,R1,1*
X22250000Y18250000D03*
G04 #@! TD*
D16*
G04 #@! TO.P,M1,2*
G04 #@! TO.N,N/C*
X11382000Y6223000D03*
D17*
G04 #@! TO.P,M1,1*
X11382000Y3683000D03*
G04 #@! TD*
D11*
G04 #@! TO.P,~,2*
G04 #@! TO.N,N/C*
X45260000Y16510000D03*
D10*
G04 #@! TO.P,~,1*
X47800000Y16510000D03*
G04 #@! TD*
G04 #@! TO.P,~,1*
G04 #@! TO.N,N/C*
X47800000Y10160000D03*
D11*
G04 #@! TO.P,~,2*
X45260000Y10160000D03*
G04 #@! TD*
G04 #@! TO.P,~,2*
G04 #@! TO.N,N/C*
X45260000Y3810000D03*
D10*
G04 #@! TO.P,~,1*
X47800000Y3810000D03*
G04 #@! TD*
D13*
G04 #@! TO.P,C1,2*
G04 #@! TO.N,N/C*
X21000000Y4500000D03*
D12*
G04 #@! TO.P,C1,1*
X18500000Y4500000D03*
G04 #@! TD*
D18*
G04 #@! TO.P,R2,1*
G04 #@! TO.N,N/C*
X72750000Y18250000D03*
D19*
G04 #@! TO.P,R2,2*
X72750000Y10630000D03*
G04 #@! TD*
D15*
G04 #@! TO.P,Q2,1*
G04 #@! TO.N,N/C*
X85000000Y4580000D03*
D14*
G04 #@! TO.P,Q2,3*
X79920000Y4580000D03*
G04 #@! TO.P,Q2,2*
X82460000Y4580000D03*
G04 #@! TD*
D18*
G04 #@! TO.P,R3,1*
G04 #@! TO.N,N/C*
X33500000Y18250000D03*
D19*
G04 #@! TO.P,R3,2*
X33500000Y10630000D03*
G04 #@! TD*
G04 #@! TO.P,R2,2*
G04 #@! TO.N,N/C*
X27750000Y10630000D03*
D18*
G04 #@! TO.P,R2,1*
X27750000Y18250000D03*
G04 #@! TD*
D14*
G04 #@! TO.P,Q2,2*
G04 #@! TO.N,N/C*
X37460000Y4580000D03*
G04 #@! TO.P,Q2,3*
X34920000Y4580000D03*
D15*
G04 #@! TO.P,Q2,1*
X40000000Y4580000D03*
G04 #@! TD*
D10*
G04 #@! TO.P,~,1*
G04 #@! TO.N,N/C*
X92800000Y23810000D03*
D11*
G04 #@! TO.P,~,2*
X90260000Y23810000D03*
G04 #@! TD*
D12*
G04 #@! TO.P,C2,1*
G04 #@! TO.N,N/C*
X60045000Y35760000D03*
D13*
G04 #@! TO.P,C2,2*
X60045000Y33260000D03*
G04 #@! TD*
D10*
G04 #@! TO.P,~,1*
G04 #@! TO.N,N/C*
X92800000Y36510000D03*
D11*
G04 #@! TO.P,~,2*
X90260000Y36510000D03*
G04 #@! TD*
D14*
G04 #@! TO.P,Q1,2*
G04 #@! TO.N,N/C*
X73285000Y24580000D03*
G04 #@! TO.P,Q1,3*
X70745000Y24580000D03*
D15*
G04 #@! TO.P,Q1,1*
X75825000Y24580000D03*
G04 #@! TD*
D16*
G04 #@! TO.P,~,2*
G04 #@! TO.N,N/C*
X53250000Y33220000D03*
D17*
G04 #@! TO.P,~,1*
X53250000Y35760000D03*
G04 #@! TD*
D12*
G04 #@! TO.P,C1,1*
G04 #@! TO.N,N/C*
X63500000Y24500000D03*
D13*
G04 #@! TO.P,C1,2*
X66000000Y24500000D03*
G04 #@! TD*
D18*
G04 #@! TO.P,R1,1*
G04 #@! TO.N,N/C*
X67250000Y38250000D03*
D19*
G04 #@! TO.P,R1,2*
X67250000Y30630000D03*
G04 #@! TD*
D11*
G04 #@! TO.P,~,2*
G04 #@! TO.N,N/C*
X90260000Y30160000D03*
D10*
G04 #@! TO.P,~,1*
X92800000Y30160000D03*
G04 #@! TD*
D17*
G04 #@! TO.P,M1,1*
G04 #@! TO.N,N/C*
X56382000Y23683000D03*
D16*
G04 #@! TO.P,M1,2*
X56382000Y26223000D03*
G04 #@! TD*
D19*
G04 #@! TO.P,R3,2*
G04 #@! TO.N,N/C*
X78500000Y30630000D03*
D18*
G04 #@! TO.P,R3,1*
X78500000Y38250000D03*
G04 #@! TD*
D15*
G04 #@! TO.P,Q1,1*
G04 #@! TO.N,N/C*
X30825000Y24580000D03*
D14*
G04 #@! TO.P,Q1,3*
X25745000Y24580000D03*
G04 #@! TO.P,Q1,2*
X28285000Y24580000D03*
G04 #@! TD*
D13*
G04 #@! TO.P,C2,2*
G04 #@! TO.N,N/C*
X15045000Y33260000D03*
D12*
G04 #@! TO.P,C2,1*
X15045000Y35760000D03*
G04 #@! TD*
D17*
G04 #@! TO.P,~,1*
G04 #@! TO.N,N/C*
X8250000Y35760000D03*
D16*
G04 #@! TO.P,~,2*
X8250000Y33220000D03*
G04 #@! TD*
D19*
G04 #@! TO.P,R1,2*
G04 #@! TO.N,N/C*
X22250000Y30630000D03*
D18*
G04 #@! TO.P,R1,1*
X22250000Y38250000D03*
G04 #@! TD*
D16*
G04 #@! TO.P,M1,2*
G04 #@! TO.N,N/C*
X11382000Y26223000D03*
D17*
G04 #@! TO.P,M1,1*
X11382000Y23683000D03*
G04 #@! TD*
D11*
G04 #@! TO.P,~,2*
G04 #@! TO.N,N/C*
X45260000Y36510000D03*
D10*
G04 #@! TO.P,~,1*
X47800000Y36510000D03*
G04 #@! TD*
G04 #@! TO.P,~,1*
G04 #@! TO.N,N/C*
X47800000Y30160000D03*
D11*
G04 #@! TO.P,~,2*
X45260000Y30160000D03*
G04 #@! TD*
G04 #@! TO.P,~,2*
G04 #@! TO.N,N/C*
X45260000Y23810000D03*
D10*
G04 #@! TO.P,~,1*
X47800000Y23810000D03*
G04 #@! TD*
D13*
G04 #@! TO.P,C1,2*
G04 #@! TO.N,N/C*
X21000000Y24500000D03*
D12*
G04 #@! TO.P,C1,1*
X18500000Y24500000D03*
G04 #@! TD*
D18*
G04 #@! TO.P,R2,1*
G04 #@! TO.N,N/C*
X72750000Y38250000D03*
D19*
G04 #@! TO.P,R2,2*
X72750000Y30630000D03*
G04 #@! TD*
D15*
G04 #@! TO.P,Q2,1*
G04 #@! TO.N,N/C*
X85000000Y24580000D03*
D14*
G04 #@! TO.P,Q2,3*
X79920000Y24580000D03*
G04 #@! TO.P,Q2,2*
X82460000Y24580000D03*
G04 #@! TD*
D18*
G04 #@! TO.P,R3,1*
G04 #@! TO.N,N/C*
X33500000Y38250000D03*
D19*
G04 #@! TO.P,R3,2*
X33500000Y30630000D03*
G04 #@! TD*
G04 #@! TO.P,R2,2*
G04 #@! TO.N,N/C*
X27750000Y30630000D03*
D18*
G04 #@! TO.P,R2,1*
X27750000Y38250000D03*
G04 #@! TD*
D14*
G04 #@! TO.P,Q2,2*
G04 #@! TO.N,N/C*
X37460000Y24580000D03*
G04 #@! TO.P,Q2,3*
X34920000Y24580000D03*
D15*
G04 #@! TO.P,Q2,1*
X40000000Y24580000D03*
G04 #@! TD*
D10*
G04 #@! TO.P,~,1*
G04 #@! TO.N,N/C*
X92800000Y43810000D03*
D11*
G04 #@! TO.P,~,2*
X90260000Y43810000D03*
G04 #@! TD*
D12*
G04 #@! TO.P,C2,1*
G04 #@! TO.N,N/C*
X60045000Y55760000D03*
D13*
G04 #@! TO.P,C2,2*
X60045000Y53260000D03*
G04 #@! TD*
D10*
G04 #@! TO.P,~,1*
G04 #@! TO.N,N/C*
X92800000Y56510000D03*
D11*
G04 #@! TO.P,~,2*
X90260000Y56510000D03*
G04 #@! TD*
D14*
G04 #@! TO.P,Q1,2*
G04 #@! TO.N,N/C*
X73285000Y44580000D03*
G04 #@! TO.P,Q1,3*
X70745000Y44580000D03*
D15*
G04 #@! TO.P,Q1,1*
X75825000Y44580000D03*
G04 #@! TD*
D16*
G04 #@! TO.P,~,2*
G04 #@! TO.N,N/C*
X53250000Y53220000D03*
D17*
G04 #@! TO.P,~,1*
X53250000Y55760000D03*
G04 #@! TD*
D12*
G04 #@! TO.P,C1,1*
G04 #@! TO.N,N/C*
X63500000Y44500000D03*
D13*
G04 #@! TO.P,C1,2*
X66000000Y44500000D03*
G04 #@! TD*
D18*
G04 #@! TO.P,R1,1*
G04 #@! TO.N,N/C*
X67250000Y58250000D03*
D19*
G04 #@! TO.P,R1,2*
X67250000Y50630000D03*
G04 #@! TD*
D11*
G04 #@! TO.P,~,2*
G04 #@! TO.N,N/C*
X90260000Y50160000D03*
D10*
G04 #@! TO.P,~,1*
X92800000Y50160000D03*
G04 #@! TD*
D17*
G04 #@! TO.P,M1,1*
G04 #@! TO.N,N/C*
X56382000Y43683000D03*
D16*
G04 #@! TO.P,M1,2*
X56382000Y46223000D03*
G04 #@! TD*
D19*
G04 #@! TO.P,R3,2*
G04 #@! TO.N,N/C*
X78500000Y50630000D03*
D18*
G04 #@! TO.P,R3,1*
X78500000Y58250000D03*
G04 #@! TD*
D15*
G04 #@! TO.P,Q1,1*
G04 #@! TO.N,N/C*
X30825000Y44580000D03*
D14*
G04 #@! TO.P,Q1,3*
X25745000Y44580000D03*
G04 #@! TO.P,Q1,2*
X28285000Y44580000D03*
G04 #@! TD*
D13*
G04 #@! TO.P,C2,2*
G04 #@! TO.N,N/C*
X15045000Y53260000D03*
D12*
G04 #@! TO.P,C2,1*
X15045000Y55760000D03*
G04 #@! TD*
D17*
G04 #@! TO.P,~,1*
G04 #@! TO.N,N/C*
X8250000Y55760000D03*
D16*
G04 #@! TO.P,~,2*
X8250000Y53220000D03*
G04 #@! TD*
D19*
G04 #@! TO.P,R1,2*
G04 #@! TO.N,N/C*
X22250000Y50630000D03*
D18*
G04 #@! TO.P,R1,1*
X22250000Y58250000D03*
G04 #@! TD*
D16*
G04 #@! TO.P,M1,2*
G04 #@! TO.N,N/C*
X11382000Y46223000D03*
D17*
G04 #@! TO.P,M1,1*
X11382000Y43683000D03*
G04 #@! TD*
D11*
G04 #@! TO.P,~,2*
G04 #@! TO.N,N/C*
X45260000Y56510000D03*
D10*
G04 #@! TO.P,~,1*
X47800000Y56510000D03*
G04 #@! TD*
G04 #@! TO.P,~,1*
G04 #@! TO.N,N/C*
X47800000Y50160000D03*
D11*
G04 #@! TO.P,~,2*
X45260000Y50160000D03*
G04 #@! TD*
G04 #@! TO.P,~,2*
G04 #@! TO.N,N/C*
X45260000Y43810000D03*
D10*
G04 #@! TO.P,~,1*
X47800000Y43810000D03*
G04 #@! TD*
D13*
G04 #@! TO.P,C1,2*
G04 #@! TO.N,N/C*
X21000000Y44500000D03*
D12*
G04 #@! TO.P,C1,1*
X18500000Y44500000D03*
G04 #@! TD*
D18*
G04 #@! TO.P,R2,1*
G04 #@! TO.N,N/C*
X72750000Y58250000D03*
D19*
G04 #@! TO.P,R2,2*
X72750000Y50630000D03*
G04 #@! TD*
D15*
G04 #@! TO.P,Q2,1*
G04 #@! TO.N,N/C*
X85000000Y44580000D03*
D14*
G04 #@! TO.P,Q2,3*
X79920000Y44580000D03*
G04 #@! TO.P,Q2,2*
X82460000Y44580000D03*
G04 #@! TD*
D18*
G04 #@! TO.P,R3,1*
G04 #@! TO.N,N/C*
X33500000Y58250000D03*
D19*
G04 #@! TO.P,R3,2*
X33500000Y50630000D03*
G04 #@! TD*
G04 #@! TO.P,R2,2*
G04 #@! TO.N,N/C*
X27750000Y50630000D03*
D18*
G04 #@! TO.P,R2,1*
X27750000Y58250000D03*
G04 #@! TD*
D14*
G04 #@! TO.P,Q2,2*
G04 #@! TO.N,N/C*
X37460000Y44580000D03*
G04 #@! TO.P,Q2,3*
X34920000Y44580000D03*
D15*
G04 #@! TO.P,Q2,1*
X40000000Y44580000D03*
G04 #@! TD*
D10*
G04 #@! TO.P,~,1*
G04 #@! TO.N,N/C*
X92800000Y63810000D03*
D11*
G04 #@! TO.P,~,2*
X90260000Y63810000D03*
G04 #@! TD*
D12*
G04 #@! TO.P,C2,1*
G04 #@! TO.N,N/C*
X60045000Y75760000D03*
D13*
G04 #@! TO.P,C2,2*
X60045000Y73260000D03*
G04 #@! TD*
D10*
G04 #@! TO.P,~,1*
G04 #@! TO.N,N/C*
X92800000Y76510000D03*
D11*
G04 #@! TO.P,~,2*
X90260000Y76510000D03*
G04 #@! TD*
D14*
G04 #@! TO.P,Q1,2*
G04 #@! TO.N,N/C*
X73285000Y64580000D03*
G04 #@! TO.P,Q1,3*
X70745000Y64580000D03*
D15*
G04 #@! TO.P,Q1,1*
X75825000Y64580000D03*
G04 #@! TD*
D16*
G04 #@! TO.P,~,2*
G04 #@! TO.N,N/C*
X53250000Y73220000D03*
D17*
G04 #@! TO.P,~,1*
X53250000Y75760000D03*
G04 #@! TD*
D12*
G04 #@! TO.P,C1,1*
G04 #@! TO.N,N/C*
X63500000Y64500000D03*
D13*
G04 #@! TO.P,C1,2*
X66000000Y64500000D03*
G04 #@! TD*
D18*
G04 #@! TO.P,R1,1*
G04 #@! TO.N,N/C*
X67250000Y78250000D03*
D19*
G04 #@! TO.P,R1,2*
X67250000Y70630000D03*
G04 #@! TD*
D11*
G04 #@! TO.P,~,2*
G04 #@! TO.N,N/C*
X90260000Y70160000D03*
D10*
G04 #@! TO.P,~,1*
X92800000Y70160000D03*
G04 #@! TD*
D17*
G04 #@! TO.P,M1,1*
G04 #@! TO.N,N/C*
X56382000Y63683000D03*
D16*
G04 #@! TO.P,M1,2*
X56382000Y66223000D03*
G04 #@! TD*
D19*
G04 #@! TO.P,R3,2*
G04 #@! TO.N,N/C*
X78500000Y70630000D03*
D18*
G04 #@! TO.P,R3,1*
X78500000Y78250000D03*
G04 #@! TD*
D15*
G04 #@! TO.P,Q1,1*
G04 #@! TO.N,N/C*
X30825000Y64580000D03*
D14*
G04 #@! TO.P,Q1,3*
X25745000Y64580000D03*
G04 #@! TO.P,Q1,2*
X28285000Y64580000D03*
G04 #@! TD*
D13*
G04 #@! TO.P,C2,2*
G04 #@! TO.N,N/C*
X15045000Y73260000D03*
D12*
G04 #@! TO.P,C2,1*
X15045000Y75760000D03*
G04 #@! TD*
D17*
G04 #@! TO.P,~,1*
G04 #@! TO.N,N/C*
X8250000Y75760000D03*
D16*
G04 #@! TO.P,~,2*
X8250000Y73220000D03*
G04 #@! TD*
D19*
G04 #@! TO.P,R1,2*
G04 #@! TO.N,N/C*
X22250000Y70630000D03*
D18*
G04 #@! TO.P,R1,1*
X22250000Y78250000D03*
G04 #@! TD*
D16*
G04 #@! TO.P,M1,2*
G04 #@! TO.N,N/C*
X11382000Y66223000D03*
D17*
G04 #@! TO.P,M1,1*
X11382000Y63683000D03*
G04 #@! TD*
D11*
G04 #@! TO.P,~,2*
G04 #@! TO.N,N/C*
X45260000Y76510000D03*
D10*
G04 #@! TO.P,~,1*
X47800000Y76510000D03*
G04 #@! TD*
G04 #@! TO.P,~,1*
G04 #@! TO.N,N/C*
X47800000Y70160000D03*
D11*
G04 #@! TO.P,~,2*
X45260000Y70160000D03*
G04 #@! TD*
G04 #@! TO.P,~,2*
G04 #@! TO.N,N/C*
X45260000Y63810000D03*
D10*
G04 #@! TO.P,~,1*
X47800000Y63810000D03*
G04 #@! TD*
D13*
G04 #@! TO.P,C1,2*
G04 #@! TO.N,N/C*
X21000000Y64500000D03*
D12*
G04 #@! TO.P,C1,1*
X18500000Y64500000D03*
G04 #@! TD*
D18*
G04 #@! TO.P,R2,1*
G04 #@! TO.N,N/C*
X72750000Y78250000D03*
D19*
G04 #@! TO.P,R2,2*
X72750000Y70630000D03*
G04 #@! TD*
D15*
G04 #@! TO.P,Q2,1*
G04 #@! TO.N,N/C*
X85000000Y64580000D03*
D14*
G04 #@! TO.P,Q2,3*
X79920000Y64580000D03*
G04 #@! TO.P,Q2,2*
X82460000Y64580000D03*
G04 #@! TD*
D18*
G04 #@! TO.P,R3,1*
G04 #@! TO.N,N/C*
X33500000Y78250000D03*
D19*
G04 #@! TO.P,R3,2*
X33500000Y70630000D03*
G04 #@! TD*
G04 #@! TO.P,R2,2*
G04 #@! TO.N,N/C*
X27750000Y70630000D03*
D18*
G04 #@! TO.P,R2,1*
X27750000Y78250000D03*
G04 #@! TD*
D14*
G04 #@! TO.P,Q2,2*
G04 #@! TO.N,N/C*
X37460000Y64580000D03*
G04 #@! TO.P,Q2,3*
X34920000Y64580000D03*
D15*
G04 #@! TO.P,Q2,1*
X40000000Y64580000D03*
G04 #@! TD*
G04 #@! TO.P,Q1,1*
G04 #@! TO.N,N/C*
X75825000Y84580000D03*
D14*
G04 #@! TO.P,Q1,3*
X70745000Y84580000D03*
G04 #@! TO.P,Q1,2*
X73285000Y84580000D03*
G04 #@! TD*
D13*
G04 #@! TO.P,C2,2*
G04 #@! TO.N,N/C*
X60045000Y93260000D03*
D12*
G04 #@! TO.P,C2,1*
X60045000Y95760000D03*
G04 #@! TD*
D17*
G04 #@! TO.P,~,1*
G04 #@! TO.N,N/C*
X53250000Y95760000D03*
D16*
G04 #@! TO.P,~,2*
X53250000Y93220000D03*
G04 #@! TD*
D19*
G04 #@! TO.P,R1,2*
G04 #@! TO.N,N/C*
X67250000Y90630000D03*
D18*
G04 #@! TO.P,R1,1*
X67250000Y98250000D03*
G04 #@! TD*
D16*
G04 #@! TO.P,M1,2*
G04 #@! TO.N,N/C*
X56382000Y86223000D03*
D17*
G04 #@! TO.P,M1,1*
X56382000Y83683000D03*
G04 #@! TD*
D11*
G04 #@! TO.P,~,2*
G04 #@! TO.N,N/C*
X90260000Y96510000D03*
D10*
G04 #@! TO.P,~,1*
X92800000Y96510000D03*
G04 #@! TD*
G04 #@! TO.P,~,1*
G04 #@! TO.N,N/C*
X92800000Y90160000D03*
D11*
G04 #@! TO.P,~,2*
X90260000Y90160000D03*
G04 #@! TD*
G04 #@! TO.P,~,2*
G04 #@! TO.N,N/C*
X90260000Y83810000D03*
D10*
G04 #@! TO.P,~,1*
X92800000Y83810000D03*
G04 #@! TD*
D13*
G04 #@! TO.P,C1,2*
G04 #@! TO.N,N/C*
X66000000Y84500000D03*
D12*
G04 #@! TO.P,C1,1*
X63500000Y84500000D03*
G04 #@! TD*
D18*
G04 #@! TO.P,R3,1*
G04 #@! TO.N,N/C*
X78500000Y98250000D03*
D19*
G04 #@! TO.P,R3,2*
X78500000Y90630000D03*
G04 #@! TD*
G04 #@! TO.P,R2,2*
G04 #@! TO.N,N/C*
X72750000Y90630000D03*
D18*
G04 #@! TO.P,R2,1*
X72750000Y98250000D03*
G04 #@! TD*
D14*
G04 #@! TO.P,Q2,2*
G04 #@! TO.N,N/C*
X82460000Y84580000D03*
G04 #@! TO.P,Q2,3*
X79920000Y84580000D03*
D15*
G04 #@! TO.P,Q2,1*
X85000000Y84580000D03*
G04 #@! TD*
D16*
G04 #@! TO.P,~,2*
G04 #@! TO.N,GNDREF*
X8250000Y93220000D03*
D17*
G04 #@! TO.P,~,1*
G04 #@! TO.N,VCC*
X8250000Y95760000D03*
G04 #@! TD*
D12*
G04 #@! TO.P,C1,1*
G04 #@! TO.N,Net-(C1-Pad1)*
X18500000Y84500000D03*
D13*
G04 #@! TO.P,C1,2*
G04 #@! TO.N,Net-(C1-Pad2)*
X21000000Y84500000D03*
G04 #@! TD*
D12*
G04 #@! TO.P,C2,1*
G04 #@! TO.N,VCC*
X15045000Y95760000D03*
D13*
G04 #@! TO.P,C2,2*
G04 #@! TO.N,GNDREF*
X15045000Y93260000D03*
G04 #@! TD*
D10*
G04 #@! TO.P,~,1*
G04 #@! TO.N,Net-(D1-Pad1)*
X47800000Y83810000D03*
D11*
G04 #@! TO.P,~,2*
G04 #@! TO.N,VCC*
X45260000Y83810000D03*
G04 #@! TD*
G04 #@! TO.P,~,2*
G04 #@! TO.N,VCC*
X45260000Y90160000D03*
D10*
G04 #@! TO.P,~,1*
G04 #@! TO.N,Net-(D1-Pad1)*
X47800000Y90160000D03*
G04 #@! TD*
G04 #@! TO.P,~,1*
G04 #@! TO.N,Net-(D1-Pad1)*
X47800000Y96510000D03*
D11*
G04 #@! TO.P,~,2*
G04 #@! TO.N,VCC*
X45260000Y96510000D03*
G04 #@! TD*
D17*
G04 #@! TO.P,M1,1*
G04 #@! TO.N,GNDREF*
X11382000Y83683000D03*
D16*
G04 #@! TO.P,M1,2*
G04 #@! TO.N,Net-(C1-Pad1)*
X11382000Y86223000D03*
G04 #@! TD*
D14*
G04 #@! TO.P,Q1,2*
G04 #@! TO.N,Net-(C1-Pad2)*
X28285000Y84580000D03*
G04 #@! TO.P,Q1,3*
G04 #@! TO.N,GNDREF*
X25745000Y84580000D03*
D15*
G04 #@! TO.P,Q1,1*
G04 #@! TO.N,Net-(Q1-Pad1)*
X30825000Y84580000D03*
G04 #@! TD*
G04 #@! TO.P,Q2,1*
G04 #@! TO.N,Net-(D1-Pad1)*
X40000000Y84580000D03*
D14*
G04 #@! TO.P,Q2,3*
G04 #@! TO.N,GNDREF*
X34920000Y84580000D03*
G04 #@! TO.P,Q2,2*
G04 #@! TO.N,Net-(Q1-Pad1)*
X37460000Y84580000D03*
G04 #@! TD*
D18*
G04 #@! TO.P,R1,1*
G04 #@! TO.N,VCC*
X22250000Y98250000D03*
D19*
G04 #@! TO.P,R1,2*
G04 #@! TO.N,Net-(C1-Pad1)*
X22250000Y90630000D03*
G04 #@! TD*
D18*
G04 #@! TO.P,R2,1*
G04 #@! TO.N,VCC*
X27750000Y98250000D03*
D19*
G04 #@! TO.P,R2,2*
G04 #@! TO.N,Net-(C1-Pad2)*
X27750000Y90630000D03*
G04 #@! TD*
G04 #@! TO.P,R3,2*
G04 #@! TO.N,Net-(Q1-Pad1)*
X33500000Y90630000D03*
D18*
G04 #@! TO.P,R3,1*
G04 #@! TO.N,VCC*
X33500000Y98250000D03*
G04 #@! TD*
D20*
G04 #@! TO.N,*
X53250000Y93220000D02*
X53250000Y85215000D01*
X54782000Y83683000D02*
X56382000Y83683000D01*
X53250000Y85215000D02*
X54782000Y83683000D01*
X60005000Y93220000D02*
X60045000Y93260000D01*
X53250000Y93220000D02*
X60005000Y93220000D01*
X79920000Y84580000D02*
X79920000Y82920000D01*
X71490000Y82000000D02*
X70745000Y82745000D01*
X79920000Y82920000D02*
X79000000Y82000000D01*
X79000000Y82000000D02*
X71490000Y82000000D01*
X70745000Y82745000D02*
X70745000Y84580000D01*
X56382000Y83683000D02*
X57982000Y83683000D01*
X59665000Y82000000D02*
X70000000Y82000000D01*
X70000000Y82000000D02*
X70745000Y82745000D01*
X57982000Y83683000D02*
X59665000Y82000000D01*
X60045000Y97310000D02*
X60985000Y98250000D01*
X53250000Y95760000D02*
X60045000Y95760000D01*
X67250000Y98250000D02*
X88520000Y98250000D01*
X88520000Y98250000D02*
X90260000Y96510000D01*
X90260000Y83810000D02*
X90260000Y96510000D01*
X60045000Y95760000D02*
X60045000Y97310000D01*
X66260051Y98250000D02*
X67250000Y98250000D01*
X60985000Y98250000D02*
X66260051Y98250000D01*
X56382000Y86223000D02*
X63327000Y86223000D01*
X67250000Y90630000D02*
X64130000Y90630000D01*
X63327000Y86223000D02*
X63500000Y86050000D01*
X62250000Y88750000D02*
X62250000Y86250000D01*
X64130000Y90630000D02*
X62250000Y88750000D01*
X63500000Y86050000D02*
X63500000Y84500000D01*
X68000000Y87000000D02*
X68750000Y87750000D01*
X72750000Y90630000D02*
X72750000Y87750000D01*
X72750000Y87750000D02*
X73285000Y87215000D01*
X68000000Y85368630D02*
X68000000Y87000000D01*
X66000000Y84500000D02*
X67131370Y84500000D01*
X68750000Y87750000D02*
X72750000Y87750000D01*
X73285000Y87215000D02*
X73285000Y84580000D01*
X67131370Y84500000D02*
X68000000Y85368630D01*
X85000000Y83080000D02*
X86080000Y82000000D01*
X92800000Y96510000D02*
X92800000Y83810000D01*
X90990000Y82000000D02*
X92800000Y83810000D01*
X85000000Y84580000D02*
X85000000Y83080000D01*
X86080000Y82000000D02*
X90990000Y82000000D01*
X82500000Y84620000D02*
X82460000Y84580000D01*
X78500000Y86750000D02*
X81500000Y86750000D01*
X82500000Y85750000D02*
X82500000Y84620000D01*
X77250000Y86750000D02*
X78500000Y86750000D01*
X81500000Y86750000D02*
X82500000Y85750000D01*
X75825000Y84580000D02*
X75825000Y85325000D01*
X75825000Y85325000D02*
X77250000Y86750000D01*
X78500000Y90630000D02*
X78500000Y86750000D01*
X79000000Y62000000D02*
X71490000Y62000000D01*
X59665000Y62000000D02*
X70000000Y62000000D01*
X72750000Y67750000D02*
X73285000Y67215000D01*
X68000000Y67000000D02*
X68750000Y67750000D01*
X67250000Y78250000D02*
X88520000Y78250000D01*
X66000000Y64500000D02*
X67131370Y64500000D01*
X90990000Y62000000D02*
X92800000Y63810000D01*
X53250000Y73220000D02*
X53250000Y65215000D01*
X75825000Y64580000D02*
X75825000Y65325000D01*
X78500000Y70630000D02*
X78500000Y66750000D01*
X66260051Y78250000D02*
X67250000Y78250000D01*
X62250000Y68750000D02*
X62250000Y66250000D01*
X67131370Y64500000D02*
X68000000Y65368630D01*
X75825000Y65325000D02*
X77250000Y66750000D01*
X85000000Y63080000D02*
X86080000Y62000000D01*
X57982000Y63683000D02*
X59665000Y62000000D01*
X63327000Y66223000D02*
X63500000Y66050000D01*
X77250000Y66750000D02*
X78500000Y66750000D01*
X88520000Y78250000D02*
X90260000Y76510000D01*
X70000000Y62000000D02*
X70745000Y62745000D01*
X56382000Y63683000D02*
X57982000Y63683000D01*
X82500000Y65750000D02*
X82500000Y64620000D01*
X72750000Y70630000D02*
X72750000Y67750000D01*
X53250000Y65215000D02*
X54782000Y63683000D01*
X79920000Y64580000D02*
X79920000Y62920000D01*
X60045000Y77310000D02*
X60985000Y78250000D01*
X70745000Y62745000D02*
X70745000Y64580000D01*
X56382000Y66223000D02*
X63327000Y66223000D01*
X54782000Y63683000D02*
X56382000Y63683000D01*
X78500000Y66750000D02*
X81500000Y66750000D01*
X53250000Y75760000D02*
X60045000Y75760000D01*
X68000000Y65368630D02*
X68000000Y67000000D01*
X90260000Y63810000D02*
X90260000Y76510000D01*
X79920000Y62920000D02*
X79000000Y62000000D01*
X67250000Y70630000D02*
X64130000Y70630000D01*
X92800000Y76510000D02*
X92800000Y63810000D01*
X68750000Y67750000D02*
X72750000Y67750000D01*
X53250000Y73220000D02*
X60005000Y73220000D01*
X85000000Y64580000D02*
X85000000Y63080000D01*
X73285000Y67215000D02*
X73285000Y64580000D01*
X82500000Y64620000D02*
X82460000Y64580000D01*
X60045000Y75760000D02*
X60045000Y77310000D01*
X71490000Y62000000D02*
X70745000Y62745000D01*
X81500000Y66750000D02*
X82500000Y65750000D01*
X60005000Y73220000D02*
X60045000Y73260000D01*
X60985000Y78250000D02*
X66260051Y78250000D01*
X63500000Y66050000D02*
X63500000Y64500000D01*
X86080000Y62000000D02*
X90990000Y62000000D01*
X64130000Y70630000D02*
X62250000Y68750000D01*
X8250000Y73220000D02*
X8250000Y65215000D01*
X9782000Y63683000D02*
X11382000Y63683000D01*
X8250000Y65215000D02*
X9782000Y63683000D01*
X15005000Y73220000D02*
X15045000Y73260000D01*
X8250000Y73220000D02*
X15005000Y73220000D01*
X34920000Y64580000D02*
X34920000Y62920000D01*
X26490000Y62000000D02*
X25745000Y62745000D01*
X34920000Y62920000D02*
X34000000Y62000000D01*
X34000000Y62000000D02*
X26490000Y62000000D01*
X25745000Y62745000D02*
X25745000Y64580000D01*
X11382000Y63683000D02*
X12982000Y63683000D01*
X14665000Y62000000D02*
X25000000Y62000000D01*
X25000000Y62000000D02*
X25745000Y62745000D01*
X12982000Y63683000D02*
X14665000Y62000000D01*
X15045000Y77310000D02*
X15985000Y78250000D01*
X8250000Y75760000D02*
X15045000Y75760000D01*
X22250000Y78250000D02*
X43520000Y78250000D01*
X43520000Y78250000D02*
X45260000Y76510000D01*
X45260000Y63810000D02*
X45260000Y76510000D01*
X15045000Y75760000D02*
X15045000Y77310000D01*
X21260051Y78250000D02*
X22250000Y78250000D01*
X15985000Y78250000D02*
X21260051Y78250000D01*
X11382000Y66223000D02*
X18327000Y66223000D01*
X22250000Y70630000D02*
X19130000Y70630000D01*
X18327000Y66223000D02*
X18500000Y66050000D01*
X17250000Y68750000D02*
X17250000Y66250000D01*
X19130000Y70630000D02*
X17250000Y68750000D01*
X18500000Y66050000D02*
X18500000Y64500000D01*
X23000000Y67000000D02*
X23750000Y67750000D01*
X27750000Y70630000D02*
X27750000Y67750000D01*
X27750000Y67750000D02*
X28285000Y67215000D01*
X23000000Y65368630D02*
X23000000Y67000000D01*
X21000000Y64500000D02*
X22131370Y64500000D01*
X23750000Y67750000D02*
X27750000Y67750000D01*
X28285000Y67215000D02*
X28285000Y64580000D01*
X22131370Y64500000D02*
X23000000Y65368630D01*
X40000000Y63080000D02*
X41080000Y62000000D01*
X47800000Y76510000D02*
X47800000Y63810000D01*
X45990000Y62000000D02*
X47800000Y63810000D01*
X40000000Y64580000D02*
X40000000Y63080000D01*
X41080000Y62000000D02*
X45990000Y62000000D01*
X37500000Y64620000D02*
X37460000Y64580000D01*
X33500000Y66750000D02*
X36500000Y66750000D01*
X37500000Y65750000D02*
X37500000Y64620000D01*
X32250000Y66750000D02*
X33500000Y66750000D01*
X36500000Y66750000D02*
X37500000Y65750000D01*
X30825000Y64580000D02*
X30825000Y65325000D01*
X30825000Y65325000D02*
X32250000Y66750000D01*
X33500000Y70630000D02*
X33500000Y66750000D01*
X79000000Y42000000D02*
X71490000Y42000000D01*
X59665000Y42000000D02*
X70000000Y42000000D01*
X72750000Y47750000D02*
X73285000Y47215000D01*
X68000000Y47000000D02*
X68750000Y47750000D01*
X67250000Y58250000D02*
X88520000Y58250000D01*
X66000000Y44500000D02*
X67131370Y44500000D01*
X90990000Y42000000D02*
X92800000Y43810000D01*
X53250000Y53220000D02*
X53250000Y45215000D01*
X75825000Y44580000D02*
X75825000Y45325000D01*
X78500000Y50630000D02*
X78500000Y46750000D01*
X66260051Y58250000D02*
X67250000Y58250000D01*
X62250000Y48750000D02*
X62250000Y46250000D01*
X67131370Y44500000D02*
X68000000Y45368630D01*
X75825000Y45325000D02*
X77250000Y46750000D01*
X85000000Y43080000D02*
X86080000Y42000000D01*
X57982000Y43683000D02*
X59665000Y42000000D01*
X63327000Y46223000D02*
X63500000Y46050000D01*
X77250000Y46750000D02*
X78500000Y46750000D01*
X88520000Y58250000D02*
X90260000Y56510000D01*
X70000000Y42000000D02*
X70745000Y42745000D01*
X56382000Y43683000D02*
X57982000Y43683000D01*
X82500000Y45750000D02*
X82500000Y44620000D01*
X72750000Y50630000D02*
X72750000Y47750000D01*
X53250000Y45215000D02*
X54782000Y43683000D01*
X79920000Y44580000D02*
X79920000Y42920000D01*
X60045000Y57310000D02*
X60985000Y58250000D01*
X70745000Y42745000D02*
X70745000Y44580000D01*
X56382000Y46223000D02*
X63327000Y46223000D01*
X54782000Y43683000D02*
X56382000Y43683000D01*
X78500000Y46750000D02*
X81500000Y46750000D01*
X53250000Y55760000D02*
X60045000Y55760000D01*
X68000000Y45368630D02*
X68000000Y47000000D01*
X90260000Y43810000D02*
X90260000Y56510000D01*
X79920000Y42920000D02*
X79000000Y42000000D01*
X67250000Y50630000D02*
X64130000Y50630000D01*
X92800000Y56510000D02*
X92800000Y43810000D01*
X68750000Y47750000D02*
X72750000Y47750000D01*
X53250000Y53220000D02*
X60005000Y53220000D01*
X85000000Y44580000D02*
X85000000Y43080000D01*
X73285000Y47215000D02*
X73285000Y44580000D01*
X82500000Y44620000D02*
X82460000Y44580000D01*
X60045000Y55760000D02*
X60045000Y57310000D01*
X71490000Y42000000D02*
X70745000Y42745000D01*
X81500000Y46750000D02*
X82500000Y45750000D01*
X60005000Y53220000D02*
X60045000Y53260000D01*
X60985000Y58250000D02*
X66260051Y58250000D01*
X63500000Y46050000D02*
X63500000Y44500000D01*
X86080000Y42000000D02*
X90990000Y42000000D01*
X64130000Y50630000D02*
X62250000Y48750000D01*
X8250000Y53220000D02*
X8250000Y45215000D01*
X9782000Y43683000D02*
X11382000Y43683000D01*
X8250000Y45215000D02*
X9782000Y43683000D01*
X15005000Y53220000D02*
X15045000Y53260000D01*
X8250000Y53220000D02*
X15005000Y53220000D01*
X34920000Y44580000D02*
X34920000Y42920000D01*
X26490000Y42000000D02*
X25745000Y42745000D01*
X34920000Y42920000D02*
X34000000Y42000000D01*
X34000000Y42000000D02*
X26490000Y42000000D01*
X25745000Y42745000D02*
X25745000Y44580000D01*
X11382000Y43683000D02*
X12982000Y43683000D01*
X14665000Y42000000D02*
X25000000Y42000000D01*
X25000000Y42000000D02*
X25745000Y42745000D01*
X12982000Y43683000D02*
X14665000Y42000000D01*
X15045000Y57310000D02*
X15985000Y58250000D01*
X8250000Y55760000D02*
X15045000Y55760000D01*
X22250000Y58250000D02*
X43520000Y58250000D01*
X43520000Y58250000D02*
X45260000Y56510000D01*
X45260000Y43810000D02*
X45260000Y56510000D01*
X15045000Y55760000D02*
X15045000Y57310000D01*
X21260051Y58250000D02*
X22250000Y58250000D01*
X15985000Y58250000D02*
X21260051Y58250000D01*
X11382000Y46223000D02*
X18327000Y46223000D01*
X22250000Y50630000D02*
X19130000Y50630000D01*
X18327000Y46223000D02*
X18500000Y46050000D01*
X17250000Y48750000D02*
X17250000Y46250000D01*
X19130000Y50630000D02*
X17250000Y48750000D01*
X18500000Y46050000D02*
X18500000Y44500000D01*
X23000000Y47000000D02*
X23750000Y47750000D01*
X27750000Y50630000D02*
X27750000Y47750000D01*
X27750000Y47750000D02*
X28285000Y47215000D01*
X23000000Y45368630D02*
X23000000Y47000000D01*
X21000000Y44500000D02*
X22131370Y44500000D01*
X23750000Y47750000D02*
X27750000Y47750000D01*
X28285000Y47215000D02*
X28285000Y44580000D01*
X22131370Y44500000D02*
X23000000Y45368630D01*
X40000000Y43080000D02*
X41080000Y42000000D01*
X47800000Y56510000D02*
X47800000Y43810000D01*
X45990000Y42000000D02*
X47800000Y43810000D01*
X40000000Y44580000D02*
X40000000Y43080000D01*
X41080000Y42000000D02*
X45990000Y42000000D01*
X37500000Y44620000D02*
X37460000Y44580000D01*
X33500000Y46750000D02*
X36500000Y46750000D01*
X37500000Y45750000D02*
X37500000Y44620000D01*
X32250000Y46750000D02*
X33500000Y46750000D01*
X36500000Y46750000D02*
X37500000Y45750000D01*
X30825000Y44580000D02*
X30825000Y45325000D01*
X30825000Y45325000D02*
X32250000Y46750000D01*
X33500000Y50630000D02*
X33500000Y46750000D01*
X79000000Y22000000D02*
X71490000Y22000000D01*
X59665000Y22000000D02*
X70000000Y22000000D01*
X72750000Y27750000D02*
X73285000Y27215000D01*
X68000000Y27000000D02*
X68750000Y27750000D01*
X67250000Y38250000D02*
X88520000Y38250000D01*
X66000000Y24500000D02*
X67131370Y24500000D01*
X90990000Y22000000D02*
X92800000Y23810000D01*
X53250000Y33220000D02*
X53250000Y25215000D01*
X75825000Y24580000D02*
X75825000Y25325000D01*
X78500000Y30630000D02*
X78500000Y26750000D01*
X66260051Y38250000D02*
X67250000Y38250000D01*
X62250000Y28750000D02*
X62250000Y26250000D01*
X67131370Y24500000D02*
X68000000Y25368630D01*
X75825000Y25325000D02*
X77250000Y26750000D01*
X85000000Y23080000D02*
X86080000Y22000000D01*
X57982000Y23683000D02*
X59665000Y22000000D01*
X63327000Y26223000D02*
X63500000Y26050000D01*
X77250000Y26750000D02*
X78500000Y26750000D01*
X88520000Y38250000D02*
X90260000Y36510000D01*
X70000000Y22000000D02*
X70745000Y22745000D01*
X56382000Y23683000D02*
X57982000Y23683000D01*
X82500000Y25750000D02*
X82500000Y24620000D01*
X72750000Y30630000D02*
X72750000Y27750000D01*
X53250000Y25215000D02*
X54782000Y23683000D01*
X79920000Y24580000D02*
X79920000Y22920000D01*
X60045000Y37310000D02*
X60985000Y38250000D01*
X70745000Y22745000D02*
X70745000Y24580000D01*
X56382000Y26223000D02*
X63327000Y26223000D01*
X54782000Y23683000D02*
X56382000Y23683000D01*
X78500000Y26750000D02*
X81500000Y26750000D01*
X53250000Y35760000D02*
X60045000Y35760000D01*
X68000000Y25368630D02*
X68000000Y27000000D01*
X90260000Y23810000D02*
X90260000Y36510000D01*
X79920000Y22920000D02*
X79000000Y22000000D01*
X67250000Y30630000D02*
X64130000Y30630000D01*
X92800000Y36510000D02*
X92800000Y23810000D01*
X68750000Y27750000D02*
X72750000Y27750000D01*
X53250000Y33220000D02*
X60005000Y33220000D01*
X85000000Y24580000D02*
X85000000Y23080000D01*
X73285000Y27215000D02*
X73285000Y24580000D01*
X82500000Y24620000D02*
X82460000Y24580000D01*
X60045000Y35760000D02*
X60045000Y37310000D01*
X71490000Y22000000D02*
X70745000Y22745000D01*
X81500000Y26750000D02*
X82500000Y25750000D01*
X60005000Y33220000D02*
X60045000Y33260000D01*
X60985000Y38250000D02*
X66260051Y38250000D01*
X63500000Y26050000D02*
X63500000Y24500000D01*
X86080000Y22000000D02*
X90990000Y22000000D01*
X64130000Y30630000D02*
X62250000Y28750000D01*
X8250000Y33220000D02*
X8250000Y25215000D01*
X9782000Y23683000D02*
X11382000Y23683000D01*
X8250000Y25215000D02*
X9782000Y23683000D01*
X15005000Y33220000D02*
X15045000Y33260000D01*
X8250000Y33220000D02*
X15005000Y33220000D01*
X34920000Y24580000D02*
X34920000Y22920000D01*
X26490000Y22000000D02*
X25745000Y22745000D01*
X34920000Y22920000D02*
X34000000Y22000000D01*
X34000000Y22000000D02*
X26490000Y22000000D01*
X25745000Y22745000D02*
X25745000Y24580000D01*
X11382000Y23683000D02*
X12982000Y23683000D01*
X14665000Y22000000D02*
X25000000Y22000000D01*
X25000000Y22000000D02*
X25745000Y22745000D01*
X12982000Y23683000D02*
X14665000Y22000000D01*
X15045000Y37310000D02*
X15985000Y38250000D01*
X8250000Y35760000D02*
X15045000Y35760000D01*
X22250000Y38250000D02*
X43520000Y38250000D01*
X43520000Y38250000D02*
X45260000Y36510000D01*
X45260000Y23810000D02*
X45260000Y36510000D01*
X15045000Y35760000D02*
X15045000Y37310000D01*
X21260051Y38250000D02*
X22250000Y38250000D01*
X15985000Y38250000D02*
X21260051Y38250000D01*
X11382000Y26223000D02*
X18327000Y26223000D01*
X22250000Y30630000D02*
X19130000Y30630000D01*
X18327000Y26223000D02*
X18500000Y26050000D01*
X17250000Y28750000D02*
X17250000Y26250000D01*
X19130000Y30630000D02*
X17250000Y28750000D01*
X18500000Y26050000D02*
X18500000Y24500000D01*
X23000000Y27000000D02*
X23750000Y27750000D01*
X27750000Y30630000D02*
X27750000Y27750000D01*
X27750000Y27750000D02*
X28285000Y27215000D01*
X23000000Y25368630D02*
X23000000Y27000000D01*
X21000000Y24500000D02*
X22131370Y24500000D01*
X23750000Y27750000D02*
X27750000Y27750000D01*
X28285000Y27215000D02*
X28285000Y24580000D01*
X22131370Y24500000D02*
X23000000Y25368630D01*
X40000000Y23080000D02*
X41080000Y22000000D01*
X47800000Y36510000D02*
X47800000Y23810000D01*
X45990000Y22000000D02*
X47800000Y23810000D01*
X40000000Y24580000D02*
X40000000Y23080000D01*
X41080000Y22000000D02*
X45990000Y22000000D01*
X37500000Y24620000D02*
X37460000Y24580000D01*
X33500000Y26750000D02*
X36500000Y26750000D01*
X37500000Y25750000D02*
X37500000Y24620000D01*
X32250000Y26750000D02*
X33500000Y26750000D01*
X36500000Y26750000D02*
X37500000Y25750000D01*
X30825000Y24580000D02*
X30825000Y25325000D01*
X30825000Y25325000D02*
X32250000Y26750000D01*
X33500000Y30630000D02*
X33500000Y26750000D01*
X79000000Y2000000D02*
X71490000Y2000000D01*
X59665000Y2000000D02*
X70000000Y2000000D01*
X72750000Y7750000D02*
X73285000Y7215000D01*
X68000000Y7000000D02*
X68750000Y7750000D01*
X67250000Y18250000D02*
X88520000Y18250000D01*
X66000000Y4500000D02*
X67131370Y4500000D01*
X90990000Y2000000D02*
X92800000Y3810000D01*
X53250000Y13220000D02*
X53250000Y5215000D01*
X75825000Y4580000D02*
X75825000Y5325000D01*
X78500000Y10630000D02*
X78500000Y6750000D01*
X66260051Y18250000D02*
X67250000Y18250000D01*
X62250000Y8750000D02*
X62250000Y6250000D01*
X67131370Y4500000D02*
X68000000Y5368630D01*
X75825000Y5325000D02*
X77250000Y6750000D01*
X85000000Y3080000D02*
X86080000Y2000000D01*
X57982000Y3683000D02*
X59665000Y2000000D01*
X63327000Y6223000D02*
X63500000Y6050000D01*
X77250000Y6750000D02*
X78500000Y6750000D01*
X88520000Y18250000D02*
X90260000Y16510000D01*
X70000000Y2000000D02*
X70745000Y2745000D01*
X56382000Y3683000D02*
X57982000Y3683000D01*
X82500000Y5750000D02*
X82500000Y4620000D01*
X72750000Y10630000D02*
X72750000Y7750000D01*
X53250000Y5215000D02*
X54782000Y3683000D01*
X79920000Y4580000D02*
X79920000Y2920000D01*
X60045000Y17310000D02*
X60985000Y18250000D01*
X70745000Y2745000D02*
X70745000Y4580000D01*
X56382000Y6223000D02*
X63327000Y6223000D01*
X54782000Y3683000D02*
X56382000Y3683000D01*
X78500000Y6750000D02*
X81500000Y6750000D01*
X53250000Y15760000D02*
X60045000Y15760000D01*
X68000000Y5368630D02*
X68000000Y7000000D01*
X90260000Y3810000D02*
X90260000Y16510000D01*
X79920000Y2920000D02*
X79000000Y2000000D01*
X67250000Y10630000D02*
X64130000Y10630000D01*
X92800000Y16510000D02*
X92800000Y3810000D01*
X68750000Y7750000D02*
X72750000Y7750000D01*
X53250000Y13220000D02*
X60005000Y13220000D01*
X85000000Y4580000D02*
X85000000Y3080000D01*
X73285000Y7215000D02*
X73285000Y4580000D01*
X82500000Y4620000D02*
X82460000Y4580000D01*
X60045000Y15760000D02*
X60045000Y17310000D01*
X71490000Y2000000D02*
X70745000Y2745000D01*
X81500000Y6750000D02*
X82500000Y5750000D01*
X60005000Y13220000D02*
X60045000Y13260000D01*
X60985000Y18250000D02*
X66260051Y18250000D01*
X63500000Y6050000D02*
X63500000Y4500000D01*
X86080000Y2000000D02*
X90990000Y2000000D01*
X64130000Y10630000D02*
X62250000Y8750000D01*
X8250000Y13220000D02*
X8250000Y5215000D01*
X9782000Y3683000D02*
X11382000Y3683000D01*
X8250000Y5215000D02*
X9782000Y3683000D01*
X15005000Y13220000D02*
X15045000Y13260000D01*
X8250000Y13220000D02*
X15005000Y13220000D01*
X34920000Y4580000D02*
X34920000Y2920000D01*
X26490000Y2000000D02*
X25745000Y2745000D01*
X34920000Y2920000D02*
X34000000Y2000000D01*
X34000000Y2000000D02*
X26490000Y2000000D01*
X25745000Y2745000D02*
X25745000Y4580000D01*
X11382000Y3683000D02*
X12982000Y3683000D01*
X14665000Y2000000D02*
X25000000Y2000000D01*
X25000000Y2000000D02*
X25745000Y2745000D01*
X12982000Y3683000D02*
X14665000Y2000000D01*
X15045000Y17310000D02*
X15985000Y18250000D01*
X8250000Y15760000D02*
X15045000Y15760000D01*
X22250000Y18250000D02*
X43520000Y18250000D01*
X43520000Y18250000D02*
X45260000Y16510000D01*
X45260000Y3810000D02*
X45260000Y16510000D01*
X15045000Y15760000D02*
X15045000Y17310000D01*
X21260051Y18250000D02*
X22250000Y18250000D01*
X15985000Y18250000D02*
X21260051Y18250000D01*
X11382000Y6223000D02*
X18327000Y6223000D01*
X22250000Y10630000D02*
X19130000Y10630000D01*
X18327000Y6223000D02*
X18500000Y6050000D01*
X17250000Y8750000D02*
X17250000Y6250000D01*
X19130000Y10630000D02*
X17250000Y8750000D01*
X18500000Y6050000D02*
X18500000Y4500000D01*
X23000000Y7000000D02*
X23750000Y7750000D01*
X27750000Y10630000D02*
X27750000Y7750000D01*
X27750000Y7750000D02*
X28285000Y7215000D01*
X23000000Y5368630D02*
X23000000Y7000000D01*
X21000000Y4500000D02*
X22131370Y4500000D01*
X23750000Y7750000D02*
X27750000Y7750000D01*
X28285000Y7215000D02*
X28285000Y4580000D01*
X22131370Y4500000D02*
X23000000Y5368630D01*
X40000000Y3080000D02*
X41080000Y2000000D01*
X47800000Y16510000D02*
X47800000Y3810000D01*
X45990000Y2000000D02*
X47800000Y3810000D01*
X40000000Y4580000D02*
X40000000Y3080000D01*
X41080000Y2000000D02*
X45990000Y2000000D01*
X37500000Y4620000D02*
X37460000Y4580000D01*
X33500000Y6750000D02*
X36500000Y6750000D01*
X37500000Y5750000D02*
X37500000Y4620000D01*
X32250000Y6750000D02*
X33500000Y6750000D01*
X36500000Y6750000D02*
X37500000Y5750000D01*
X30825000Y4580000D02*
X30825000Y5325000D01*
X30825000Y5325000D02*
X32250000Y6750000D01*
X33500000Y10630000D02*
X33500000Y6750000D01*
G04 #@! TO.N,GNDREF*
X15005000Y93220000D02*
X15045000Y93260000D01*
X8250000Y93220000D02*
X15005000Y93220000D01*
X9782000Y83683000D02*
X11382000Y83683000D01*
X8250000Y85215000D02*
X9782000Y83683000D01*
X8250000Y93220000D02*
X8250000Y85215000D01*
X25745000Y82745000D02*
X25745000Y84580000D01*
X25000000Y82000000D02*
X25745000Y82745000D01*
X14665000Y82000000D02*
X25000000Y82000000D01*
X11382000Y83683000D02*
X12982000Y83683000D01*
X12982000Y83683000D02*
X14665000Y82000000D01*
X34920000Y84580000D02*
X34920000Y82920000D01*
X34920000Y82920000D02*
X34000000Y82000000D01*
X26490000Y82000000D02*
X25745000Y82745000D01*
X34000000Y82000000D02*
X26490000Y82000000D01*
G04 #@! TO.N,VCC*
X8250000Y95760000D02*
X15045000Y95760000D01*
X21260051Y98250000D02*
X22250000Y98250000D01*
X15985000Y98250000D02*
X21260051Y98250000D01*
X15045000Y97310000D02*
X15985000Y98250000D01*
X15045000Y95760000D02*
X15045000Y97310000D01*
X43520000Y98250000D02*
X45260000Y96510000D01*
X22250000Y98250000D02*
X43520000Y98250000D01*
X45260000Y83810000D02*
X45260000Y96510000D01*
G04 #@! TO.N,Net-(C1-Pad1)*
X18500000Y86050000D02*
X18500000Y84500000D01*
X18327000Y86223000D02*
X18500000Y86050000D01*
X11382000Y86223000D02*
X18327000Y86223000D01*
X17250000Y88750000D02*
X17250000Y86250000D01*
X22250000Y90630000D02*
X19130000Y90630000D01*
X19130000Y90630000D02*
X17250000Y88750000D01*
G04 #@! TO.N,Net-(C1-Pad2)*
X27750000Y90630000D02*
X27750000Y87750000D01*
X28285000Y87215000D02*
X28285000Y84580000D01*
X27750000Y87750000D02*
X28285000Y87215000D01*
X22131370Y84500000D02*
X23000000Y85368630D01*
X21000000Y84500000D02*
X22131370Y84500000D01*
X23000000Y85368630D02*
X23000000Y87000000D01*
X23750000Y87750000D02*
X27750000Y87750000D01*
X23000000Y87000000D02*
X23750000Y87750000D01*
G04 #@! TO.N,Net-(D1-Pad1)*
X47800000Y96510000D02*
X47800000Y83810000D01*
X45990000Y82000000D02*
X47800000Y83810000D01*
X41080000Y82000000D02*
X45990000Y82000000D01*
X40000000Y84580000D02*
X40000000Y83080000D01*
X40000000Y83080000D02*
X41080000Y82000000D01*
G04 #@! TO.N,Net-(Q1-Pad1)*
X37500000Y84620000D02*
X37460000Y84580000D01*
X37500000Y85750000D02*
X37500000Y84620000D01*
X36500000Y86750000D02*
X37500000Y85750000D01*
X30825000Y84580000D02*
X30825000Y85325000D01*
X30825000Y85325000D02*
X32250000Y86750000D01*
X33500000Y90630000D02*
X33500000Y86750000D01*
X32250000Y86750000D02*
X33500000Y86750000D01*
X33500000Y86750000D02*
X36500000Y86750000D01*
G04 #@! TD*
M02*
