M48
;DRILL file {KiCad (5.0.2)-1} date 5/19/2019 12:08:15 AM
;FORMAT={-:-/ absolute / metric / decimal}
FMAT,2
METRIC,TZ
T1C0.700
T2C0.800
T3C0.900
T4C1.000
%
G90
G05
T1
X33.5Y98.25
X33.5Y90.63
X67.25Y38.25
X67.25Y30.63
X22.25Y78.25
X22.25Y70.63
X27.75Y38.25
X27.75Y30.63
X22.25Y38.25
X22.25Y30.63
X33.5Y78.25
X33.5Y70.63
X27.75Y18.25
X27.75Y10.63
X78.5Y58.25
X78.5Y50.63
X22.25Y18.25
X22.25Y10.63
X27.75Y58.25
X27.75Y50.63
X72.75Y38.25
X72.75Y30.63
X67.25Y78.25
X67.25Y70.63
X78.5Y38.25
X78.5Y30.63
X27.75Y78.25
X27.75Y70.63
X33.5Y18.25
X33.5Y10.63
X27.75Y98.25
X27.75Y90.63
X67.25Y58.25
X67.25Y50.63
X22.25Y58.25
X22.25Y50.63
X78.5Y18.25
X78.5Y10.63
X67.25Y18.25
X67.25Y10.63
X22.25Y98.25
X22.25Y90.63
X33.5Y58.25
X33.5Y50.63
X78.5Y98.25
X78.5Y90.63
X67.25Y98.25
X67.25Y90.63
X72.75Y98.25
X72.75Y90.63
X33.5Y38.25
X33.5Y30.63
X72.75Y78.25
X72.75Y70.63
X72.75Y18.25
X72.75Y10.63
X72.75Y58.25
X72.75Y50.63
X78.5Y78.25
X78.5Y70.63
T2
X25.745Y64.58
X28.285Y64.58
X30.825Y64.58
X34.92Y24.58
X37.46Y24.58
X40.Y24.58
X18.5Y84.5
X21.Y84.5
X34.92Y64.58
X37.46Y64.58
X40.Y64.58
X15.045Y95.76
X15.045Y93.26
X60.045Y35.76
X60.045Y33.26
X70.745Y24.58
X73.285Y24.58
X75.825Y24.58
X63.5Y44.5
X66.Y44.5
X63.5Y4.5
X66.Y4.5
X15.045Y15.76
X15.045Y13.26
X60.045Y55.76
X60.045Y53.26
X60.045Y95.76
X60.045Y93.26
X25.745Y44.58
X28.285Y44.58
X30.825Y44.58
X15.045Y55.76
X15.045Y53.26
X60.045Y15.76
X60.045Y13.26
X79.92Y44.58
X82.46Y44.58
X85.Y44.58
X60.045Y75.76
X60.045Y73.26
X79.92Y64.58
X82.46Y64.58
X85.Y64.58
X79.92Y84.58
X82.46Y84.58
X85.Y84.58
X25.745Y84.58
X28.285Y84.58
X30.825Y84.58
X70.745Y44.58
X73.285Y44.58
X75.825Y44.58
X70.745Y4.58
X73.285Y4.58
X75.825Y4.58
X63.5Y64.5
X66.Y64.5
X18.5Y24.5
X21.Y24.5
X63.5Y84.5
X66.Y84.5
X18.5Y44.5
X21.Y44.5
X15.045Y35.76
X15.045Y33.26
X70.745Y84.58
X73.285Y84.58
X75.825Y84.58
X63.5Y24.5
X66.Y24.5
X34.92Y4.58
X37.46Y4.58
X40.Y4.58
X34.92Y44.58
X37.46Y44.58
X40.Y44.58
X70.745Y64.58
X73.285Y64.58
X75.825Y64.58
X79.92Y24.58
X82.46Y24.58
X85.Y24.58
X34.92Y84.58
X37.46Y84.58
X40.Y84.58
X25.745Y4.58
X28.285Y4.58
X30.825Y4.58
X15.045Y75.76
X15.045Y73.26
X25.745Y24.58
X28.285Y24.58
X30.825Y24.58
X18.5Y64.5
X21.Y64.5
X79.92Y4.58
X82.46Y4.58
X85.Y4.58
X18.5Y4.5
X21.Y4.5
T3
X45.26Y76.51
X47.8Y76.51
X45.26Y43.81
X47.8Y43.81
X45.26Y30.16
X47.8Y30.16
X90.26Y30.16
X92.8Y30.16
X45.26Y96.51
X47.8Y96.51
X45.26Y16.51
X47.8Y16.51
X45.26Y50.16
X47.8Y50.16
X45.26Y36.51
X47.8Y36.51
X45.26Y63.81
X47.8Y63.81
X90.26Y36.51
X92.8Y36.51
X90.26Y3.81
X92.8Y3.81
X90.26Y90.16
X92.8Y90.16
X90.26Y23.81
X92.8Y23.81
X90.26Y50.16
X92.8Y50.16
X90.26Y16.51
X92.8Y16.51
X90.26Y10.16
X92.8Y10.16
X90.26Y76.51
X92.8Y76.51
X90.26Y63.81
X92.8Y63.81
X90.26Y96.51
X92.8Y96.51
X45.26Y3.81
X47.8Y3.81
X45.26Y83.81
X47.8Y83.81
X90.26Y56.51
X92.8Y56.51
X90.26Y70.16
X92.8Y70.16
X45.26Y23.81
X47.8Y23.81
X90.26Y43.81
X92.8Y43.81
X90.26Y83.81
X92.8Y83.81
X45.26Y10.16
X47.8Y10.16
X45.26Y56.51
X47.8Y56.51
X45.26Y70.16
X47.8Y70.16
X45.26Y90.16
X47.8Y90.16
T4
X11.382Y46.223
X11.382Y43.683
X8.25Y15.76
X8.25Y13.22
X56.382Y6.223
X56.382Y3.683
X11.382Y86.223
X11.382Y83.683
X53.25Y35.76
X53.25Y33.22
X8.25Y95.76
X8.25Y93.22
X53.25Y55.76
X53.25Y53.22
X8.25Y75.76
X8.25Y73.22
X8.25Y35.76
X8.25Y33.22
X53.25Y75.76
X53.25Y73.22
X56.382Y26.223
X56.382Y23.683
X11.382Y66.223
X11.382Y63.683
X8.25Y55.76
X8.25Y53.22
X56.382Y66.223
X56.382Y63.683
X56.382Y86.223
X56.382Y83.683
X53.25Y15.76
X53.25Y13.22
X56.382Y46.223
X56.382Y43.683
X11.382Y26.223
X11.382Y23.683
X53.25Y95.76
X53.25Y93.22
X11.382Y6.223
X11.382Y3.683
T0
M30
